<?xml version="1.0" encoding="utf-8"?>
<!-- Generator: Adobe Illustrator 24.1.2, SVG Export Plug-In . SVG Version: 6.00 Build 0)  -->
<svg version="1.1" id="Statistics_bars" xmlns="http://www.w3.org/2000/svg" xmlns:xlink="http://www.w3.org/1999/xlink" x="0px"
	 y="0px" viewBox="0 0 982.7 1142.3" style="enable-background:new 0 0 982.7 1142.3;" xml:space="preserve">
<style type="text/css">
	.st0{display:none;}
	.st1{fill:#FFFFFF;}
</style>
<g id="_x39_pDiYE.tif" class="st0">
</g>
<g>
	<g>
		<path class="st1" d="M881.9,367.1H710.2L692.4,413h45.7c5.5,0,10.1,4.5,10.1,10.1v8.8c0,5.5-4.5,10.1-10.1,10.1H243.5
			c-5.5,0-10.1-4.5-10.1-10.1v-8.8c0-5.5,4.5-10.1,10.1-10.1h50.6l18-45.9H98.8L21,489.8h938.8L881.9,367.1z"/>
	</g>
	<polygon class="st1" points="495.8,8 337.2,413 649.5,413 765.2,113.7 	"/>
	<rect x="8" y="529.7" class="st1" width="963.7" height="112.7"/>
	<rect x="43.9" y="682.4" class="st1" width="892.9" height="476.9"/>
</g>
</svg>
