<?xml version="1.0" encoding="utf-8"?>
<!-- Generator: Adobe Illustrator 24.1.2, SVG Export Plug-In . SVG Version: 6.00 Build 0)  -->
<svg version="1.1" id="Layer_1" xmlns="http://www.w3.org/2000/svg" xmlns:xlink="http://www.w3.org/1999/xlink" x="0px" y="0px"
	 viewBox="0 0 486.2 160.1" style="enable-background:new 0 0 486.2 160.1;" xml:space="preserve">
<style type="text/css">
	.st0{fill:none;stroke:#A7A9AC;stroke-width:5.2073;stroke-miterlimit:10;}
	.st1{fill:none;stroke:#A7A9AC;stroke-width:4;stroke-miterlimit:10;}
	.st2{fill:#FACF40;}
	.st3{fill:#A7A9AC;}
	.st4{fill:none;stroke:#A7A9AC;stroke-width:2;stroke-miterlimit:10;}
	.st5{fill:none;stroke:#FACF40;stroke-width:6;stroke-miterlimit:10;}
</style>
<path class="st0" d="M466.7,153.6H12.9c-2.8,0-5-2.2-5-5V24.3c0-2.8,2.2-5,5-5h453.8c2.8,0,5,2.2,5,5v124.3
	C471.7,151.3,469.5,153.6,466.7,153.6z"/>
<line class="st1" x1="7.9" y1="62.7" x2="471.7" y2="62.7"/>
<polygon class="st2" points="446.7,26.8 451.1,35.7 460.9,37.2 453.8,44.1 455.4,53.8 446.7,49.2 437.9,53.8 439.6,44.1 432.5,37.2 
	442.3,35.7 "/>
<g>
	<path class="st3" d="M31.4,38.1c0,1.5-0.5,2.7-1.4,3.5s-2.3,1.2-4.1,1.2h-1.3V48h-3V33.7h4.6c1.7,0,3,0.4,4,1.1
		S31.4,36.7,31.4,38.1z M24.6,40.4h1c0.9,0,1.6-0.2,2.1-0.6s0.7-0.9,0.7-1.6c0-0.7-0.2-1.2-0.6-1.6s-1-0.5-1.8-0.5h-1.4V40.4z"/>
	<path class="st3" d="M40,36.8c0.4,0,0.7,0,1,0.1l-0.2,2.8c-0.2-0.1-0.5-0.1-0.9-0.1c-1,0-1.7,0.2-2.2,0.7s-0.8,1.2-0.8,2.1V48h-3
		V37h2.3l0.4,1.8h0.1c0.3-0.6,0.8-1.1,1.4-1.5S39.3,36.8,40,36.8z"/>
	<path class="st3" d="M47.9,48.2c-1.8,0-3.1-0.5-4.1-1.5s-1.5-2.3-1.5-4.1c0-1.8,0.5-3.2,1.4-4.2s2.2-1.5,3.8-1.5
		c1.5,0,2.7,0.4,3.6,1.3s1.3,2.1,1.3,3.6v1.4h-7c0,0.8,0.3,1.5,0.8,2s1.1,0.7,2,0.7c0.7,0,1.3-0.1,1.9-0.2s1.2-0.4,1.8-0.7v2.3
		c-0.5,0.3-1.1,0.5-1.7,0.6S48.7,48.2,47.9,48.2z M47.5,39c-0.6,0-1.1,0.2-1.5,0.6s-0.6,1-0.6,1.7h4.2c0-0.7-0.2-1.3-0.6-1.7
		S48.1,39,47.5,39z"/>
	<path class="st3" d="M62.4,44.7c0,1.1-0.4,2-1.2,2.6s-1.9,0.9-3.5,0.9c-0.8,0-1.5-0.1-2-0.2s-1.1-0.3-1.6-0.5v-2.5
		c0.6,0.3,1.2,0.5,1.9,0.7s1.3,0.3,1.8,0.3c1.1,0,1.6-0.3,1.6-0.9c0-0.2-0.1-0.4-0.2-0.6s-0.4-0.3-0.7-0.5s-0.8-0.4-1.4-0.6
		c-0.8-0.4-1.5-0.7-1.9-1s-0.7-0.6-0.9-1s-0.3-0.9-0.3-1.4c0-1,0.4-1.7,1.1-2.3s1.8-0.8,3.2-0.8c1.3,0,2.6,0.3,3.8,0.9l-0.9,2.1
		c-0.5-0.2-1.1-0.4-1.5-0.6s-1-0.2-1.5-0.2c-0.9,0-1.3,0.2-1.3,0.7c0,0.3,0.1,0.5,0.4,0.7s0.9,0.5,1.9,0.9c0.9,0.3,1.5,0.7,1.9,1
		s0.7,0.6,0.9,1S62.4,44.2,62.4,44.7z"/>
	<path class="st3" d="M64.6,34.2c0-1,0.5-1.5,1.6-1.5s1.6,0.5,1.6,1.5c0,0.5-0.1,0.8-0.4,1.1s-0.7,0.4-1.2,0.4
		C65.1,35.7,64.6,35.2,64.6,34.2z M67.7,48h-3V37h3V48z"/>
	<path class="st3" d="M74.3,48.2c-1.3,0-2.3-0.5-3-1.5s-1.1-2.4-1.1-4.1c0-1.8,0.4-3.2,1.1-4.2s1.8-1.5,3.1-1.5
		c1.4,0,2.4,0.5,3.1,1.6h0.1c-0.1-0.8-0.2-1.5-0.2-2.2v-3.5h3V48h-2.3l-0.6-1.4h-0.1C76.7,47.6,75.6,48.2,74.3,48.2z M75.3,45.8
		c0.8,0,1.3-0.2,1.7-0.7s0.5-1.2,0.6-2.3v-0.3c0-1.2-0.2-2-0.5-2.5s-0.9-0.8-1.8-0.8c-0.7,0-1.2,0.3-1.5,0.8s-0.6,1.4-0.6,2.5
		s0.2,1.9,0.6,2.4S74.6,45.8,75.3,45.8z"/>
	<path class="st3" d="M88.4,48.2c-1.8,0-3.1-0.5-4.1-1.5s-1.5-2.3-1.5-4.1c0-1.8,0.5-3.2,1.4-4.2s2.2-1.5,3.8-1.5
		c1.5,0,2.7,0.4,3.6,1.3s1.3,2.1,1.3,3.6v1.4h-7c0,0.8,0.3,1.5,0.8,2s1.1,0.7,2,0.7c0.7,0,1.3-0.1,1.9-0.2s1.2-0.4,1.8-0.7v2.3
		c-0.5,0.3-1.1,0.5-1.7,0.6S89.3,48.2,88.4,48.2z M88,39c-0.6,0-1.1,0.2-1.5,0.6s-0.6,1-0.6,1.7h4.2c0-0.7-0.2-1.3-0.6-1.7
		S88.6,39,88,39z"/>
	<path class="st3" d="M105.4,48h-3v-6.4c0-0.8-0.1-1.4-0.4-1.8s-0.7-0.6-1.3-0.6c-0.8,0-1.4,0.3-1.8,0.8s-0.6,1.5-0.6,2.8V48h-3V37
		h2.3l0.4,1.4h0.2c0.3-0.5,0.8-0.9,1.4-1.2s1.2-0.4,2-0.4c1.3,0,2.2,0.3,2.9,1s1,1.7,1,3V48z"/>
	<path class="st3" d="M113,45.8c0.5,0,1.1-0.1,1.9-0.3v2.2c-0.7,0.3-1.7,0.5-2.7,0.5c-1.2,0-2.1-0.3-2.6-0.9s-0.8-1.5-0.8-2.7v-5.3
		h-1.4V38l1.6-1l0.9-2.3h1.9V37h3.1v2.2h-3.1v5.3c0,0.4,0.1,0.7,0.4,0.9S112.6,45.8,113,45.8z"/>
	<path class="st3" d="M128.9,33.7L123.6,48h-2.7l5.3-14.3H128.9z"/>
	<path class="st3" d="M144.1,33.7h3.1L142.3,48H139l-4.8-14.3h3.1l2.7,8.5c0.1,0.5,0.3,1.1,0.5,1.8s0.3,1.1,0.3,1.4
		c0.1-0.6,0.3-1.6,0.7-3.1L144.1,33.7z"/>
	<path class="st3" d="M148.6,34.2c0-1,0.5-1.5,1.6-1.5s1.6,0.5,1.6,1.5c0,0.5-0.1,0.8-0.4,1.1s-0.7,0.4-1.2,0.4
		C149.2,35.7,148.6,35.2,148.6,34.2z M151.7,48h-3V37h3V48z"/>
	<path class="st3" d="M159.3,48.2c-3.4,0-5.1-1.9-5.1-5.6c0-1.9,0.5-3.3,1.4-4.3s2.2-1.5,4-1.5c1.3,0,2.4,0.2,3.4,0.7l-0.9,2.3
		c-0.5-0.2-0.9-0.3-1.3-0.5s-0.8-0.2-1.2-0.2c-1.5,0-2.3,1.1-2.3,3.3c0,2.1,0.8,3.2,2.3,3.2c0.6,0,1.1-0.1,1.6-0.2s1-0.4,1.5-0.7
		v2.5c-0.5,0.3-1,0.5-1.5,0.6S160,48.2,159.3,48.2z"/>
	<path class="st3" d="M170.1,48.2c-1.8,0-3.1-0.5-4.1-1.5s-1.5-2.3-1.5-4.1c0-1.8,0.5-3.2,1.4-4.2s2.2-1.5,3.8-1.5
		c1.5,0,2.7,0.4,3.6,1.3s1.3,2.1,1.3,3.6v1.4h-7c0,0.8,0.3,1.5,0.8,2s1.1,0.7,2,0.7c0.7,0,1.3-0.1,1.9-0.2s1.2-0.4,1.8-0.7v2.3
		c-0.5,0.3-1.1,0.5-1.7,0.6S170.9,48.2,170.1,48.2z M169.7,39c-0.6,0-1.1,0.2-1.5,0.6s-0.6,1-0.6,1.7h4.2c0-0.7-0.2-1.3-0.6-1.7
		S170.3,39,169.7,39z"/>
	<path class="st3" d="M192.2,38.1c0,1.5-0.5,2.7-1.4,3.5s-2.3,1.2-4.1,1.2h-1.3V48h-3V33.7h4.6c1.7,0,3,0.4,4,1.1
		S192.2,36.7,192.2,38.1z M185.4,40.4h1c0.9,0,1.6-0.2,2.1-0.6s0.7-0.9,0.7-1.6c0-0.7-0.2-1.2-0.6-1.6s-1-0.5-1.8-0.5h-1.4V40.4z"/>
	<path class="st3" d="M200.8,36.8c0.4,0,0.7,0,1,0.1l-0.2,2.8c-0.2-0.1-0.5-0.1-0.9-0.1c-1,0-1.7,0.2-2.2,0.7s-0.8,1.2-0.8,2.1V48
		h-3V37h2.3l0.4,1.8h0.1c0.3-0.6,0.8-1.1,1.4-1.5S200.1,36.8,200.8,36.8z"/>
	<path class="st3" d="M208.7,48.2c-1.8,0-3.1-0.5-4.1-1.5c-1-1-1.5-2.3-1.5-4.1c0-1.8,0.5-3.2,1.4-4.2c0.9-1,2.2-1.5,3.8-1.5
		c1.5,0,2.7,0.4,3.6,1.3c0.9,0.9,1.3,2.1,1.3,3.6v1.4h-7c0,0.8,0.3,1.5,0.8,2s1.1,0.7,2,0.7c0.7,0,1.3-0.1,1.9-0.2s1.2-0.4,1.8-0.7
		v2.3c-0.5,0.3-1.1,0.5-1.7,0.6C210.3,48.1,209.6,48.2,208.7,48.2z M208.3,39c-0.6,0-1.1,0.2-1.5,0.6c-0.4,0.4-0.6,1-0.6,1.7h4.2
		c0-0.7-0.2-1.3-0.6-1.7S208.9,39,208.3,39z"/>
	<path class="st3" d="M223.2,44.7c0,1.1-0.4,2-1.2,2.6s-1.9,0.9-3.5,0.9c-0.8,0-1.5-0.1-2-0.2s-1.1-0.3-1.6-0.5v-2.5
		c0.6,0.3,1.2,0.5,1.9,0.7s1.3,0.3,1.8,0.3c1.1,0,1.6-0.3,1.6-0.9c0-0.2-0.1-0.4-0.2-0.6s-0.4-0.3-0.7-0.5s-0.8-0.4-1.4-0.6
		c-0.8-0.4-1.5-0.7-1.9-1s-0.7-0.6-0.9-1s-0.3-0.9-0.3-1.4c0-1,0.4-1.7,1.1-2.3s1.8-0.8,3.2-0.8c1.3,0,2.6,0.3,3.8,0.9l-0.9,2.1
		c-0.5-0.2-1.1-0.4-1.5-0.6s-1-0.2-1.5-0.2c-0.9,0-1.3,0.2-1.3,0.7c0,0.3,0.1,0.5,0.4,0.7s0.9,0.5,1.9,0.9c0.9,0.3,1.5,0.7,1.9,1
		s0.7,0.6,0.9,1S223.2,44.2,223.2,44.7z"/>
	<path class="st3" d="M225.4,34.2c0-1,0.5-1.5,1.6-1.5s1.6,0.5,1.6,1.5c0,0.5-0.1,0.8-0.4,1.1s-0.7,0.4-1.2,0.4
		C226,35.7,225.4,35.2,225.4,34.2z M228.5,48h-3V37h3V48z"/>
	<path class="st3" d="M235.1,48.2c-1.3,0-2.3-0.5-3-1.5s-1.1-2.4-1.1-4.1c0-1.8,0.4-3.2,1.1-4.2s1.8-1.5,3.1-1.5
		c1.4,0,2.4,0.5,3.1,1.6h0.1c-0.1-0.8-0.2-1.5-0.2-2.2v-3.5h3V48h-2.3l-0.6-1.4h-0.1C237.5,47.6,236.5,48.2,235.1,48.2z M236.2,45.8
		c0.8,0,1.3-0.2,1.7-0.7s0.5-1.2,0.6-2.3v-0.3c0-1.2-0.2-2-0.5-2.5s-0.9-0.8-1.8-0.8c-0.7,0-1.2,0.3-1.5,0.8s-0.6,1.4-0.6,2.5
		s0.2,1.9,0.6,2.4S235.5,45.8,236.2,45.8z"/>
	<path class="st3" d="M249.2,48.2c-1.8,0-3.1-0.5-4.1-1.5s-1.5-2.3-1.5-4.1c0-1.8,0.5-3.2,1.4-4.2s2.2-1.5,3.8-1.5
		c1.5,0,2.7,0.4,3.6,1.3s1.3,2.1,1.3,3.6v1.4h-7c0,0.8,0.3,1.5,0.8,2s1.1,0.7,2,0.7c0.7,0,1.3-0.1,1.9-0.2s1.2-0.4,1.8-0.7v2.3
		c-0.5,0.3-1.1,0.5-1.7,0.6S250.1,48.2,249.2,48.2z M248.8,39c-0.6,0-1.1,0.2-1.5,0.6s-0.6,1-0.6,1.7h4.2c0-0.7-0.2-1.3-0.6-1.7
		S249.5,39,248.8,39z"/>
	<path class="st3" d="M266.2,48h-3v-6.4c0-0.8-0.1-1.4-0.4-1.8s-0.7-0.6-1.3-0.6c-0.8,0-1.4,0.3-1.8,0.8s-0.6,1.5-0.6,2.8V48h-3V37
		h2.3l0.4,1.4h0.2c0.3-0.5,0.8-0.9,1.4-1.2s1.2-0.4,2-0.4c1.3,0,2.2,0.3,2.9,1s1,1.7,1,3V48z"/>
	<path class="st3" d="M273.9,45.8c0.5,0,1.1-0.1,1.9-0.3v2.2c-0.7,0.3-1.7,0.5-2.7,0.5c-1.2,0-2.1-0.3-2.6-0.9s-0.8-1.5-0.8-2.7
		v-5.3h-1.4V38l1.6-1l0.9-2.3h1.9V37h3.1v2.2h-3.1v5.3c0,0.4,0.1,0.7,0.4,0.9S273.5,45.8,273.9,45.8z"/>
</g>
<g>
	<path class="st3" d="M20,102c-0.6,0-1.2-0.1-1.6-0.2v-2.3c0.5,0.1,0.9,0.2,1.3,0.2c0.6,0,1-0.2,1.3-0.6s0.4-1,0.4-1.7v-12h2.7v12
		c0,1.5-0.3,2.6-1,3.4S21.4,102,20,102z"/>
	<path class="st3" d="M36,93.3c0,1.6-0.4,2.9-1.3,3.8s-2,1.4-3.5,1.4c-0.9,0-1.8-0.2-2.5-0.6s-1.3-1-1.7-1.8s-0.6-1.7-0.6-2.7
		c0-1.6,0.4-2.9,1.3-3.7s2-1.3,3.5-1.3c0.9,0,1.8,0.2,2.5,0.6s1.3,1,1.7,1.8S36,92.3,36,93.3z M29.2,93.3c0,1,0.2,1.7,0.5,2.2
		s0.8,0.7,1.6,0.7c0.7,0,1.2-0.2,1.5-0.7s0.5-1.2,0.5-2.2c0-1-0.2-1.7-0.5-2.2s-0.8-0.7-1.6-0.7c-0.7,0-1.2,0.2-1.5,0.7
		S29.2,92.3,29.2,93.3z"/>
	<path class="st3" d="M47.3,98.2h-2.7v-5.7c0-1.4-0.5-2.1-1.6-2.1c-0.8,0-1.3,0.3-1.6,0.8s-0.5,1.3-0.5,2.5v4.6h-2.7V84.6h2.7v2.8
		c0,0.2,0,0.7-0.1,1.5l-0.1,0.8h0.1c0.6-1,1.5-1.4,2.8-1.4c1.2,0,2,0.3,2.6,0.9s0.9,1.5,0.9,2.7V98.2z"/>
	<path class="st3" d="M59.1,98.2h-2.7v-5.7c0-0.7-0.1-1.2-0.4-1.6s-0.7-0.5-1.2-0.5c-0.8,0-1.3,0.3-1.6,0.8s-0.5,1.3-0.5,2.5v4.6
		h-2.7v-9.8h2l0.4,1.3h0.1c0.3-0.5,0.7-0.8,1.2-1.1s1.1-0.4,1.8-0.4c1.1,0,2,0.3,2.6,0.9s0.9,1.5,0.9,2.7V98.2z"/>
	<path class="st3" d="M77.5,91.7c0,2.1-0.6,3.7-1.8,4.9s-2.9,1.7-5.2,1.7h-3.6V85.4h4c2.1,0,3.7,0.6,4.9,1.7S77.5,89.7,77.5,91.7z
		 M74.6,91.8c0-2.8-1.2-4.1-3.7-4.1h-1.5V96h1.2C73.3,96,74.6,94.6,74.6,91.8z"/>
	<path class="st3" d="M88.8,93.3c0,1.6-0.4,2.9-1.3,3.8s-2,1.4-3.5,1.4c-0.9,0-1.8-0.2-2.5-0.6s-1.3-1-1.7-1.8s-0.6-1.7-0.6-2.7
		c0-1.6,0.4-2.9,1.3-3.7s2-1.3,3.5-1.3c0.9,0,1.8,0.2,2.5,0.6s1.3,1,1.7,1.8S88.8,92.3,88.8,93.3z M82,93.3c0,1,0.2,1.7,0.5,2.2
		s0.8,0.7,1.6,0.7c0.7,0,1.2-0.2,1.5-0.7s0.5-1.2,0.5-2.2c0-1-0.2-1.7-0.5-2.2s-0.8-0.7-1.6-0.7c-0.7,0-1.2,0.2-1.5,0.7
		S82,92.3,82,93.3z"/>
	<path class="st3" d="M95.5,98.4c-1.6,0-2.8-0.4-3.7-1.3s-1.3-2.1-1.3-3.7c0-1.6,0.4-2.9,1.2-3.8s2-1.3,3.4-1.3
		c1.4,0,2.5,0.4,3.2,1.2s1.2,1.9,1.2,3.3V94h-6.3c0,0.8,0.3,1.4,0.7,1.8s1,0.6,1.8,0.6c0.6,0,1.2-0.1,1.7-0.2s1.1-0.3,1.7-0.6v2.1
		c-0.5,0.2-1,0.4-1.5,0.5S96.3,98.4,95.5,98.4z M95.1,90.1c-0.6,0-1,0.2-1.3,0.5s-0.5,0.9-0.6,1.5H97c0-0.7-0.2-1.2-0.5-1.5
		S95.7,90.1,95.1,90.1z"/>
	<path class="st3" d="M280.1,98.2h-2.7v-7.4l0-1.2l0-1.3c-0.5,0.5-0.8,0.7-0.9,0.9l-1.5,1.2l-1.3-1.6l4.1-3.3h2.2V98.2z"/>
	<path class="st3" d="M292.6,91.8c0,2.2-0.4,3.9-1.1,5s-1.9,1.6-3.4,1.6c-1.5,0-2.6-0.6-3.4-1.7s-1.1-2.8-1.1-4.9
		c0-2.3,0.4-3.9,1.1-5s1.9-1.6,3.4-1.6c1.5,0,2.6,0.6,3.4,1.7S292.6,89.7,292.6,91.8z M286.3,91.8c0,1.6,0.1,2.7,0.4,3.4
		c0.3,0.7,0.7,1,1.4,1c0.6,0,1.1-0.3,1.4-1s0.4-1.8,0.4-3.4c0-1.6-0.1-2.7-0.4-3.4c-0.3-0.7-0.7-1-1.4-1c-0.6,0-1.1,0.3-1.4,1
		S286.3,90.2,286.3,91.8z"/>
	<path class="st3" d="M302.9,91.8c0,2.2-0.4,3.9-1.1,5s-1.9,1.6-3.4,1.6c-1.5,0-2.6-0.6-3.4-1.7s-1.1-2.8-1.1-4.9
		c0-2.3,0.4-3.9,1.1-5s1.9-1.6,3.4-1.6c1.5,0,2.6,0.6,3.4,1.7S302.9,89.7,302.9,91.8z M296.6,91.8c0,1.6,0.1,2.7,0.4,3.4
		c0.3,0.7,0.7,1,1.4,1c0.6,0,1.1-0.3,1.4-1s0.4-1.8,0.4-3.4c0-1.6-0.1-2.7-0.4-3.4c-0.3-0.7-0.7-1-1.4-1c-0.6,0-1.1,0.3-1.4,1
		S296.6,90.2,296.6,91.8z"/>
	<path class="st3" d="M369.2,90c1.2,0,2.2,0.3,3,1c0.7,0.7,1.1,1.7,1.1,2.9c0,1.4-0.4,2.5-1.3,3.3s-2.2,1.2-3.8,1.2
		c-1.4,0-2.6-0.2-3.5-0.7v-2.3c0.5,0.2,1,0.4,1.6,0.6s1.2,0.2,1.7,0.2c1.7,0,2.5-0.7,2.5-2c0-1.3-0.9-1.9-2.6-1.9
		c-0.3,0-0.7,0-1,0.1s-0.7,0.1-0.9,0.2l-1.1-0.6l0.5-6.5h7v2.3h-4.6l-0.2,2.5l0.3-0.1C368.3,90.1,368.7,90,369.2,90z"/>
	<path class="st3" d="M383.8,91.8c0,2.2-0.4,3.9-1.1,5s-1.9,1.6-3.4,1.6c-1.5,0-2.6-0.6-3.4-1.7s-1.1-2.8-1.1-4.9
		c0-2.3,0.4-3.9,1.1-5s1.9-1.6,3.4-1.6c1.5,0,2.6,0.6,3.4,1.7S383.8,89.7,383.8,91.8z M377.5,91.8c0,1.6,0.1,2.7,0.4,3.4
		c0.3,0.7,0.7,1,1.4,1c0.6,0,1.1-0.3,1.4-1s0.4-1.8,0.4-3.4c0-1.6-0.1-2.7-0.4-3.4c-0.3-0.7-0.7-1-1.4-1c-0.6,0-1.1,0.3-1.4,1
		S377.5,90.2,377.5,91.8z"/>
	<path class="st3" d="M391.1,89.2c0,1.3-0.3,2.4-0.8,3s-1.3,1-2.3,1c-1,0-1.7-0.3-2.2-1s-0.8-1.7-0.8-3c0-2.7,1-4,3-4
		c1,0,1.8,0.3,2.3,1C390.8,86.9,391.1,87.9,391.1,89.2z M387.2,89.2c0,0.7,0.1,1.3,0.2,1.7c0.1,0.4,0.3,0.5,0.6,0.5
		c0.6,0,0.8-0.7,0.8-2.2c0-1.5-0.3-2.2-0.8-2.2c-0.3,0-0.5,0.2-0.6,0.5C387.2,87.9,387.2,88.5,387.2,89.2z M397.1,85.4L390,98.2
		h-2.1l7.1-12.8H397.1z M400.1,94.4c0,1.3-0.3,2.4-0.8,3s-1.3,1-2.3,1c-1,0-1.7-0.3-2.2-1s-0.8-1.7-0.8-3c0-2.7,1-4,3-4
		c1,0,1.8,0.3,2.3,1C399.8,92.1,400.1,93.1,400.1,94.4z M396.2,94.4c0,0.7,0.1,1.3,0.2,1.7c0.1,0.4,0.3,0.5,0.6,0.5
		c0.6,0,0.8-0.7,0.8-2.2c0-1.5-0.3-2.2-0.8-2.2c-0.3,0-0.5,0.2-0.6,0.5C396.2,93.1,396.2,93.6,396.2,94.4z"/>
</g>
<g>
	<path class="st3" d="M20,136.9c-0.6,0-1.2-0.1-1.6-0.2v-2.3c0.5,0.1,0.9,0.2,1.3,0.2c0.6,0,1-0.2,1.3-0.6s0.4-1,0.4-1.7v-12h2.7v12
		c0,1.5-0.3,2.6-1,3.4S21.4,136.9,20,136.9z"/>
	<path class="st3" d="M33.3,133.1l-0.5-1.3h-0.1c-0.5,0.6-0.9,1-1.4,1.2s-1.1,0.3-1.9,0.3c-0.9,0-1.7-0.3-2.2-0.8s-0.8-1.3-0.8-2.3
		c0-1,0.4-1.8,1.1-2.3c0.7-0.5,1.8-0.8,3.3-0.8l1.7-0.1v-0.4c0-1-0.5-1.5-1.5-1.5c-0.8,0-1.7,0.2-2.8,0.7l-0.9-1.8
		c1.1-0.6,2.4-0.9,3.8-0.9c1.3,0,2.3,0.3,3,0.9s1.1,1.4,1.1,2.6v6.5H33.3z M32.6,128.6l-1,0c-0.8,0-1.4,0.2-1.7,0.4
		s-0.6,0.7-0.6,1.2c0,0.8,0.4,1.1,1.3,1.1c0.6,0,1.1-0.2,1.5-0.5c0.4-0.4,0.6-0.8,0.6-1.4V128.6z"/>
	<path class="st3" d="M47,133.1h-2.7v-5.7c0-0.7-0.1-1.2-0.4-1.6s-0.7-0.5-1.2-0.5c-0.8,0-1.3,0.3-1.6,0.8s-0.5,1.3-0.5,2.5v4.6H38
		v-9.8h2l0.4,1.3h0.1c0.3-0.5,0.7-0.8,1.2-1.1s1.1-0.4,1.8-0.4c1.1,0,2,0.3,2.6,0.9s0.9,1.5,0.9,2.7V133.1z"/>
	<path class="st3" d="M54.3,133.3c-1.6,0-2.8-0.4-3.7-1.3s-1.3-2.1-1.3-3.7c0-1.6,0.4-2.9,1.2-3.8s2-1.3,3.4-1.3
		c1.4,0,2.5,0.4,3.2,1.2s1.2,1.9,1.2,3.3v1.3h-6.3c0,0.8,0.3,1.4,0.7,1.8s1,0.6,1.8,0.6c0.6,0,1.2-0.1,1.7-0.2s1.1-0.3,1.7-0.6v2.1
		c-0.5,0.2-1,0.4-1.5,0.5S55,133.3,54.3,133.3z M53.9,125c-0.6,0-1,0.2-1.3,0.5s-0.5,0.9-0.6,1.5h3.8c0-0.7-0.2-1.2-0.5-1.5
		S54.4,125,53.9,125z"/>
	<path class="st3" d="M76,126.6c0,2.1-0.6,3.7-1.8,4.9s-2.9,1.7-5.2,1.7h-3.6v-12.8h4c2.1,0,3.7,0.6,4.9,1.7S76,124.6,76,126.6z
		 M73.2,126.6c0-2.8-1.2-4.1-3.7-4.1h-1.5v8.4h1.2C71.8,130.9,73.2,129.4,73.2,126.6z"/>
	<path class="st3" d="M87.4,128.2c0,1.6-0.4,2.9-1.3,3.8s-2,1.4-3.5,1.4c-0.9,0-1.8-0.2-2.5-0.6s-1.3-1-1.7-1.8s-0.6-1.7-0.6-2.7
		c0-1.6,0.4-2.9,1.3-3.7s2-1.3,3.5-1.3c0.9,0,1.8,0.2,2.5,0.6s1.3,1,1.7,1.8S87.4,127.1,87.4,128.2z M80.6,128.2
		c0,1,0.2,1.7,0.5,2.2s0.8,0.7,1.6,0.7c0.7,0,1.2-0.2,1.5-0.7s0.5-1.2,0.5-2.2c0-1-0.2-1.7-0.5-2.2s-0.8-0.7-1.6-0.7
		c-0.7,0-1.2,0.2-1.5,0.7S80.6,127.2,80.6,128.2z"/>
	<path class="st3" d="M94,133.3c-1.6,0-2.8-0.4-3.7-1.3s-1.3-2.1-1.3-3.7c0-1.6,0.4-2.9,1.2-3.8s2-1.3,3.4-1.3
		c1.4,0,2.5,0.4,3.2,1.2s1.2,1.9,1.2,3.3v1.3h-6.3c0,0.8,0.3,1.4,0.7,1.8s1,0.6,1.8,0.6c0.6,0,1.2-0.1,1.7-0.2s1.1-0.3,1.7-0.6v2.1
		c-0.5,0.2-1,0.4-1.5,0.5S94.8,133.3,94,133.3z M93.7,125c-0.6,0-1,0.2-1.3,0.5s-0.5,0.9-0.6,1.5h3.8c0-0.7-0.2-1.2-0.5-1.5
		S94.2,125,93.7,125z"/>
	<path class="st3" d="M280.1,133.1h-2.7v-7.4l0-1.2l0-1.3c-0.5,0.5-0.8,0.7-0.9,0.9l-1.5,1.2l-1.3-1.6l4.1-3.3h2.2V133.1z"/>
	<path class="st3" d="M292.6,126.7c0,2.2-0.4,3.9-1.1,5s-1.9,1.6-3.4,1.6c-1.5,0-2.6-0.6-3.4-1.7s-1.1-2.8-1.1-4.9
		c0-2.3,0.4-3.9,1.1-5s1.9-1.6,3.4-1.6c1.5,0,2.6,0.6,3.4,1.7S292.6,124.5,292.6,126.7z M286.3,126.7c0,1.6,0.1,2.7,0.4,3.4
		c0.3,0.7,0.7,1,1.4,1c0.6,0,1.1-0.3,1.4-1s0.4-1.8,0.4-3.4c0-1.6-0.1-2.7-0.4-3.4c-0.3-0.7-0.7-1-1.4-1c-0.6,0-1.1,0.3-1.4,1
		S286.3,125.1,286.3,126.7z"/>
	<path class="st3" d="M302.9,126.7c0,2.2-0.4,3.9-1.1,5s-1.9,1.6-3.4,1.6c-1.5,0-2.6-0.6-3.4-1.7s-1.1-2.8-1.1-4.9
		c0-2.3,0.4-3.9,1.1-5s1.9-1.6,3.4-1.6c1.5,0,2.6,0.6,3.4,1.7S302.9,124.5,302.9,126.7z M296.6,126.7c0,1.6,0.1,2.7,0.4,3.4
		c0.3,0.7,0.7,1,1.4,1c0.6,0,1.1-0.3,1.4-1s0.4-1.8,0.4-3.4c0-1.6-0.1-2.7-0.4-3.4c-0.3-0.7-0.7-1-1.4-1c-0.6,0-1.1,0.3-1.4,1
		S296.6,125.1,296.6,126.7z"/>
	<path class="st3" d="M369.2,124.9c1.2,0,2.2,0.3,3,1c0.7,0.7,1.1,1.7,1.1,2.9c0,1.4-0.4,2.5-1.3,3.3s-2.2,1.2-3.8,1.2
		c-1.4,0-2.6-0.2-3.5-0.7v-2.3c0.5,0.2,1,0.4,1.6,0.6s1.2,0.2,1.7,0.2c1.7,0,2.5-0.7,2.5-2c0-1.3-0.9-1.9-2.6-1.9
		c-0.3,0-0.7,0-1,0.1s-0.7,0.1-0.9,0.2l-1.1-0.6l0.5-6.5h7v2.3h-4.6l-0.2,2.5l0.3-0.1C368.3,124.9,368.7,124.9,369.2,124.9z"/>
	<path class="st3" d="M383.8,126.7c0,2.2-0.4,3.9-1.1,5s-1.9,1.6-3.4,1.6c-1.5,0-2.6-0.6-3.4-1.7s-1.1-2.8-1.1-4.9
		c0-2.3,0.4-3.9,1.1-5s1.9-1.6,3.4-1.6c1.5,0,2.6,0.6,3.4,1.7S383.8,124.5,383.8,126.7z M377.5,126.7c0,1.6,0.1,2.7,0.4,3.4
		c0.3,0.7,0.7,1,1.4,1c0.6,0,1.1-0.3,1.4-1s0.4-1.8,0.4-3.4c0-1.6-0.1-2.7-0.4-3.4c-0.3-0.7-0.7-1-1.4-1c-0.6,0-1.1,0.3-1.4,1
		S377.5,125.1,377.5,126.7z"/>
	<path class="st3" d="M391.1,124.1c0,1.3-0.3,2.4-0.8,3s-1.3,1-2.3,1c-1,0-1.7-0.3-2.2-1s-0.8-1.7-0.8-3c0-2.7,1-4,3-4
		c1,0,1.8,0.3,2.3,1C390.8,121.8,391.1,122.8,391.1,124.1z M387.2,124.1c0,0.7,0.1,1.3,0.2,1.7c0.1,0.4,0.3,0.5,0.6,0.5
		c0.6,0,0.8-0.7,0.8-2.2c0-1.5-0.3-2.2-0.8-2.2c-0.3,0-0.5,0.2-0.6,0.5C387.2,122.8,387.2,123.4,387.2,124.1z M397.1,120.3
		l-7.1,12.8h-2.1l7.1-12.8H397.1z M400.1,129.2c0,1.3-0.3,2.4-0.8,3s-1.3,1-2.3,1c-1,0-1.7-0.3-2.2-1s-0.8-1.7-0.8-3c0-2.7,1-4,3-4
		c1,0,1.8,0.3,2.3,1C399.8,126.9,400.1,127.9,400.1,129.2z M396.2,129.2c0,0.7,0.1,1.3,0.2,1.7c0.1,0.4,0.3,0.5,0.6,0.5
		c0.6,0,0.8-0.7,0.8-2.2c0-1.5-0.3-2.2-0.8-2.2c-0.3,0-0.5,0.2-0.6,0.5C396.2,127.9,396.2,128.5,396.2,129.2z"/>
</g>
<line class="st4" x1="7.9" y1="108.1" x2="471.7" y2="108.1"/>
<circle class="st5" cx="446.7" cy="40.3" r="32.8"/>
</svg>
