<?xml version="1.0" encoding="utf-8"?>
<!-- Generator: Adobe Illustrator 24.1.3, SVG Export Plug-In . SVG Version: 6.00 Build 0)  -->
<svg version="1.1" id="Layer_1" xmlns="http://www.w3.org/2000/svg" xmlns:xlink="http://www.w3.org/1999/xlink" x="0px" y="0px"
	 viewBox="0 0 1255 702.9" style="enable-background:new 0 0 1255 702.9;" xml:space="preserve">
<style type="text/css">
	.st0{fill:#7F7F7F;stroke:#000000;stroke-width:10;stroke-miterlimit:10;}
</style>
<g>
	<path class="st0" d="M1189.8,224.8c-2.2,0.4-2.8-1.3-4.1-4.5c-1.3-3.2-5-0.4-6.7,0.7c-1.7,1.1-7.1-0.2-8.4-0.9s-2.4-4.3-4.3-4.8
		c-1.9-0.6-4.5,0.7-5.8-0.7c-1.3-1.5,0.4-6.9,0.2-8.4c-0.2-1.5-2.8-3.9-5-5.2s-5.4-3.3-6.3-5.4c-0.9-2-0.6-5-0.9-6.9
		c-0.4-1.9-0.7-3,0.6-3.7c1.3-0.7,4.8-2.2,3.5-5s-3.2-1.9-5.2-1.1c-2,0.7-4.8,0.7-5-0.9c-0.2-1.7-0.4-3-1.5-3.7s-2.6-2-3-3.9
		s-2.8-2.8-6.3-3.9c-3.5-1.1-3.5-3.5-4.3-6.3c-0.7-2.8-3.5-4.5-5.2-5.6s-3.2-2.6-4.5-4.6s0-5.8,0.6-7.6c0.6-1.9,3.7-0.4,4.8,0
		c1.1,0.4,5.6-2.6,4.1-5.4s-0.4-7.1,1.3-9.8c1.7-2.8,5-4.3,7.2-4.6c2.2-0.4,4.6-4.3,4.1-5.9c-0.6-1.7-1.3-3.2-0.7-5.4
		c0.6-2.2,3.7-1.1,5,0s4.5,2,6.7,1.7c2.2-0.4,5.6-4.1,4.5-6.7s-3.2-0.9-5.9,0.4s-4.1-1.7-5-2.4c-0.9-0.7,0-2.2,1.7-2.8
		s5-1.3,6.5-2.4s0.4-4.8-0.6-6.1c-0.9-1.3-4.5-1.3-6.7-2.4s-1.3-3.2-0.2-5.9c1.1-2.8-2.2-4.3-4.1-4.8c-1.9-0.6-5.9-0.4-8.4,0.2
		c-2.4,0.6-1.9,3.2-2,3.9c-0.2,0.7-0.9,2.4-1.9,2.6c-0.9,0.2-3.5-0.2-4.5,0.4c-0.9,0.6-2.8,0.7-3.9,0s-2.8-0.9-5-1.7
		c-2.2-0.7-2.4-3.2-2.6-4.8s-1.5-2.8-3.2-2c-1.7,0.7-4.8,1.7-5.9,0.7c-1.1-0.9,0.2-3.5,0.6-4.6s-0.7-3.3-2.8-3.7
		c-2-0.4-4.1-0.2-5.4-0.9s-2.6-2.6-3.3-3.7c-0.7-1.1-2.4-1.3-4.5-3.2c-1-0.9-1.2-3-1.2-5H59.2v587.5H1196v-416c4-3.3,0-5.4,0-5.4
		C1193.7,222.7,1191.7,224.5,1189.8,224.8z"/>
</g>
</svg>
