<?xml version="1.0" encoding="utf-8"?>
<!-- Generator: Adobe Illustrator 24.1.3, SVG Export Plug-In . SVG Version: 6.00 Build 0)  -->
<svg version="1.1" id="Layer_1" xmlns="http://www.w3.org/2000/svg" xmlns:xlink="http://www.w3.org/1999/xlink" x="0px" y="0px"
	 viewBox="0 0 612 792" style="enable-background:new 0 0 612 792;" xml:space="preserve">
<style type="text/css">
	.st0{opacity:3.000000e-02;}
</style>
<g class="st0">
	<g>
		<path d="M306,621.9c-67.9,0-131.8-26.5-179.9-74.5c-48-48-74.5-111.9-74.5-179.9c0-67.9,26.5-131.8,74.5-179.9
			s111.9-74.5,179.9-74.5c67.9,0,131.8,26.5,179.9,74.5c48,48,74.5,111.9,74.5,179.9c0,67.9-26.5,131.8-74.5,179.9
			C437.8,595.4,373.9,621.9,306,621.9z M306,116.6c-67,0-130,26.1-177.4,73.5c-47.4,47.4-73.5,110.4-73.5,177.4s26.1,130,73.5,177.4
			C176,592.3,239,618.4,306,618.4s130-26.1,177.4-73.5s73.5-110.4,73.5-177.4s-26.1-130-73.5-177.4C436,142.7,373,116.6,306,116.6z"
			/>
	</g>
	<g>
		<path d="M533.3,330.6c-1-4.8-6.1-9.4-10.5-11.1c-4.2-1.6-9-1.8-12.8-0.7c-4.5,1.4-5.5,5.4-6.4,9c-0.2,1-0.5,1.9-0.7,2.7l0,0.2
			c-0.3,2.3-1,7-1.8,12.5c-2,13.9-4.9,34.9-5.7,39.2c-1.1,5.9-5.9,23.4-6.7,26c-1.2,4-3,10.9-5,18.2c-1.5,5.5-3,11.1-4.3,15.8l0,0.1
			c-0.4,2-1.1,4.2-1.9,6.4c-2,5.7-4.3,12.2,0.4,17.6c3.2,3.7,8.3,5.7,14,5.7c1.3,0,2.7-0.1,4.1-0.3l0.2,0l0.2-0.1
			c0.5-0.3,1-0.6,1.6-1c2.2-1.3,4.5-2.7,5.8-4.9l2.2,4.5l2.8-2.8l0-0.4c4-46,12.7-89,25.7-127.8l0.1-0.3L533.3,330.6z M506.5,466.4
			l-2-4.2l-2.2,0.4c-0.2,2.8-2.8,4.4-5.6,6.1c-0.5,0.3-1,0.6-1.4,0.9c-2.7,0.4-10.9,1-15.8-4.7c-3.8-4.4-1.9-9.7,0.1-15.3
			c0.8-2.2,1.6-4.5,2-6.7c1.3-4.7,2.8-10.3,4.3-15.8c2-7.2,3.8-14.1,5-18.1v0c0.8-2.6,5.6-20.2,6.7-26.2c0.8-4.3,3.7-24.6,5.7-39.3
			c0.8-5.5,1.4-10,1.8-12.4c0.3-0.9,0.5-1.9,0.8-2.8c0.8-3.4,1.5-6.3,4.8-7.3c3.4-1,7.6-0.7,11.4,0.7c3.7,1.5,8.3,5.5,9.1,9.4
			l1.1,7.9C519.1,377.6,510.5,420.5,506.5,466.4z"/>
		<path d="M526,326.5l-0.2-0.1c-2.5-1.7-11-7-17.4-2l-0.2,0.2l-0.1,0.3c-3.1,12.5-4.7,22-5.3,32.7l1.7,0.2l2.3-14.7l-0.1,3.7l0,0.1
			c0.2,1.5-0.1,3.1-0.4,4.6c-0.4,2.5-0.9,5,0.5,7.3l1.5-0.2c-2.4,23.5-6.2,48.6-13.9,72.1c5.3-22.6,9.9-46.4,13.7-70.8l-1.7-0.3
			c-2.4,9.4-4.1,19.2-5.8,28.7c-3,17-6.2,34.5-12.9,50.1c0.5-2.1,1-4.2,1.5-6.4c0.9-3.7,1.8-7.4,2.7-11.1l-1.6-0.5
			c-2,6.4-4.2,12.4-6.4,18.3c-1.6,4.2-3.2,8.6-4.7,13.1l1.4,0.9c2.5-2.5,9.2-8.1,16.4-5.5c4.2,1.6,6.6,6.4,8.2,10.5l1.6-0.3
			c2.4-42.3,12.5-81.8,22.1-114.8C530.6,336.2,529.7,330.9,526,326.5z M527.3,342c-9.4,32.2-19.2,70.6-22,111.7
			c-1.7-3.4-4.1-6.8-7.7-8.2c-1.4-0.5-2.9-0.8-4.4-0.8c-3.7,0-7.6,1.5-11.3,4.4c1.2-3.4,2.4-6.7,3.6-10c0.3-0.7,0.6-1.5,0.8-2.2
			c-0.5,2.1-1,4.1-1.5,6.2l-0.1,0.5l1.6,1.6l0.5-1.1c2.4-4.8,4.4-9.8,6.1-15c-0.7,2.8-1.3,5.6-2,8.4l1.5,0.7l1.8-2.3l0.1-0.2
			c11.3-31.9,15.1-67.3,17.4-97.7l-1.7-0.4c-0.9,2.4-1.4,5-1.7,7.6l0.4-13.7h-0.7c0.4-2,0.9-4.1,1.5-6.3c5.4-3.9,12.8,0.6,15.1,2.2
			C528,331.6,528.8,336.3,527.3,342z"/>
		<path d="M499.8,428.7c3-24.9,10.5-47.9,12.6-73C511.4,380.8,505.3,405,499.8,428.7z"/>
		<path d="M502.2,459.9l-1.6,0c-0.2-0.5-0.4-1-0.6-1.5c-1.2-3.2-2.4-6.4-5.7-7.1c-2.7-0.9-6-0.6-8.2,0.7l-4,4l-1.5-0.7
			c0.2-3.3,2.9-4.6,5.3-5.7c1.1-0.5,2.2-1.1,3-1.7l0.2-0.2h0.3c4.1,0,8.3,0.5,11,4.5l0.1,0.1c0.2,0.4,0.4,0.8,0.6,1.3
			C502.1,455.3,503.2,457.3,502.2,459.9z"/>
		<path d="M493.5,459.1c-1-1.2-3.1-1.2-4.2-1.1c-0.6-0.7-0.3-1.3,0.7-3c0.5-0.8,1.1-1.7,1.2-2.6l0.1-0.7l-0.7-0.2
			c-0.8-0.2-1.3,0.1-1.7,0.3c-0.3,0.2-0.4,0.2-0.6,0.2l-0.2,0l-0.2,0c-3.6,0.8-3.8,3.9-4,6.4c-0.1,1.1-0.2,2.2-0.5,3l-0.1,0.3
			l0.1,0.3c1,2.5,3.4,4.8,6.1,4.8c0.4,0,0.7,0,1.1-0.1l0.1,0c1.9-0.8,3.2-2.9,3.3-5C494.3,460.3,493.9,459.5,493.5,459.1z
			 M492.3,461.1l0,0.2c0,1.5-0.9,3-2.2,3.5c-2.2,0.5-4.2-1.6-5-3.3c0.3-1,0.4-2.1,0.5-3.1c0.2-2.7,0.4-4.3,2.5-4.8
			c0.3,0,0.6,0,0.8-0.1c-0.1,0.2-0.2,0.4-0.3,0.5c-0.9,1.5-2.3,3.6-0.1,5.5l0.3,0.2l0.4,0c1.4-0.2,2.7,0,3.1,0.5
			C492.3,460.3,492.5,460.5,492.3,461.1z"/>
		<path d="M497,454.2c-0.3-0.2-0.6-0.4-0.8-0.6c-0.8-0.7-1.9-1.5-3.4-1.3l-0.5,0.1l-1.6,3.9l6.4,3.2l0.4-5L497,454.2z M495.6,456.8
			l-2.7-1.4l0.6-1.5c0.5,0.1,1,0.4,1.6,0.9c0.2,0.2,0.4,0.3,0.6,0.5L495.6,456.8z"/>
		<path d="M492.9,468.8c-0.2,0-0.3,0-0.5,0l-0.2-1.7c2.8-0.9,3.6-3.5,4.6-6.3c0.3-0.8,0.5-1.6,0.9-2.4l1.5-0.1c2,3-0.4,6.6-1.2,7.6
			l-0.1,0.1c-0.2,0.2-0.4,0.4-0.6,0.6C496.1,467.7,494.7,468.8,492.9,468.8z M497.3,465.5L497.3,465.5L497.3,465.5z"/>
		<path d="M484.1,466.7c-2.2-1.2-4.6-3.8-4.1-7.1l1.6-0.2c0.1,0.3,0.2,0.6,0.3,0.9c0.7,1.9,1.4,3.7,3,4.9L484.1,466.7z"/>
	</g>
	<g>
		<g>
			<path d="M313.5,177.3c1.5,0.1,2.8,1.4,2.7,2.9c-0.1,1.5-1.4,2.8-2.9,2.7c-1.6-0.1-2.9-1.4-2.8-2.9
				C310.6,178.5,312,177.2,313.5,177.3z"/>
			<path d="M320.6,177.7c1.5,0.1,2.7,1.5,2.6,3c-0.1,1.5-1.5,2.7-3,2.6c-1.5-0.1-2.8-1.5-2.7-3C317.6,178.7,319.1,177.6,320.6,177.7
				z"/>
			<path d="M327.7,178.3c1.5,0.2,2.7,1.6,2.5,3.1c-0.2,1.5-1.6,2.7-3.1,2.5c-1.5-0.2-2.8-1.6-2.6-3.1
				C324.7,179.3,326.2,178.2,327.7,178.3z"/>
			<path d="M334.7,179.2c1.5,0.2,2.6,1.7,2.4,3.2c-0.2,1.4-1.7,2.6-3.2,2.4c-1.5-0.2-2.7-1.7-2.5-3.2
				C331.7,180.1,333.2,179,334.7,179.2z"/>
			<path d="M341.7,180.4c1.5,0.3,2.5,1.8,2.3,3.3c-0.3,1.4-1.8,2.5-3.3,2.3c-1.5-0.3-2.6-1.8-2.4-3.3
				C338.6,181.1,340.2,180.1,341.7,180.4z"/>
			<path d="M348.6,181.8c1.5,0.3,2.5,1.9,2.1,3.4c-0.3,1.4-1.9,2.5-3.3,2.1c-1.5-0.3-2.6-1.9-2.2-3.4
				C345.6,182.4,347.2,181.5,348.6,181.8z"/>
			<path d="M355.5,183.5c1.5,0.4,2.4,2,2,3.5c-0.4,1.4-2,2.4-3.4,2c-1.5-0.4-2.5-2-2.1-3.5C352.4,184,354.1,183.1,355.5,183.5z"/>
			<path d="M362.4,185.5c1.4,0.4,2.3,2.1,1.9,3.5c-0.4,1.4-2.1,2.3-3.5,1.9c-1.5-0.5-2.4-2.1-2-3.6
				C359.2,185.8,360.9,185,362.4,185.5z"/>
			<path d="M369.1,187.7c1.4,0.5,2.2,2.2,1.7,3.6c-0.5,1.4-2.2,2.2-3.6,1.8c-1.5-0.5-2.3-2.2-1.8-3.6
				C366,187.9,367.7,187.2,369.1,187.7z"/>
			<path d="M375.8,190.1c1.4,0.5,2.2,2.3,1.6,3.7c-0.5,1.4-2.3,2.2-3.6,1.6c-1.4-0.6-2.3-2.3-1.7-3.7
				C372.6,190.2,374.4,189.6,375.8,190.1z"/>
			<path d="M382.3,192.8c1.4,0.6,2.1,2.3,1.5,3.7c-0.6,1.3-2.3,2.1-3.7,1.5c-1.4-0.6-2.2-2.3-1.6-3.8
				C379.2,192.8,381,192.2,382.3,192.8z"/>
			<path d="M388.8,195.7c1.4,0.7,2,2.4,1.3,3.8c-0.6,1.3-2.4,2-3.7,1.4c-1.4-0.7-2.1-2.4-1.4-3.8
				C385.6,195.6,387.4,195.1,388.8,195.7z"/>
			<path d="M395.1,198.9c1.3,0.7,1.9,2.5,1.2,3.8c-0.7,1.3-2.5,1.9-3.8,1.2c-1.4-0.7-2-2.5-1.3-3.9
				C392,198.7,393.8,198.2,395.1,198.9z"/>
			<path d="M401.4,202.3c1.3,0.7,1.8,2.6,1,3.9c-0.7,1.3-2.6,1.8-3.8,1.1c-1.3-0.8-1.9-2.6-1.1-3.9C398.2,202,400,201.6,401.4,202.3
				z"/>
			<path d="M407.4,206c1.3,0.8,1.7,2.6,0.9,3.9c-0.8,1.2-2.6,1.7-3.9,0.9c-1.3-0.8-1.8-2.6-1-3.9C404.3,205.5,406.2,205.2,407.4,206
				z"/>
			<path d="M413.4,209.8c1.2,0.8,1.6,2.7,0.8,3.9c-0.8,1.2-2.7,1.6-3.9,0.8c-1.3-0.9-1.7-2.7-0.8-4
				C410.3,209.3,412.1,209,413.4,209.8z"/>
			<path d="M419.2,213.9c1.2,0.9,1.5,2.7,0.6,4c-0.9,1.2-2.7,1.5-3.9,0.6c-1.3-0.9-1.6-2.8-0.7-4C416.1,213.2,418,213,419.2,213.9z"
				/>
			<path d="M424.8,218.2c1.2,0.9,1.4,2.8,0.5,4c-0.9,1.1-2.8,1.4-3.9,0.5c-1.2-1-1.5-2.8-0.5-4C421.8,217.4,423.7,217.3,424.8,218.2
				z"/>
			<path d="M430.3,222.7c1.1,1,1.3,2.8,0.3,4c-0.9,1.1-2.8,1.3-4,0.3c-1.2-1-1.4-2.9-0.4-4C427.3,221.8,429.2,221.7,430.3,222.7z"/>
			<path d="M435.6,227.4c1.1,1,1.2,2.9,0.2,4c-1,1.1-2.9,1.2-4,0.2c-1.1-1.1-1.3-2.9-0.2-4.1C432.7,226.4,434.5,226.4,435.6,227.4z"
				/>
			<path d="M440.8,232.3c1.1,1.1,1.1,2.9,0,4c-1,1-2.9,1.1-4,0.1c-1.1-1.1-1.2-3-0.1-4.1C437.8,231.2,439.7,231.3,440.8,232.3z"/>
			<path d="M445.7,237.4c1,1.1,1,3-0.1,4c-1.1,1-3,1-4-0.1c-1.1-1.1-1.1-3,0.1-4.1C442.8,236.2,444.7,236.3,445.7,237.4z"/>
			<path d="M450.5,242.7c1,1.1,0.9,3-0.3,4c-1.1,1-3,0.9-4-0.2c-1-1.2-1-3,0.2-4.1C447.6,241.3,449.5,241.5,450.5,242.7z"/>
			<path d="M455.1,248.1c0.9,1.2,0.8,3-0.4,4c-1.1,0.9-3,0.8-4-0.4c-1-1.2-0.8-3.1,0.4-4.1C452.3,246.7,454.1,246.9,455.1,248.1z"/>
			<path d="M459.4,253.7c0.9,1.2,0.6,3.1-0.6,4c-1.2,0.9-3.1,0.6-3.9-0.5c-0.9-1.2-0.7-3.1,0.5-4
				C456.7,252.1,458.5,252.5,459.4,253.7z"/>
			<path d="M463.6,259.4c0.9,1.2,0.5,3.1-0.7,3.9c-1.2,0.8-3.1,0.5-3.9-0.7c-0.9-1.3-0.6-3.1,0.7-4
				C460.9,257.8,462.7,258.2,463.6,259.4z"/>
			<path d="M467.5,265.3c0.8,1.3,0.4,3.1-0.9,3.9c-1.2,0.8-3.1,0.4-3.9-0.8c-0.8-1.3-0.5-3.1,0.8-4S466.7,264.1,467.5,265.3z"/>
			<path d="M471.2,271.4c0.8,1.3,0.3,3.1-1,3.9c-1.3,0.7-3.1,0.3-3.8-1c-0.8-1.3-0.4-3.2,1-4C468.6,269.6,470.4,270.1,471.2,271.4z"
				/>
			<path d="M474.7,277.6c0.7,1.3,0.2,3.1-1.1,3.8c-1.3,0.7-3.1,0.2-3.8-1.1c-0.7-1.4-0.3-3.2,1.1-3.9
				C472.2,275.6,474,276.2,474.7,277.6z"/>
			<path d="M477.9,283.9c0.7,1.4,0.1,3.1-1.3,3.8c-1.3,0.6-3.1,0.1-3.8-1.3c-0.7-1.4-0.1-3.2,1.3-3.9
				C475.5,281.9,477.3,282.5,477.9,283.9z"/>
			<path d="M481,290.3c0.6,1.4-0.1,3.1-1.4,3.7c-1.3,0.6-3.1-0.1-3.7-1.4c-0.6-1.4,0-3.2,1.4-3.8C478.6,288.2,480.3,288.9,481,290.3
				z"/>
			<path d="M483.7,296.8c0.6,1.4-0.2,3.1-1.6,3.7c-1.4,0.5-3.1-0.2-3.7-1.5c-0.6-1.4,0.1-3.2,1.5-3.8
				C481.5,294.6,483.2,295.4,483.7,296.8z"/>
			<path d="M486.2,303.5c0.5,1.4-0.3,3.1-1.7,3.6c-1.4,0.5-3.1-0.3-3.6-1.7c-0.5-1.5,0.2-3.2,1.7-3.7
				C484.1,301.2,485.7,302,486.2,303.5z"/>
			<path d="M488.5,310.2c0.5,1.4-0.4,3.1-1.8,3.6c-1.4,0.4-3.1-0.4-3.5-1.8c-0.5-1.5,0.3-3.2,1.8-3.6
				C486.4,307.8,488.1,308.7,488.5,310.2z"/>
			<path d="M490.5,317c0.4,1.5-0.5,3.1-2,3.5c-1.4,0.4-3.1-0.5-3.5-1.9c-0.4-1.5,0.5-3.2,1.9-3.6C488.5,314.5,490.1,315.5,490.5,317
				z"/>
			<path d="M492.3,323.8c0.3,1.5-0.6,3.1-2.1,3.4c-1.4,0.3-3.1-0.6-3.4-2.1c-0.4-1.5,0.6-3.1,2.1-3.5
				C490.4,321.3,492,322.4,492.3,323.8z"/>
			<path d="M493.8,330.8c0.3,1.5-0.8,3-2.2,3.3c-1.4,0.3-3-0.8-3.3-2.2c-0.3-1.5,0.7-3.1,2.2-3.4C492,328.2,493.5,329.3,493.8,330.8
				z"/>
			<path d="M495.1,337.8c0.2,1.5-0.9,3-2.4,3.2c-1.4,0.2-3-0.9-3.2-2.3c-0.2-1.5,0.8-3.1,2.3-3.3
				C493.4,335.1,494.8,336.3,495.1,337.8z"/>
			<path d="M496.1,344.8c0.2,1.5-1,3-2.5,3.1c-1.5,0.2-3-1-3.1-2.4c-0.2-1.5,0.9-3.1,2.5-3.2C494.4,342.1,495.9,343.3,496.1,344.8z"
				/>
			<path d="M496.8,351.8c0.1,1.5-1.1,2.9-2.6,3.1c-1.5,0.1-2.9-1.1-3.1-2.5c-0.1-1.5,1-3,2.6-3.1
				C495.3,349.1,496.7,350.3,496.8,351.8z"/>
			<path d="M497.2,358.9c0.1,1.5-1.2,2.9-2.7,3c-1.5,0.1-2.9-1.2-3-2.6c-0.1-1.6,1.1-3,2.7-3.1C495.8,356.1,497.2,357.4,497.2,358.9
				z"/>
			<path d="M497.4,366c0,1.5-1.3,2.8-2.8,2.9c-1.5,0-2.8-1.3-2.9-2.8c0-1.6,1.2-2.9,2.8-3C496.1,363.2,497.4,364.5,497.4,366z"/>
			<path d="M497.4,373.3c0,1.5-1.4,2.8-2.9,2.8c-1.5,0-2.8-1.4-2.8-2.9c0-1.6,1.4-2.9,2.9-2.8C496.2,370.4,497.4,371.8,497.4,373.3z
				"/>
			<path d="M497.1,380.4c-0.1,1.5-1.5,2.7-3,2.6c-1.5-0.1-2.7-1.5-2.6-3c0.1-1.5,1.5-2.8,3-2.7C496,377.4,497.2,378.9,497.1,380.4z"
				/>
			<path d="M496.5,387.5c-0.2,1.5-1.6,2.7-3.1,2.5c-1.5-0.1-2.7-1.6-2.5-3.1c0.2-1.5,1.6-2.8,3.1-2.6
				C495.5,384.5,496.6,386,496.5,387.5z"/>
			<path d="M495.6,394.5c-0.2,1.5-1.7,2.6-3.2,2.4c-1.4-0.2-2.6-1.7-2.4-3.1c0.2-1.5,1.7-2.7,3.2-2.5
				C494.8,391.5,495.8,393,495.6,394.5z"/>
			<path d="M494.5,401.5c-0.3,1.5-1.8,2.6-3.3,2.3c-1.4-0.3-2.6-1.8-2.3-3.2c0.3-1.5,1.8-2.7,3.3-2.4
				C493.8,398.5,494.8,400,494.5,401.5z"/>
			<path d="M493.2,408.5c-0.3,1.5-1.9,2.5-3.4,2.2c-1.4-0.3-2.5-1.9-2.2-3.3c0.3-1.5,1.9-2.6,3.4-2.3
				C492.5,405.4,493.5,407,493.2,408.5z"/>
			<path d="M491.5,415.4c-0.4,1.5-2,2.4-3.4,2c-1.4-0.4-2.4-2-2.1-3.4c0.4-1.5,2-2.5,3.5-2.1C491,412.3,491.9,413.9,491.5,415.4z"/>
			<path d="M489.7,422.2c-0.4,1.4-2.1,2.3-3.5,1.9c-1.4-0.4-2.3-2.1-1.9-3.5c0.4-1.5,2.1-2.4,3.5-2
				C489.3,419.1,490.1,420.8,489.7,422.2z"/>
			<path d="M487.5,429c-0.5,1.4-2.2,2.3-3.6,1.8c-1.4-0.5-2.3-2.2-1.8-3.5c0.5-1.5,2.1-2.4,3.6-1.9C487.2,425.9,488,427.6,487.5,429
				z"/>
			<path d="M485.1,435.7c-0.5,1.4-2.2,2.2-3.7,1.6c-1.4-0.5-2.2-2.2-1.7-3.6c0.6-1.5,2.2-2.3,3.7-1.7
				C485,432.5,485.7,434.3,485.1,435.7z"/>
			<path d="M482.5,442.3c-0.6,1.4-2.3,2.1-3.7,1.5c-1.3-0.6-2.1-2.3-1.5-3.7c0.6-1.4,2.3-2.2,3.7-1.6
				C482.4,439.1,483.1,440.9,482.5,442.3z"/>
			<path d="M479.6,448.7c-0.6,1.4-2.4,2-3.8,1.4c-1.3-0.6-2-2.4-1.4-3.7c0.7-1.4,2.4-2.1,3.8-1.4
				C479.7,445.6,480.3,447.4,479.6,448.7z"/>
			<path d="M476.5,455.1c-0.7,1.3-2.5,1.9-3.8,1.2c-1.3-0.7-1.9-2.5-1.2-3.8c0.7-1.4,2.5-2,3.9-1.3
				C476.7,452,477.2,453.8,476.5,455.1z"/>
			<path d="M473.1,461.4c-0.7,1.3-2.5,1.8-3.9,1.1c-1.3-0.7-1.8-2.5-1.1-3.8c0.8-1.4,2.5-1.9,3.9-1.2
				C473.4,458.2,473.9,460.1,473.1,461.4z"/>
			<path d="M469.5,467.5c-0.8,1.3-2.6,1.7-3.9,0.9c-1.2-0.8-1.7-2.6-1-3.8c0.8-1.3,2.6-1.8,3.9-1C470,464.4,470.3,466.2,469.5,467.5
				z"/>
			<path d="M465.7,473.5c-0.8,1.3-2.7,1.6-3.9,0.8c-1.2-0.8-1.6-2.7-0.8-3.9c0.9-1.3,2.7-1.7,4-0.9
				C466.3,470.4,466.6,472.2,465.7,473.5z"/>
			<path d="M461.7,479.3c-0.9,1.2-2.7,1.5-3.9,0.6c-1.2-0.9-1.5-2.7-0.7-3.9c0.9-1.3,2.7-1.6,4-0.7
				C462.3,476.2,462.6,478.1,461.7,479.3z"/>
			<path d="M457.5,485c-0.9,1.2-2.8,1.4-4,0.5c-1.2-0.9-1.4-2.8-0.5-3.9c1-1.2,2.8-1.5,4-0.6C458.2,481.9,458.4,483.8,457.5,485z"/>
			<path d="M453,490.5c-1,1.2-2.8,1.3-4,0.4c-1.1-0.9-1.3-2.8-0.4-4c1-1.2,2.9-1.4,4-0.4C453.9,487.5,454,489.4,453,490.5z"/>
			<path d="M448.3,495.9c-1,1.1-2.9,1.2-4,0.2c-1.1-1-1.2-2.9-0.2-4c1-1.2,2.9-1.3,4.1-0.3C449.3,492.9,449.4,494.8,448.3,495.9z"/>
			<path d="M443.5,501.1c-1.1,1.1-2.9,1.1-4,0.1c-1-1-1.1-2.9-0.1-4c1.1-1.1,3-1.2,4.1-0.1C444.6,498.1,444.5,500,443.5,501.1z"/>
			<path d="M438.5,506.1c-1.1,1-3,1-4-0.1c-1-1.1-1-3,0.1-4c1.1-1.1,3-1.1,4.1,0C439.7,503.1,439.5,505,438.5,506.1z"/>
			<path d="M433.2,510.9c-1.1,1-3,0.9-4-0.2c-1-1.1-0.9-3,0.2-4c1.2-1,3-1,4.1,0.2C434.5,508,434.4,509.9,433.2,510.9z"/>
			<path d="M427.8,515.5c-1.2,1-3,0.8-4-0.4c-0.9-1.1-0.8-3,0.4-4c1.2-1,3.1-0.9,4.1,0.3C429.3,512.7,429,514.5,427.8,515.5z"/>
			<path d="M422.3,519.9c-1.2,0.9-3.1,0.7-4-0.5c-0.9-1.2-0.7-3.1,0.5-3.9c1.2-0.9,3.1-0.8,4,0.5C423.8,517.1,423.5,519,422.3,519.9
				z"/>
			<path d="M416.6,524.1c-1.2,0.9-3.1,0.6-3.9-0.7c-0.8-1.2-0.5-3.1,0.6-3.9c1.3-0.9,3.1-0.6,4,0.6
				C418.2,521.4,417.8,523.2,416.6,524.1z"/>
			<path d="M410.7,528.1c-1.3,0.8-3.1,0.4-3.9-0.8c-0.8-1.2-0.4-3.1,0.8-3.9c1.3-0.8,3.1-0.5,4,0.8
				C412.4,525.4,412,527.2,410.7,528.1z"/>
			<path d="M404.7,531.8c-1.3,0.8-3.1,0.3-3.9-1c-0.8-1.3-0.3-3.1,0.9-3.9c1.3-0.8,3.2-0.4,4,0.9C406.5,529.3,406,531.1,404.7,531.8
				z"/>
			<path d="M398.5,535.4c-1.3,0.7-3.1,0.2-3.8-1.1c-0.7-1.3-0.2-3.1,1.1-3.8c1.4-0.7,3.2-0.3,3.9,1.1
				C400.4,532.9,399.8,534.6,398.5,535.4z"/>
			<path d="M392.3,538.7c-1.3,0.7-3.1,0.1-3.8-1.3c-0.7-1.3-0.1-3.1,1.2-3.8c1.4-0.7,3.2-0.2,3.9,1.2
				C394.2,536.2,393.6,538,392.3,538.7z"/>
			<path d="M385.9,541.8c-1.4,0.6-3.1,0-3.7-1.4c-0.6-1.3,0-3.1,1.4-3.7c1.4-0.6,3.2,0,3.8,1.4C387.9,539.4,387.2,541.1,385.9,541.8
				z"/>
			<path d="M379.3,544.6c-1.4,0.6-3.1-0.1-3.7-1.5c-0.6-1.3,0.1-3.1,1.5-3.7c1.4-0.6,3.2,0.1,3.8,1.5S380.7,544,379.3,544.6z"/>
			<path d="M372.7,547.2c-1.4,0.5-3.1-0.3-3.6-1.7c-0.5-1.4,0.3-3.1,1.6-3.6c1.5-0.5,3.2,0.2,3.7,1.6
				C375,545,374.2,546.6,372.7,547.2z"/>
			<path d="M366,549.5c-1.4,0.5-3.1-0.4-3.6-1.8c-0.5-1.4,0.4-3.1,1.8-3.6c1.5-0.5,3.2,0.3,3.7,1.8C368.4,547.4,367.5,549,366,549.5
				z"/>
			<path d="M359.3,551.6c-1.4,0.4-3.1-0.5-3.5-1.9c-0.4-1.4,0.5-3.1,1.9-3.5c1.5-0.4,3.2,0.4,3.6,1.9
				C361.7,549.6,360.7,551.2,359.3,551.6z"/>
			<path d="M352.4,553.4c-1.5,0.4-3.1-0.6-3.4-2.1c-0.3-1.4,0.6-3.1,2-3.4c1.5-0.4,3.1,0.5,3.5,2C354.9,551.5,353.9,553,352.4,553.4
				z"/>
			<path d="M345.5,555c-1.5,0.3-3-0.7-3.3-2.2c-0.3-1.4,0.7-3,2.2-3.3c1.5-0.3,3.1,0.7,3.4,2.2C348,553.1,347,554.7,345.5,555z"/>
			<path d="M338.5,556.3c-1.5,0.3-3-0.8-3.3-2.3c-0.2-1.4,0.8-3,2.3-3.3c1.5-0.3,3.1,0.8,3.3,2.3C341.1,554.5,340,556,338.5,556.3z"
				/>
			<path d="M331.5,557.3c-1.5,0.2-3-1-3.2-2.4c-0.2-1.4,1-3,2.4-3.2c1.5-0.2,3.1,0.9,3.3,2.4C334.2,555.7,333,557.1,331.5,557.3z"/>
			<path d="M324.4,558.1c-1.5,0.1-2.9-1.1-3.1-2.6c-0.1-1.5,1.1-2.9,2.5-3.1c1.5-0.1,3,1,3.2,2.5C327.2,556.6,326,558,324.4,558.1z"
				/>
			<path d="M317.4,558.6c-1.5,0.1-2.9-1.2-3-2.7c-0.1-1.5,1.2-2.9,2.6-3c1.6-0.1,3,1.1,3.1,2.7C320.2,557.2,318.9,558.6,317.4,558.6
				z"/>
			<path d="M310.3,558.9c-1.5,0-2.9-1.3-2.9-2.8c0-1.5,1.3-2.9,2.7-2.9c1.6,0,2.9,1.2,3,2.8C313.1,557.6,311.8,558.9,310.3,558.9z"
				/>
			<path d="M303,558.9c-1.5,0-2.8-1.4-2.8-2.9c0-1.5,1.4-2.8,2.8-2.8c1.6,0,2.9,1.3,2.9,2.9C305.9,557.7,304.6,558.9,303,558.9z"/>
			<path d="M296,558.7c-1.5-0.1-2.8-1.5-2.7-3c0.1-1.5,1.5-2.8,2.9-2.7c1.5,0.1,2.8,1.4,2.8,3C298.9,557.5,297.5,558.7,296,558.7z"
				/>
			<path d="M288.9,558.1c-1.5-0.1-2.7-1.6-2.6-3.1c0.1-1.5,1.6-2.7,3-2.6c1.5,0.1,2.8,1.5,2.6,3.1
				C291.9,557.1,290.4,558.3,288.9,558.1z"/>
			<path d="M281.8,557.4c-1.5-0.2-2.6-1.7-2.4-3.2c0.2-1.4,1.7-2.6,3.1-2.4c1.5,0.2,2.7,1.6,2.5,3.2
				C284.8,556.5,283.3,557.5,281.8,557.4z"/>
			<path d="M274.8,556.3c-1.5-0.3-2.6-1.8-2.3-3.3c0.2-1.4,1.8-2.6,3.2-2.3c1.5,0.3,2.7,1.7,2.4,3.3
				C277.8,555.5,276.3,556.6,274.8,556.3z"/>
			<path d="M267.8,555c-1.5-0.3-2.5-1.9-2.2-3.3c0.3-1.4,1.9-2.5,3.3-2.2c1.5,0.3,2.6,1.8,2.3,3.4
				C270.9,554.3,269.3,555.3,267.8,555z"/>
			<path d="M260.9,553.4c-1.5-0.4-2.4-2-2.1-3.4c0.3-1.4,2-2.4,3.4-2.1c1.5,0.4,2.5,1.9,2.2,3.4C264,552.9,262.4,553.8,260.9,553.4z
				"/>
			<path d="M254,551.6c-1.4-0.4-2.4-2.1-1.9-3.5c0.4-1.4,2.1-2.4,3.5-2c1.5,0.4,2.5,2,2,3.5C257.2,551.2,255.5,552,254,551.6z"/>
			<path d="M247.3,549.5c-1.4-0.5-2.3-2.1-1.8-3.6c0.5-1.4,2.1-2.3,3.5-1.8c1.5,0.5,2.4,2.1,1.9,3.6
				C250.4,549.2,248.7,550,247.3,549.5z"/>
			<path d="M240.6,547.2c-1.4-0.5-2.2-2.2-1.7-3.6c0.5-1.4,2.2-2.2,3.6-1.7c1.5,0.5,2.3,2.2,1.8,3.7
				C243.7,547,242,547.7,240.6,547.2z"/>
			<path d="M233.9,544.6c-1.4-0.6-2.1-2.3-1.5-3.7c0.6-1.3,2.3-2.1,3.7-1.6c1.4,0.6,2.2,2.3,1.6,3.7
				C237.1,544.6,235.3,545.2,233.9,544.6z"/>
			<path d="M227.4,541.8c-1.4-0.6-2-2.4-1.4-3.7c0.6-1.3,2.4-2,3.7-1.4c1.4,0.6,2.1,2.4,1.5,3.8
				C230.6,541.8,228.8,542.4,227.4,541.8z"/>
			<path d="M221,538.7c-1.3-0.7-1.9-2.5-1.3-3.8c0.7-1.3,2.5-1.9,3.8-1.3c1.4,0.7,2,2.5,1.3,3.8C224.2,538.9,222.4,539.4,221,538.7z
				"/>
			<path d="M214.8,535.4c-1.3-0.7-1.8-2.5-1.1-3.8c0.7-1.3,2.5-1.8,3.8-1.1c1.4,0.7,1.9,2.5,1.2,3.9
				C217.9,535.7,216.1,536.2,214.8,535.4z"/>
			<path d="M208.6,531.9c-1.3-0.8-1.7-2.6-1-3.9c0.8-1.3,2.6-1.7,3.8-1c1.3,0.8,1.8,2.6,1,3.9C211.7,532.3,209.9,532.7,208.6,531.9z
				"/>
			<path d="M202.6,528.2c-1.3-0.8-1.6-2.7-0.8-3.9c0.8-1.2,2.7-1.6,3.9-0.9c1.3,0.8,1.7,2.7,0.9,4
				C205.7,528.7,203.8,529,202.6,528.2z"/>
			<path d="M196.7,524.2c-1.2-0.9-1.5-2.7-0.7-3.9c0.8-1.2,2.7-1.6,3.9-0.7c1.3,0.9,1.6,2.7,0.8,4
				C199.8,524.8,197.9,525,196.7,524.2z"/>
			<path d="M191,520c-1.2-0.9-1.4-2.8-0.5-4c0.9-1.2,2.8-1.4,3.9-0.6c1.2,0.9,1.5,2.8,0.6,4C194,520.7,192.2,520.9,191,520z"/>
			<path d="M185.4,515.6c-1.2-1-1.3-2.8-0.4-4c0.9-1.1,2.8-1.3,3.9-0.4c1.2,1,1.4,2.8,0.5,4C188.5,516.4,186.6,516.5,185.4,515.6z"
				/>
			<path d="M180,511c-1.1-1-1.2-2.9-0.2-4c1-1.1,2.9-1.2,4-0.3c1.2,1,1.3,2.9,0.3,4.1C183,511.9,181.2,512,180,511z"/>
			<path d="M174.8,506.2c-1.1-1-1.1-2.9-0.1-4c1-1.1,2.9-1.1,4-0.1c1.1,1.1,1.2,2.9,0.2,4.1C177.8,507.2,175.9,507.2,174.8,506.2z"
				/>
			<path d="M169.8,501.2c-1-1.1-1-3,0.1-4c1-1,3-1,4,0c1.1,1.1,1.1,3,0,4.1C172.7,502.3,170.8,502.3,169.8,501.2z"/>
			<path d="M164.9,496c-1-1.1-0.9-3,0.2-4c1.1-1,3-0.9,4,0.2c1,1.2,1,3-0.1,4.1C167.8,497.3,165.9,497.1,164.9,496z"/>
			<path d="M160.2,490.6c-1-1.2-0.8-3,0.4-4c1.1-0.9,3-0.8,4,0.3c1,1.2,0.9,3.1-0.3,4.1C163.1,492,161.2,491.8,160.2,490.6z"/>
			<path d="M155.8,485.1c-0.9-1.2-0.7-3,0.5-4c1.2-0.9,3-0.7,3.9,0.5c1,1.2,0.8,3.1-0.4,4C158.6,486.6,156.7,486.3,155.8,485.1z"/>
			<path d="M151.5,479.4c-0.9-1.2-0.6-3.1,0.6-3.9c1.2-0.9,3.1-0.6,3.9,0.6c0.9,1.3,0.7,3.1-0.6,4
				C154.3,481,152.4,480.7,151.5,479.4z"/>
			<path d="M147.5,473.6c-0.8-1.3-0.5-3.1,0.8-3.9c1.2-0.8,3.1-0.5,3.9,0.8c0.9,1.3,0.6,3.1-0.7,4
				C150.2,475.3,148.3,474.9,147.5,473.6z"/>
			<path d="M143.7,467.6c-0.8-1.3-0.3-3.1,0.9-3.9c1.2-0.8,3.1-0.3,3.9,0.9c0.8,1.3,0.4,3.2-0.9,4
				C146.3,469.4,144.5,468.9,143.7,467.6z"/>
			<path d="M140.1,461.5c-0.7-1.3-0.2-3.1,1.1-3.9c1.3-0.7,3.1-0.2,3.8,1c0.8,1.4,0.3,3.2-1,3.9
				C142.6,463.4,140.8,462.8,140.1,461.5z"/>
			<path d="M136.7,455.3c-0.7-1.3-0.1-3.1,1.2-3.8c1.3-0.7,3.1-0.1,3.8,1.2c0.7,1.4,0.2,3.2-1.2,3.9
				C139.2,457.2,137.4,456.6,136.7,455.3z"/>
			<path d="M133.6,448.9c-0.6-1.4,0-3.1,1.4-3.8c1.3-0.6,3.1,0,3.7,1.3c0.7,1.4,0.1,3.2-1.3,3.8C136,451,134.2,450.3,133.6,448.9z"
				/>
			<path d="M130.7,442.4c-0.6-1.4,0.1-3.1,1.5-3.7c1.3-0.6,3.1,0.1,3.7,1.5c0.6,1.4,0,3.2-1.5,3.8
				C133,444.6,131.3,443.8,130.7,442.4z"/>
			<path d="M128.1,435.8c-0.5-1.4,0.2-3.1,1.6-3.6c1.4-0.5,3.1,0.2,3.6,1.6c0.6,1.5-0.2,3.2-1.6,3.7
				C130.3,438.1,128.6,437.2,128.1,435.8z"/>
			<path d="M125.7,429.2c-0.5-1.4,0.4-3.1,1.8-3.6c1.4-0.5,3.1,0.3,3.6,1.7c0.5,1.5-0.3,3.2-1.7,3.7
				C127.8,431.5,126.2,430.6,125.7,429.2z"/>
			<path d="M123.5,422.4c-0.4-1.4,0.5-3.1,1.9-3.5c1.4-0.4,3.1,0.5,3.5,1.9c0.4,1.5-0.4,3.2-1.9,3.6
				C125.6,424.8,124,423.8,123.5,422.4z"/>
			<path d="M121.6,415.5c-0.4-1.5,0.6-3.1,2-3.4c1.4-0.4,3.1,0.6,3.4,2c0.4,1.5-0.5,3.1-2,3.5C123.6,418,122,417,121.6,415.5z"/>
			<path d="M120,408.6c-0.3-1.5,0.7-3,2.2-3.4c1.4-0.3,3,0.7,3.4,2.1c0.3,1.5-0.6,3.1-2.1,3.5C121.9,411.2,120.3,410.1,120,408.6z"
				/>
			<path d="M118.6,401.7c-0.3-1.5,0.8-3,2.3-3.3c1.4-0.3,3,0.8,3.3,2.2c0.3,1.5-0.7,3.1-2.3,3.4
				C120.4,404.3,118.9,403.2,118.6,401.7z"/>
			<path d="M117.5,394.7c-0.2-1.5,0.9-3,2.4-3.2c1.4-0.2,3,0.9,3.2,2.4c0.2,1.5-0.9,3.1-2.4,3.3
				C119.2,397.4,117.7,396.2,117.5,394.7z"/>
			<path d="M116.7,387.6c-0.2-1.5,1-2.9,2.5-3.1c1.5-0.1,2.9,1,3.1,2.5c0.2,1.5-1,3-2.5,3.2C118.2,390.4,116.8,389.1,116.7,387.6z"
				/>
			<path d="M116.1,380.6c-0.1-1.5,1.1-2.9,2.6-3c1.5-0.1,2.9,1.1,3,2.6c0.1,1.5-1.1,3-2.6,3.1C117.6,383.4,116.2,382.1,116.1,380.6z
				"/>
			<path d="M115.8,373.5c0-1.5,1.2-2.9,2.8-2.9c1.5,0,2.9,1.2,2.9,2.7c0,1.6-1.2,3-2.7,3C117.1,376.3,115.8,375,115.8,373.5z"/>
			<path d="M115.7,366.3c0-1.5,1.3-2.8,2.9-2.8c1.5,0,2.8,1.3,2.8,2.8c0,1.6-1.3,2.9-2.9,2.9C116.9,369.2,115.7,367.8,115.7,366.3z"
				/>
			<path d="M115.9,359.2c0.1-1.5,1.5-2.8,3-2.7c1.5,0.1,2.8,1.5,2.7,2.9c-0.1,1.6-1.4,2.9-3,2.8C117,362.1,115.8,360.7,115.9,359.2z
				"/>
			<path d="M116.3,352.1c0.1-1.5,1.6-2.7,3.1-2.6c1.5,0.1,2.7,1.6,2.6,3c-0.1,1.5-1.5,2.8-3.1,2.7
				C117.4,355.1,116.2,353.6,116.3,352.1z"/>
			<path d="M117.1,345.1c0.2-1.5,1.7-2.7,3.1-2.5c1.5,0.2,2.7,1.7,2.5,3.1c-0.2,1.5-1.6,2.7-3.2,2.6
				C118,348.1,116.9,346.6,117.1,345.1z"/>
			<path d="M118,338c0.2-1.5,1.8-2.6,3.2-2.4c1.4,0.2,2.6,1.7,2.4,3.2c-0.2,1.5-1.7,2.7-3.3,2.4C118.8,341.1,117.8,339.5,118,338z"
				/>
			<path d="M119.3,331.1c0.3-1.5,1.8-2.5,3.3-2.2c1.4,0.3,2.5,1.8,2.2,3.3c-0.3,1.5-1.8,2.6-3.3,2.3
				C120,334.1,119,332.5,119.3,331.1z"/>
			<path d="M120.8,324.1c0.3-1.5,1.9-2.5,3.4-2.1c1.4,0.3,2.5,1.9,2.1,3.4c-0.4,1.5-1.9,2.6-3.4,2.2
				C121.4,327.2,120.4,325.6,120.8,324.1z"/>
			<path d="M122.5,317.2c0.4-1.5,2-2.4,3.5-2c1.4,0.4,2.4,2,2,3.4c-0.4,1.5-2,2.5-3.5,2.1C123,320.4,122.1,318.7,122.5,317.2z"/>
			<path d="M124.5,310.4c0.5-1.4,2.1-2.3,3.6-1.8c1.4,0.4,2.3,2.1,1.9,3.5c-0.5,1.5-2.1,2.4-3.6,1.9
				C124.9,313.6,124.1,311.9,124.5,310.4z"/>
			<path d="M126.8,303.7c0.5-1.4,2.2-2.2,3.6-1.7c1.4,0.5,2.2,2.2,1.7,3.6c-0.5,1.5-2.2,2.3-3.7,1.8
				C127,306.9,126.3,305.1,126.8,303.7z"/>
			<path d="M129.3,297.1c0.6-1.4,2.3-2.1,3.7-1.6c1.4,0.5,2.1,2.3,1.6,3.6c-0.6,1.4-2.3,2.2-3.7,1.7
				C129.4,300.2,128.8,298.5,129.3,297.1z"/>
			<path d="M132.1,290.6c0.6-1.4,2.4-2,3.7-1.4c1.3,0.6,2,2.4,1.5,3.7c-0.6,1.4-2.4,2.1-3.8,1.5
				C132.1,293.7,131.5,291.9,132.1,290.6z"/>
			<path d="M135.1,284.1c0.7-1.4,2.4-2,3.8-1.3c1.3,0.6,2,2.4,1.3,3.7c-0.7,1.4-2.4,2.1-3.8,1.4C135,287.3,134.4,285.5,135.1,284.1z
				"/>
			<path d="M138.3,277.8c0.7-1.3,2.5-1.9,3.8-1.2c1.3,0.7,1.9,2.5,1.2,3.8c-0.7,1.4-2.5,2-3.9,1.2
				C138.1,281,137.6,279.1,138.3,277.8z"/>
			<path d="M141.8,271.6c0.8-1.3,2.6-1.8,3.9-1c1.3,0.7,1.8,2.6,1,3.8c-0.8,1.3-2.6,1.9-3.9,1.1C141.4,274.8,141,272.9,141.8,271.6z
				"/>
			<path d="M145.5,265.6c0.8-1.3,2.6-1.7,3.9-0.9c1.2,0.8,1.7,2.6,0.9,3.9c-0.8,1.3-2.6,1.8-4,0.9
				C145,268.7,144.7,266.8,145.5,265.6z"/>
			<path d="M149.4,259.7c0.9-1.2,2.7-1.6,3.9-0.7c1.2,0.8,1.6,2.7,0.7,3.9c-0.9,1.3-2.7,1.7-4,0.8
				C148.8,262.8,148.6,260.9,149.4,259.7z"/>
			<path d="M153.6,253.9c0.9-1.2,2.8-1.5,4-0.6c1.2,0.9,1.5,2.8,0.6,3.9c-0.9,1.2-2.8,1.6-4,0.6C152.9,257,152.7,255.1,153.6,253.9z
				"/>
			<path d="M157.9,248.3c0.9-1.2,2.8-1.4,4-0.4c1.1,0.9,1.4,2.8,0.5,3.9c-1,1.2-2.8,1.5-4,0.5C157.1,251.3,157,249.5,157.9,248.3z"
				/>
			<path d="M162.5,242.9c1-1.1,2.9-1.3,4-0.3c1.1,1,1.3,2.9,0.3,4c-1,1.2-2.9,1.4-4.1,0.3C161.6,245.9,161.5,244,162.5,242.9z"/>
			<path d="M167.2,237.6c1-1.1,2.9-1.2,4-0.1c1.1,1,1.2,2.9,0.2,4c-1.1,1.1-2.9,1.3-4.1,0.2C166.2,240.6,166.2,238.7,167.2,237.6z"
				/>
			<path d="M172.2,232.5c1.1-1.1,2.9-1.1,4,0c1,1,1.1,2.9,0,4c-1.1,1.1-3,1.1-4.1,0C171,235.4,171.1,233.6,172.2,232.5z"/>
			<path d="M177.3,227.6c1.1-1,3-0.9,4,0.2c1,1.1,0.9,3-0.1,4c-1.1,1.1-3,1-4.1-0.1C176.1,230.5,176.2,228.6,177.3,227.6z"/>
			<path d="M182.6,222.9c1.1-1,3-0.8,4,0.3c0.9,1.1,0.8,3-0.3,4c-1.2,1-3.1,0.9-4.1-0.3C181.3,225.7,181.5,223.9,182.6,222.9z"/>
			<path d="M188.1,218.4c1.2-0.9,3-0.7,4,0.5c0.9,1.1,0.7,3-0.4,3.9c-1.2,1-3.1,0.8-4-0.4C186.6,221.2,186.9,219.3,188.1,218.4z"/>
			<path d="M193.7,214.1c1.2-0.9,3.1-0.6,4,0.6c0.9,1.2,0.6,3.1-0.6,3.9c-1.3,0.9-3.1,0.7-4-0.6C192.2,216.8,192.5,215,193.7,214.1z
				"/>
			<path d="M199.5,210c1.2-0.8,3.1-0.5,3.9,0.8c0.8,1.2,0.5,3.1-0.7,3.9c-1.3,0.9-3.1,0.6-4-0.7C197.9,212.7,198.3,210.8,199.5,210z
				"/>
			<path d="M205.5,206.1c1.3-0.8,3.1-0.4,3.9,0.9c0.8,1.2,0.4,3.1-0.9,3.9c-1.3,0.8-3.2,0.5-4-0.9
				C203.7,208.7,204.2,206.9,205.5,206.1z"/>
			<path d="M211.6,202.5c1.3-0.8,3.1-0.3,3.9,1c0.7,1.3,0.3,3.1-1,3.8c-1.3,0.8-3.2,0.3-3.9-1C209.7,205,210.3,203.2,211.6,202.5z"
				/>
			<path d="M217.8,199c1.3-0.7,3.1-0.1,3.8,1.2c0.7,1.3,0.1,3.1-1.1,3.8c-1.4,0.7-3.2,0.2-3.9-1.1
				C215.8,201.5,216.4,199.7,217.8,199z"/>
			<path d="M224.1,195.9c1.4-0.7,3.1,0,3.8,1.3c0.6,1.3,0,3.1-1.3,3.8c-1.4,0.7-3.2,0.1-3.9-1.3
				C222.1,198.3,222.8,196.5,224.1,195.9z"/>
			<path d="M230.6,192.9c1.4-0.6,3.1,0.1,3.7,1.5c0.6,1.3-0.1,3.1-1.4,3.7c-1.4,0.6-3.2,0-3.8-1.4
				C228.4,195.2,229.2,193.5,230.6,192.9z"/>
			<path d="M237.1,190.2c1.4-0.5,3.1,0.2,3.7,1.6c0.5,1.4-0.2,3.1-1.6,3.6c-1.4,0.6-3.2-0.1-3.8-1.6
				C234.9,192.4,235.7,190.7,237.1,190.2z"/>
			<path d="M243.8,187.7c1.4-0.5,3.1,0.3,3.6,1.7c0.5,1.4-0.3,3.1-1.7,3.6c-1.5,0.5-3.2-0.2-3.7-1.7
				C241.5,189.9,242.4,188.2,243.8,187.7z"/>
			<path d="M250.5,185.5c1.4-0.4,3.1,0.4,3.5,1.9c0.4,1.4-0.4,3.1-1.8,3.5c-1.5,0.5-3.2-0.4-3.6-1.9
				C248.1,187.6,249.1,186,250.5,185.5z"/>
			<path d="M257.3,183.6c1.5-0.4,3.1,0.6,3.5,2c0.4,1.4-0.6,3.1-2,3.4c-1.5,0.4-3.2-0.5-3.5-2C254.9,185.6,255.9,184,257.3,183.6z"
				/>
			<path d="M264.2,181.9c1.5-0.3,3.1,0.7,3.4,2.1c0.3,1.4-0.7,3.1-2.1,3.4c-1.5,0.3-3.1-0.6-3.5-2.1
				C261.7,183.8,262.8,182.2,264.2,181.9z"/>
			<path d="M271.2,180.4c1.5-0.3,3,0.8,3.3,2.3c0.3,1.4-0.8,3-2.2,3.3c-1.5,0.3-3.1-0.7-3.4-2.2
				C268.6,182.2,269.7,180.7,271.2,180.4z"/>
			<path d="M278.2,179.3c1.5-0.2,3,0.9,3.2,2.4c0.2,1.4-0.9,3-2.3,3.2c-1.5,0.2-3.1-0.8-3.3-2.4C275.5,181,276.7,179.5,278.2,179.3z
				"/>
			<path d="M285.2,178.4c1.5-0.2,3,1,3.1,2.5c0.2,1.5-1,3-2.5,3.1c-1.5,0.2-3-0.9-3.2-2.5C282.5,179.9,283.7,178.5,285.2,178.4z"/>
			<path d="M292.3,177.7c1.5-0.1,2.9,1.1,3,2.6c0.1,1.5-1.1,2.9-2.6,3c-1.5,0.1-3-1.1-3.1-2.6C289.5,179.2,290.8,177.8,292.3,177.7z
				"/>
			<path d="M299.3,177.3c1.5-0.1,2.9,1.2,2.9,2.7c0.1,1.5-1.2,2.9-2.7,2.9c-1.6,0.1-3-1.2-3-2.7
				C296.5,178.7,297.8,177.4,299.3,177.3z"/>
			<path d="M306.5,177.2c1.5,0,2.8,1.3,2.8,2.8c0,1.5-1.3,2.8-2.8,2.8c-1.6,0-2.9-1.3-2.9-2.8C303.6,178.5,305,177.2,306.5,177.2z"
				/>
		</g>
	</g>
	<g>
		<path d="M306,600.2c-62.2,0-120.6-24.2-164.6-68.2c-44-44-68.2-102.4-68.2-164.6c0-62.2,24.2-120.6,68.2-164.6
			s102.4-68.2,164.6-68.2c62.2,0,120.6,24.2,164.6,68.2c44,44,68.2,102.4,68.2,164.6c0,62.2-24.2,120.6-68.2,164.6
			C426.6,576,368.2,600.2,306,600.2z M306,138.3c-61.2,0-118.8,23.8-162.1,67.1c-43.3,43.3-67.1,100.9-67.1,162.1
			s23.8,118.8,67.1,162.1c43.3,43.3,100.9,67.1,162.1,67.1s118.8-23.8,162.1-67.1c43.3-43.3,67.1-100.9,67.1-162.1
			s-23.8-118.8-67.1-162.1C424.8,162.1,367.2,138.3,306,138.3z"/>
	</g>
	<path d="M127.9,446.5c-6.8-19.8-9.3-41.4-19.1-59.8c1.4-27,6.5-51.5,9.8-77.8c-3.5,8.4-10,15.4-10.9,24.7c-3.3,3.5-3,9.3-3.5,14
		l-0.5-2.1l-0.5,0.7c-1.4,4.9-0.2,11.2-3.7,14.4c-1.6-1.9-1.9-4.7-3.3-6.8c-3.7-9.5-12.3-17.5-12.3-28.2l-1.6,7.7
		c-0.5,1.2,1.4,2.1-0.5,2.8c1.4,11.9,3.7,23.3,8.8,33.8c1.2,1.9,1.6,5.4,4.4,5.4c-0.9-2.8-2.8-5.6-2.8-8.4l3.5,4.9l-1.6,17.7
		c-0.9,14.9,7,27.5,7.2,42.6c1.4,16.3,0.9,33.8,11.2,45.9c-4.9-17.9-7.2-37.5-8.8-56.3c0.2-5.8-0.9-13.3,2.3-17
		c2.1,10,10.9,17.2,14.7,26.8c3.7,10.9,5.6,22.6,7.2,34.2l7.5,11.2h0.7C134.2,466.3,131.2,456.3,127.9,446.5z M89.5,359.2
		c2.6,3.5,6.3,7.2,7,11.4C94.4,367.1,89.7,363.8,89.5,359.2z M97.5,398.6c0-4.4-1.2-9.3,0-13.7V398.6z M103.5,405.8
		c2.1-26.8,1.6-53.1,10-77.5C108.4,353.4,111.5,381.8,103.5,405.8z M107.7,400.2l2.3,5.6C109.4,404.9,107,402.3,107.7,400.2z"/>
	<g>
		<path d="M314.7,122.9c-7.9,7.9-17.7,11.6-29.3,10.7C293.8,126.6,303.8,122.4,314.7,122.9z"/>
		<path d="M291.9,123.4c-8.4,7.9-18.4,13-30,14C270.7,130.1,279.6,121.5,291.9,123.4z"/>
		<path d="M336.9,124.5c-8.1,4.4-16.5,10.9-27.2,8.4C317.3,127.1,326.6,121.7,336.9,124.5z"/>
		<path d="M269.1,125.7c-8.8,7.5-17.5,15.8-29.3,16.3C247.7,133.4,256.8,124.7,269.1,125.7z"/>
		<path d="M363.9,129.4c-7.7,6.3-22.1,4.7-32.1,4.7C340.8,127.8,353.2,124.3,363.9,129.4z"/>
		<path d="M244.4,130.8c-8.1,11.2-19.1,17-30.5,21C220.9,140.8,232.1,132.4,244.4,130.8z"/>
		<path d="M388.5,136.9c-10.7,4.7-24,3-35.2,0.5C364.3,134.5,377.8,130.3,388.5,136.9z"/>
		<path d="M217.4,139.6c-8.1,10.9-18.6,20-30.3,26.1C191.3,153.9,204.4,142,217.4,139.6z"/>
		<path d="M412.1,146.6c-11.2,1.9-24.2,2.6-34-2.8C388.8,139.6,402.5,140.3,412.1,146.6z"/>
		<path d="M430.2,157.1c-10.2,2.1-21.7,0.5-30-4.9C410,153.4,423.5,147.6,430.2,157.1z"/>
		<path d="M188.8,153.2c-6.5,9.8-12.6,21.7-23.7,27.5C167.6,168.8,176.9,157.3,188.8,153.2z"/>
		<path d="M447.7,167.8c-9.5-0.7-20.5,0.7-27.9-6.3c7.5-1.6,16.5-0.7,23.3,2.6C444.7,165.3,446.5,166.2,447.7,167.8z"/>
		<path d="M145.7,196.9c2.1-7.9,2.8-17.2,10.2-22.8l8.8-6.1C162.7,179.5,154.3,189.2,145.7,196.9z"/>
		<path d="M464.7,181.1c-9.3-0.9-21.4-1.4-27.5-9.1C447.5,172.5,458.2,172.9,464.7,181.1z"/>
		<path d="M127.3,216c2.3-12.1,6.1-24.2,17.2-32.1C142.7,195.8,136.4,206.9,127.3,216z"/>
		<path d="M484.2,199c-10.2-1.6-21.9-4.2-29.3-14C466.1,186.9,476.8,189.5,484.2,199z"/>
		<path d="M499.4,217c-8.6-2.8-20-4.4-25.4-14.4C483.5,204.8,494.7,206.2,499.4,217z"/>
		<path d="M107,243.5l2.1-16.5c4.9-7,6.8-16.3,14.7-22.4C121.5,218.8,116.6,232.1,107,243.5z"/>
		<path d="M514.3,237.7c-9.3-4-20.3-8.1-25.4-18.4C498.9,221.4,510.1,227,514.3,237.7z"/>
		<path d="M93.8,268.4c-0.5-14,0.5-27.2,9.5-37.3C101.7,243.7,101.7,257.9,93.8,268.4z"/>
		<path d="M525.7,257.9c-9.1-2.3-19.1-10.5-22.8-20C511.9,241.6,523.1,247.2,525.7,257.9z"/>
		<path d="M535,279.6c-9.1-4-17-13-20.5-21.9C522.9,262.1,533.6,269.1,535,279.6z"/>
		<path d="M84.5,289.8c0.2,2.6-1.2,5.1-1.9,7.7c-4-11.4-5.4-27.7,4.4-37.3C87.7,270.7,88.9,280.5,84.5,289.8z"/>
		<path d="M542.9,304.7c-7-8.6-18.6-15.8-19.1-27.5C533.4,283.8,542.2,293.3,542.9,304.7z"/>
		<path d="M75.8,323.6c-1.6-2.3-1.4-5.8-2.3-8.8c-6.3-7.5-1.2-17.9,1.2-25.6C77.2,299.8,79.6,312.4,75.8,323.6z"/>
		<path d="M548.3,326.4c-8.6-6.1-13.7-15.8-16.1-25.8C540.6,306.8,548.3,315.7,548.3,326.4z"/>
		<path d="M72.1,349.4L64.7,332c0.2-5.4,0.5-11.6,2.8-16.8C69.8,326.4,74.4,337.1,72.1,349.4z"/>
		<path d="M550.6,345c-6.5-5.8-13.5-13.7-13.5-23.5C543.1,327.6,550.4,335,550.6,345z"/>
		<path d="M71.6,372c-7.5-8.8-13-20.3-8.6-32.4C66.3,349.9,74.2,359,71.6,372z"/>
		<path d="M551.8,363.4c-7.7-6.1-12.6-14-11.2-23.5C546.4,346.9,553.6,353.6,551.8,363.4z"/>
		<path d="M551.1,384.8c-4.7-7.5-11.4-14.4-9.5-25.1C547.8,366.7,553.9,375.1,551.1,384.8z"/>
		<path d="M73,396c-4.2-6.1-9.5-11.9-11.6-18.9v-12.3C67.5,374.1,73.5,383.7,73,396z"/>
		<path d="M548.3,406.5c-5.6-7.7-8.1-17.5-6.8-27.5C547.8,386.5,551.8,396.7,548.3,406.5z"/>
		<path d="M76.8,416.7v3.3c-5.6-5.1-10.5-11.2-14-17.5l-0.5-11.4C70.9,397.9,72.8,407.9,76.8,416.7z"/>
		<path d="M543.8,427.4c-0.9-9.5-7.4-17.5-4.2-27.9C545,407.2,548.7,418.4,543.8,427.4z"/>
		<path d="M82.6,440.9c-4-6.1-12.3-7.7-15.4-14.7l-1.4-10C74.9,422.1,80,431.6,82.6,440.9z"/>
		<path d="M538.7,447c-3.3-9.3-4.4-20-2.1-29.8C542.4,425.1,542.2,437.7,538.7,447z"/>
		<path d="M530.1,467c-2.8-10.9,0.2-22.1,2.3-32.6C533.8,444.7,539,458.9,530.1,467z"/>
		<path d="M91.2,462.6c-4.4-0.7-6.5-6.8-10.9-8.6c-6.3-3.7-7.5-10.5-8.6-16.3C81,443.3,88.6,452.4,91.2,462.6z"/>
		<path d="M522,485.2c-2.6-10.2-0.2-21.7,3.5-31C524.8,464.7,529.6,476.8,522,485.2z"/>
		<path d="M100.5,481.5C90,477.3,81.4,467,77.7,456.1C85.8,464.5,97.7,469.8,100.5,481.5z"/>
		<path d="M509.9,505.2c-1.4-11.9,1.2-23.1,7.5-32.4C518.2,484.3,518.2,496.8,509.9,505.2z"/>
		<path d="M109.6,496.8c-8.8-1.2-19.1-8.8-21.7-18.4C95.6,483.6,105.6,487.5,109.6,496.8z"/>
		<path d="M498.9,520.3c-2.3-9.3,1.9-19.6,7.2-27.7C505.9,502.4,506.8,513.4,498.9,520.3z"/>
		<path d="M119.4,510.6c-7.7-0.9-17.7-4.4-21-12.8C106.1,500.3,115,502.2,119.4,510.6z"/>
		<path d="M484,537.3c0.5-3,2.6-6.8,2.6-10.7c1.6-5.8,3.3-11.6,7.2-16.3C493.6,518.9,493.6,531.3,484,537.3z"/>
		<path d="M129.9,523.1c-7.9-0.9-17.5-2.3-21.4-10.5C115.7,516.2,125.2,515,129.9,523.1z"/>
		<path d="M470,550.8c1.2-9.3,5.6-18.4,12.1-26.3C481.9,534.3,479.4,545,470,550.8z"/>
		<path d="M141.3,535.5c-7.9,1.2-17.2-1.9-22.1-9.3C126.8,528.5,135.9,528,141.3,535.5z"/>
		<path d="M454,564.4c2.1-10.5,7-20.5,16.3-27.5C467.9,546.7,464.4,558.8,454,564.4z"/>
		<path d="M158,550.6c-9.5,0.2-20-1.4-26.1-10.5C141.7,541.1,151.5,542,158,550.6z"/>
		<path d="M438.1,575.1c2.1-8.6,6.3-17.2,14.4-22.6C451.2,561.6,447.5,571.3,438.1,575.1z"/>
		<path d="M176,563.9c-9.5,0.2-20.5,0-27.5-8.4C158.7,555.5,168.5,557.1,176,563.9z"/>
		<path d="M422.3,584.4c1.9-9.1,9.5-17.2,17.2-22.4C437.7,570.4,431.6,580.6,422.3,584.4z"/>
		<path d="M192,573.7c-9.5,1.4-20.3,2.1-27-5.6C175,568.3,184.3,568.1,192,573.7z"/>
		<path d="M425.1,571.6c-4.7,7-7.9,18.2-17.9,19.6C410.4,583.4,416.7,574.4,425.1,571.6z"/>
		<path d="M209.5,582.5c-9.1,1.9-20,2.8-27.5-3.3C190.2,579,201.8,576.7,209.5,582.5z"/>
		<path d="M389,598.8c4.7-7.5,11.4-16.5,20.3-19.1C403,586.2,400,598.6,389,598.8z"/>
		<path d="M227,589.7c-9.5,1.2-20.3,5.4-28.4-1.4C207.9,589.3,218.8,583.7,227,589.7z"/>
		<path d="M393.2,586.9c-5.1,4.9-4.7,13.3-12.6,15.8c-3.3,0.7-6.3,1.9-9.8,2.6c2.1-2.6,6.1-5.8,6.8-9.5
			C381.8,591.1,387.4,588.6,393.2,586.9z"/>
		<path d="M244.6,595.1c-7.2,4-19.8,5.6-27.9,0.7C225.3,592.5,235.6,591.1,244.6,595.1z"/>
		<path d="M377.1,592.5c-3.3,4-8.1,7.7-11.2,11.6c-4.9,2.6-10.2,4.4-15.4,5.1C357.8,600.9,366.4,593.7,377.1,592.5z"/>
		<path d="M260.2,599.3c-6.5,3.5-17,7.2-24.9,3.5C243.2,601.1,251.4,594.9,260.2,599.3z"/>
		<path d="M354.8,598.6c-6.1,7.7-14.2,14.9-24.7,13.7C337.3,606.3,344.8,599,354.8,598.6z"/>
		<path d="M278.9,601.6c-6.3,7-16.3,7.7-25.4,6.1C261.6,605.6,268.9,598.1,278.9,601.6z"/>
		<path d="M337.3,601.1c-7.5,5.8-14.9,15.4-26.8,12.3C318.2,606.5,326.8,601.8,337.3,601.1z"/>
		<path d="M297.7,603c-7.7,4.4-15.6,11.6-25.8,7.9C279.1,605.3,288,601.8,297.7,603z"/>
		<path d="M306.8,611.2c-5.8,0.2-10.7,3.3-17,1.6c7.9-4.9,16.1-10.7,26.5-10h3L306.8,611.2z"/>
	</g>
	<g>
		<path d="M272.1,576.6c-0.3,2.2-0.4,5.1-0.1,7.2c0.4,2.3,1.5,3.5,3.3,3.8c2.9,0.4,4-3.4,4.8-6.3c0.3-1.1,0.5-2.4,0.7-3.6
			c0.5-3.8,1.1-10.6-2.8-11.1C273.9,566,272.7,572.6,272.1,576.6z M268.7,584.6c-1.2-2.4-1.8-5.8-1.3-8.8c0.5-3.3,1.8-6.4,4-8.5
			c1.9-1.9,4.5-2.8,6.8-2.5c2.6,0.4,4.6,1.7,6.1,4.5c1.3,2.6,1.8,5.8,1.4,9c-0.4,3.1-2,6.5-4.1,8.4c-2.2,2.1-4.4,2.7-7,2.4
			C272.1,588.8,270,587.2,268.7,584.6z"/>
		<path d="M297.1,590.8l0-1.7l1.5,0c0.2,0,0.5,0,0.7-0.1c0.1-0.1,0.2-0.1,0.2-0.2c0-0.1,0.1-0.2,0.1-0.3c0.1-0.5,0.1-1,0.1-1.5
			l0.1-16.1c0-0.6,0-1.4-0.5-1.6c-0.4-0.2-1-0.2-1.4-0.2l-0.6,0l0-1.7l16.1,0.1l0.1,8.6l-1.2,0c-0.8-4.4-2.2-6.8-5.8-6.8
			c-0.7,0-1.5-0.1-2.1,0.4c-0.3,0.4-0.3,1.1-0.3,1.6l0,6.7c2.6,0.1,3.4-1.3,3.9-4.5l1.2,0l-0.1,11.3l-1.2,0c0-0.8-0.1-1.6-0.4-2.4
			c-0.7-2-1.5-2.6-3.2-2.7l-0.2,0l0,7.2c0,1.7,0,2.1,1.4,2.2l1.5,0.1l0,1.7L297.1,590.8z"/>
		<path d="M343.7,588l-0.4-1.7c0.6-0.1,1.2-0.4,1.9-0.6c0.3-0.1,0.5-0.5,0.4-0.8c-0.1-0.4-0.2-0.8-0.2-1.2l-3.3-15.7
			c-0.2-0.7-0.2-1.5-0.9-1.6c-0.7,0-1.3,0.2-2,0.3l-0.4-1.7l9.1-1.9l0.4,1.7c-0.5,0.1-1,0.2-1.5,0.4c-0.1,0.1-0.2,0.2-0.4,0.2
			c-0.5,0.3-0.3,1.2-0.2,1.8l1.8,8.7l3.5-8.2c0.3-0.7,0.9-2,0.6-2.8c-0.1-0.2-0.2-0.3-0.4-0.4c-0.6-0.2-1.1-0.1-1.7,0l-0.5,0.1
			l-0.4-1.7l8-1.7l0.4,1.7c-1.6,0.4-2.7,1.9-3.5,3.6l-0.7,1.3l-1.4,3.1l7.5,9.8c1,1.3,1.1,1.8,2.5,1.7l0.3,0l0.4,1.7l-8.7,1.8
			l-0.4-1.7c0.4-0.1,0.8-0.2,1.2-0.4c0.2,0,0.3-0.1,0.5-0.2c0.1-0.1,0.1-0.2,0.1-0.3c0-0.5-0.2-0.8-0.4-1.1l-5.1-6.9l-1.5,3.3
			l0.8,3.8c0.1,0.5,0.2,1,0.4,1.5c0.1,0.2,0.1,0.3,0.2,0.5c0.1,0.1,0.2,0.2,0.3,0.2c0.1,0,0.2,0,0.3,0c0.4,0.1,0.8-0.1,1.1-0.1
			l0.6-0.1l0.4,1.7L343.7,588z"/>
		<path d="M373.9,555.2l1.7-0.6l12.6,16.5c1.2,1.5,1.5,2,3.1,1.5l0.6,1.6l-8,2.9l-0.6-1.6c0.4-0.2,1.3-0.4,1.5-0.9
			c0.1-0.5-0.2-0.9-0.5-1.3l-2.2-3.1l-5.9,2.1c0.1,1,0,2.2,0.4,3.3c0.6,1.7,2,1.7,3.1,1.3l0.6,1.6l-6.6,2.4l-0.6-1.6
			c1.7-0.9,1.6-3.7,1.6-5.9L373.9,555.2z M380.8,568.5l-5.1-6.8l0.4,8.5L380.8,568.5z"/>
		<path d="M402.6,569.4l-0.8-1.5c1.9-1.2,1.9-2.1,0.6-4.6l-6.8-12.8c-1.1-0.7-2.2-0.8-3.1-0.4l-0.8-1.5l5.5-2.9l15.4,8.8l-4.4-8.3
			c-1.3-2.4-2.3-3-4.2-2.1l-0.8-1.5l6.1-3.3l0.8,1.5c-1,0.8-1.7,1.5-1.1,3.2c0.3,0.9,0.7,1.7,1.2,2.5l8,15l-1.3,0.7l-18.8-10.7
			l5.7,10.7c1.3,2.4,2.4,3.4,4.4,2.4l0.8,1.5L402.6,569.4z"/>
		<path d="M425.8,545.8l1-0.7c3,2.4,7.2,4.3,9.8,2.4c1.4-1,2.2-2.9,0.7-5.1c-1.3-1.8-2.7-1.8-4.1-1.2l-1.7,0.7
			c-1.7,0.7-3.3,1.2-5.4,0.9c-1.8-0.3-3.6-1.4-4.8-3.2c-2.9-4.1-1.9-7.8,0.9-9.8c1.3-0.9,2.8-1.3,4.5-1l0.1-2.1l0.9-0.6l5.2,6.7
			l-1,0.7c-2.8-2.3-6.6-3.9-9-2.2c-1.3,0.9-2.1,2.8-0.7,4.7c1.4,1.9,3.1,1.5,4.4,1l1.5-0.6c3.4-1.3,6.9-2.1,10.3,2.5
			c1.3,1.8,1.9,3.9,1.7,5.9c-0.2,1.8-1.3,3.2-2.6,4.1c-1.4,1-3.3,1.5-5.2,1.1l-0.1,2.5l-0.9,0.6L425.8,545.8z"/>
		<path d="M442,513.6l1.3-1.3l18.1,10.2c1.7,1,2.2,1.2,3.4,0.1l1.2,1.3l-6.2,5.9l-1.2-1.3c0.3-0.3,1.1-0.9,1-1.4
			c-0.1-0.6-0.5-0.7-1-1l-3.3-2l-4.5,4.3c0.5,0.9,0.9,2,1.7,2.8c1.3,1.4,2.5,0.8,3.3,0l1.2,1.3l-5.1,4.8l-1.2-1.3c1.2-1.5,0-4-0.9-6
			L442,513.6z M453.6,523.1l-7.3-4.3l3.7,7.6L453.6,523.1z"/>
		<path d="M467.5,509.2l0.8-0.9c3.5,1.6,8,2.3,10.1-0.2c1.1-1.3,1.4-3.4-0.6-5.1c-1.7-1.4-3.1-1.1-4.3-0.2l-1.5,1.1
			c-1.5,1.1-2.8,2-5,2.2c-1.8,0.2-3.8-0.5-5.5-1.8c-3.9-3.2-3.8-7-1.6-9.7c1-1.2,2.3-1.9,4.1-2.2l-0.4-2l0.7-0.8l6.8,5.2l-0.8,0.9
			c-3.3-1.5-7.4-2.1-9.3,0.2c-1,1.2-1.3,3.2,0.5,4.7c1.8,1.5,3.3,0.7,4.5-0.2l1.3-0.9c3-2.1,6.2-3.8,10.6-0.2
			c1.7,1.4,2.9,3.3,3.2,5.3c0.2,1.8-0.5,3.4-1.5,4.6c-1.1,1.4-2.8,2.2-4.8,2.4l0.6,2.5l-0.7,0.8L467.5,509.2z"/>
		<path d="M189.3,528.2l1.5,1.1l-6.6,19.7c-0.6,1.9-0.8,2.4,0.5,3.4l-1,1.4l-6.9-5l1-1.4c0.4,0.2,1.1,0.9,1.6,0.7
			c0.5-0.2,0.6-0.7,0.8-1.1l1.3-3.6l-5-3.7c-0.8,0.6-1.8,1.2-2.5,2.2c-1.1,1.5-0.3,2.6,0.7,3.3l-1,1.4l-5.7-4.1l1-1.4
			c1.7,0.9,4-0.7,5.7-2L189.3,528.2z M182.1,541.3l2.8-8l-6.8,5.1L182.1,541.3z"/>
		<path d="M200.4,546.9l4.5-7.6l14.2,7.7l-3.9,7.9l-1.1-0.6c1.1-2.8,2.1-7.1-0.3-8.4c-0.3-0.1-0.8-0.3-1,0.1
			c-0.2,0.4-0.5,0.8-0.7,1.2l-7.8,14.5c-0.6,1-0.7,1.3,0,1.9c0.5,0.4,1.1,0.6,1.6,0.9l-0.8,1.5l-8.7-4.7l0.8-1.5
			c0.6,0.3,1.3,0.6,2,0.8c0.2,0.1,0.6-0.1,0.7-0.3c0.3-0.3,0.5-0.7,0.7-1l7.7-14.2c0.2-0.4,0.4-0.8,0.6-1.2c0.2-0.4-0.2-0.8-0.4-0.9
			c-2.4-1.3-5.5,2-7.2,4.4L200.4,546.9z"/>
		<path d="M219.6,573l0.6-1.6c0.7,0.1,2,1.1,2.7,0.1c0.2-0.3,0.3-0.7,0.5-1l5.9-15.6c0.1-0.2,0.2-0.5,0.2-0.7c0-0.3,0-0.5-0.2-0.7
			c-0.5-0.4-1.2-0.6-1.9-0.9l0.6-1.6l15.4,5.8l-2.8,8l-1.1-0.4c0.7-4.8,0.3-7.1-3.4-8.5c-0.5-0.2-1.1-0.4-1.8-0.3
			c-0.2,0.1-0.4,0.2-0.6,0.5c-0.3,0.4-0.5,1-0.7,1.5l-2.2,5.8c2.2,1.1,3.9-0.2,5.3-3l1.2,0.4l-3.9,10.6l-1.2-0.5c1-3,0.4-5.3-1.9-6
			l-2.5,6.7c-0.5,1.3-0.8,2,0.3,2.5c0.4,0.2,0.8,0.4,1.2,0.6c3.6,1.4,5.7-0.3,8.3-4.4l1.1,0.6l-3.3,8L219.6,573z"/>
		<path d="M211.9,177.8l-3.3-8.2l14.7-6.6l4,7.9l-1.1,0.5c-1.6-2.6-4.3-6-6.8-4.9c-0.3,0.1-0.7,0.5-0.5,0.9c0.2,0.4,0.4,0.9,0.6,1.3
			l6.8,15c0.5,1.1,0.6,1.3,1.5,1.1c0.6-0.2,1.2-0.5,1.7-0.7l0.7,1.6l-9,4.1l-0.7-1.6c0.7-0.3,1.3-0.7,1.9-1.1
			c0.2-0.1,0.3-0.5,0.2-0.8c0-0.4-0.3-0.8-0.4-1.2l-6.6-14.7c-0.2-0.4-0.4-0.9-0.6-1.3c-0.2-0.4-0.7-0.3-1-0.2
			c-2.5,1.1-1.8,5.6-0.9,8.4L211.9,177.8z"/>
		<path d="M243.3,155.6l1.8-0.5l11.6,17.3c1.1,1.6,1.4,2.1,3,1.7l0.5,1.7l-8.2,2.4l-0.5-1.7c0.4-0.2,1.4-0.3,1.5-0.8
			c0.2-0.5-0.1-0.9-0.4-1.3l-2-3.2l-6,1.8c0,1-0.1,2.2,0.2,3.3c0.5,1.8,1.9,1.8,3,1.5l0.5,1.7l-6.7,2l-0.5-1.7
			c1.8-0.8,1.9-3.6,1.9-5.8L243.3,155.6z M249.3,169.3l-4.6-7.1l-0.1,8.5L249.3,169.3z"/>
		<path d="M273.6,160c0.7-0.1,1.3-0.2,1.9-0.3c2.4-0.4,3.6-1.7,3.1-5.2c-0.5-3.1-1.8-3.9-4-3.6c-0.6,0.1-1.2,0.1-1.7,0.5
			c-0.4,0.4-0.3,1.3-0.2,1.9L273.6,160z M274.8,149.2l1.8-0.2c1.4-0.2,2.7-0.2,4.2,0.7c1.2,0.8,2.2,2.5,2.4,4.2
			c0.6,4-1.8,5.9-4.4,6.6l0,0.1c2.1,0.3,3.4,1.6,4.3,4.3l0.7,2c0.2,0.7,0.5,1.4,0.8,2c0.1,0.1,0.2,0.2,0.3,0.4
			c1.3,0.5,1.1-2.2,1-3.2l1.2-0.2c0.1,0.6,0.2,1.3,0.1,1.9c0,2.8-1.6,4.1-3.5,4.4c-1.1,0.2-2.1-0.2-3-1.1c-0.8-0.8-1.2-2-1.4-3.3
			l-0.4-1.9c-0.5-2.7-0.9-4.6-3.3-4.5c-0.4,0-0.7,0.1-1.1,0.1l-0.8,0.1l1.1,7.4c0.1,0.4,0.1,0.7,0.2,1.1c0.2,0.6,0.4,0.8,0.9,0.8
			c0.4,0,0.9-0.1,1.3-0.1l0.6-0.1l0.2,1.7l-9.5,1.4l-0.2-1.7c0.4-0.1,0.9-0.1,1.3-0.2c1.2-0.2,1.1-0.7,0.9-2.1l-2.2-14.9
			c-0.1-0.5-0.2-2.2-0.6-2.6c-0.5-0.5-1.1-0.2-1.6-0.2l-0.8,0.1l-0.2-1.7L274.8,149.2z"/>
		<path d="M296,147l8.8-0.1l0,1.7c-0.5,0.1-1.1-0.1-1.6,0.2c-0.1,0.2-0.2,0.3-0.2,0.6c0,0.3,0.2,0.7,0.3,0.9l3.4,7.3l2.3-5.7
			c0.2-0.6,0.5-1,0.5-1.6c0-0.4-0.1-0.6-0.2-0.9c-0.6-0.8-1.4-0.8-2.1-0.8l0-1.7l7.2,0l0,1.7c-1.9,0.3-2.6,1.7-3.5,3.6
			c-0.8,1.6-1.4,3.2-2.1,4.9c-0.4,1-0.8,2-1.2,2.9l0,7c0,0.4,0.1,0.8,0.2,1.2c0.1,0.1,0.2,0.2,0.3,0.3c0.8,0.2,1.5,0.2,2.3,0.2
			l0,1.7l-9.8,0.1l0-1.7c0.5,0,1.8,0,2.2-0.2c0.5-0.3,0.4-1.1,0.4-1.7l0-6.3l-4.7-9.8c-0.7-1.5-1-2-2.4-2L296,147z"/>
		<path d="M346.7,162.7c-0.5,2.1-0.8,5-0.6,7.1c0.2,2.3,1.3,3.6,3,4c2.9,0.6,4.2-3.1,5.2-6c0.4-1.1,0.7-2.4,1-3.6
			c0.8-3.7,1.8-10.4-2-11.3C349.3,152.2,347.6,158.8,346.7,162.7z M342.7,170.4c-1.1-2.5-1.3-5.9-0.7-8.9c0.7-3.3,2.3-6.2,4.6-8.1
			c2.1-1.8,4.7-2.5,7-2c2.6,0.6,4.5,2,5.8,4.9c1.2,2.6,1.4,5.9,0.7,9.1c-0.7,3.1-2.5,6.4-4.7,8.1c-2.4,2-4.6,2.4-7.2,1.9
			C345.8,174.8,343.8,173.1,342.7,170.4z"/>
		<path d="M367.3,179.8l0.6-1.6l1.4,0.5c0.2,0.1,0.4,0.2,0.7,0.1c0.1,0,0.2-0.1,0.3-0.1c0.1-0.1,0.1-0.2,0.2-0.3
			c0.2-0.4,0.4-0.9,0.6-1.4l5.6-15.1c0.2-0.6,0.5-1.3,0.1-1.6c-0.3-0.4-0.8-0.5-1.3-0.7l-0.6-0.2l0.6-1.6l15.1,5.6l-2.8,8.1
			l-1.1-0.4c0.7-4.4,0.3-7.2-3.1-8.4c-0.6-0.2-1.3-0.6-2.1-0.3c-0.5,0.2-0.7,0.9-0.8,1.4l-2.3,6.3c2.4,1,3.6-0.1,5.2-2.9l1.2,0.4
			l-3.9,10.6l-1.2-0.4c0.2-0.8,0.4-1.6,0.4-2.4c0-2.1-0.6-3-2.1-3.6l-0.2-0.1l-2.5,6.8c-0.6,1.6-0.7,2,0.5,2.5l1.4,0.6l-0.6,1.6
			L367.3,179.8z"/>
		<path d="M411.1,189.9l1,0.6c-1.2,3.7-1.3,8.3,1.4,10c1.4,0.9,3.6,1,5-1.2c1.2-1.8,0.7-3.2-0.4-4.3l-1.2-1.3
			c-1.3-1.4-2.3-2.6-2.8-4.6c-0.4-1.7,0-3.9,1.1-5.7c2.7-4.2,6.5-4.7,9.5-2.8c1.3,0.8,2.2,2.1,2.6,3.8l2-0.6l0.9,0.6l-4.3,7.4
			l-1-0.7c1.1-3.4,1.2-7.6-1.3-9.2c-1.3-0.8-3.4-0.9-4.6,1.1c-1.3,2-0.2,3.4,0.7,4.5l1.1,1.2c2.4,2.7,4.5,5.7,1.5,10.5
			c-1.2,1.9-2.9,3.3-4.8,3.8c-1.8,0.5-3.4-0.1-4.8-0.9c-1.5-0.9-2.6-2.5-2.9-4.5l-2.4,0.9l-0.9-0.6L411.1,189.9z"/>
		<path d="M435.8,199.5l6-6.5l12.4,10.4l-5.4,7l-0.9-0.8c1.7-2.5,3.5-6.5,1.4-8.3c-0.2-0.2-0.7-0.4-1-0.1c-0.3,0.3-0.6,0.7-0.9,1.1
			L436.7,215c-0.8,0.9-0.9,1.1-0.3,1.8c0.4,0.5,0.9,0.8,1.4,1.2l-1.1,1.3l-7.6-6.3l1.1-1.3c0.6,0.5,1.2,0.8,1.8,1.2
			c0.2,0.1,0.6,0,0.8-0.2c0.3-0.2,0.6-0.6,0.9-0.9l10.3-12.4c0.3-0.4,0.6-0.7,0.9-1.1c0.3-0.4,0-0.8-0.2-1c-2.1-1.8-5.8,0.9-7.9,2.9
			L435.8,199.5z"/>
		<path d="M469.5,218l1.2,1.4l-10.5,18c-1,1.7-1.2,2.2-0.2,3.4l-1.3,1.2l-5.8-6.3l1.3-1.2c0.3,0.3,0.9,1.1,1.4,1
			c0.6-0.1,0.8-0.5,1-1l2-3.3l-4.2-4.6c-0.9,0.5-2,0.8-2.9,1.6c-1.4,1.3-0.8,2.5,0,3.3l-1.3,1.2l-4.7-5.2l1.3-1.2
			c1.5,1.3,4,0.1,6-0.8L469.5,218z M459.8,229.4l4.4-7.3l-7.7,3.6L459.8,229.4z"/>
		<path d="M476.2,240.3l7.5-4.7l9.2,13.3l-7.1,5.3l-0.7-1c2.3-2,5.1-5.3,3.5-7.6c-0.2-0.2-0.6-0.6-1-0.3c-0.4,0.2-0.8,0.5-1.2,0.8
			l-13.6,9.4c-1,0.7-1.2,0.8-0.8,1.7c0.3,0.6,0.7,1,1,1.6l-1.4,1l-5.6-8.1l1.4-1c0.4,0.6,0.9,1.1,1.4,1.7c0.1,0.1,0.6,0.2,0.8,0
			c0.4-0.1,0.8-0.4,1.1-0.6l13.3-9.2c0.4-0.3,0.8-0.5,1.1-0.8c0.4-0.3,0.2-0.8,0-1c-1.6-2.3-5.8-0.7-8.4,0.7L476.2,240.3z"/>
		<path d="M478.6,270.7l1.5-0.8c0.4,0.5,0.7,2.2,1.9,1.9c0.4-0.1,0.7-0.3,1.1-0.5l14.9-7.5c0.2-0.1,0.5-0.2,0.6-0.4
			c0.2-0.2,0.3-0.4,0.3-0.7c-0.1-0.7-0.5-1.3-0.8-1.9l1.5-0.8l7.4,14.7l-7.5,4l-0.6-1.1c3.8-3.1,5-5.1,3.3-8.6
			c-0.3-0.5-0.6-1.1-1.1-1.4c-0.2-0.1-0.5-0.1-0.8-0.1c-0.5,0.1-1.1,0.4-1.5,0.6l-5.5,2.8c0.9,2.3,3,2.5,5.9,1.4l0.6,1.1l-10.1,5.2
			l-0.6-1.2c2.7-1.5,3.9-3.6,2.7-5.7l-6.4,3.2c-1.3,0.6-1.9,0.9-1.5,2.1c0.1,0.4,0.3,0.8,0.5,1.2c1.7,3.4,4.4,3.6,9.1,2.4l0.4,1.1
			l-7.8,3.7L478.6,270.7z"/>
		<path d="M136.2,497.2l0.8,0.9c-2.3,3.1-3.9,7.4-1.8,10c1.1,1.3,3.1,2.1,5.1,0.4c1.7-1.4,1.7-2.8,1-4.2l-0.8-1.7
			c-0.8-1.7-1.4-3.2-1.2-5.3c0.2-1.8,1.2-3.7,2.9-5c3.9-3.2,7.7-2.4,9.9,0.3c1,1.2,1.4,2.7,1.3,4.5l2.1,0l0.7,0.8l-6.4,5.6l-0.8-0.9
			c2.1-2.9,3.5-6.8,1.6-9.1c-1-1.2-2.9-2-4.7-0.5c-1.8,1.5-1.3,3.1-0.7,4.5l0.7,1.4c1.5,3.3,2.5,6.8-1.9,10.4
			c-1.7,1.4-3.8,2.2-5.8,2.1c-1.8-0.1-3.2-1.1-4.2-2.4c-1.1-1.4-1.7-3.2-1.4-5.2l-2.5,0.1l-0.7-0.8L136.2,497.2z"/>
		<path d="M157,512.6l6.4-6.1l11.7,11.1l-5.8,6.7l-0.9-0.8c1.8-2.4,3.9-6.3,1.9-8.2c-0.2-0.2-0.7-0.5-1-0.1c-0.3,0.3-0.7,0.7-1,1
			l-11.4,11.9c-0.8,0.8-1,1.1-0.5,1.8c0.4,0.5,0.9,0.9,1.3,1.3l-1.2,1.3l-7.2-6.8l1.2-1.3c0.5,0.5,1.1,0.9,1.7,1.3
			c0.2,0.1,0.6,0.1,0.8-0.1c0.4-0.2,0.7-0.5,0.9-0.8l11.1-11.7c0.3-0.3,0.7-0.7,0.9-1c0.3-0.4,0-0.8-0.2-1c-2-1.9-5.8,0.5-8.1,2.4
			L157,512.6z"/>
		<path d="M118.8,282.5l0.5-1.1c3.8,0.8,8.4,0.4,9.8-2.5c0.8-1.5,0.6-3.7-1.8-4.8c-2-1-3.3-0.3-4.2,0.8l-1.2,1.4
			c-1.2,1.4-2.3,2.6-4.3,3.3c-1.7,0.6-3.8,0.4-5.7-0.5c-4.5-2.2-5.3-6-3.8-9.1c0.7-1.4,1.8-2.4,3.5-3l-0.8-1.9l0.5-0.9l7.8,3.5
			l-0.5,1.1c-3.5-0.7-7.7-0.4-9,2.3c-0.7,1.4-0.6,3.5,1.6,4.5c2.1,1,3.4-0.1,4.4-1.2l1-1.2c2.4-2.7,5.1-5.1,10.3-2.6
			c2,1,3.6,2.6,4.3,4.4c0.6,1.7,0.3,3.4-0.4,4.8c-0.8,1.6-2.2,2.8-4.1,3.4l1.1,2.3l-0.5,1L118.8,282.5z"/>
		<path d="M137.9,265.1l-1.4-1c0.3-0.6,1.6-1.7,0.7-2.6c-0.2-0.3-0.6-0.5-0.9-0.7l-13.8-9.3c-0.2-0.1-0.4-0.3-0.6-0.3
			c-0.3-0.1-0.5-0.1-0.7,0.1c-0.5,0.4-0.9,1-1.3,1.6l-1.4-1l9.2-13.7l7.1,4.6l-0.7,1c-4.5-1.8-6.9-1.9-9.1,1.4
			c-0.3,0.5-0.6,1-0.7,1.6c0,0.2,0.1,0.5,0.3,0.7c0.3,0.4,0.8,0.7,1.3,1l5.1,3.4c1.6-1.9,0.7-3.9-1.7-5.8l0.7-1l9.5,6.2l-0.7,1.1
			c-2.7-1.7-5-1.6-6.3,0.5l5.9,4c1.2,0.8,1.7,1.2,2.5,0.3c0.3-0.3,0.6-0.7,0.8-1c2.2-3.2,1-5.6-2.4-9.1l0.8-0.9l7,5L137.9,265.1z"/>
		<path d="M146.2,215.2l0.7-0.8l7.1,6.1l-0.7,1c-3.1-1.9-7.5-3.5-9.6-1.2c-0.9,1.1-1.2,2.2-0.7,3.8c0.6,1.7,1.4,2.6,2.6,4
			c0.8,1,1.9,2,2.9,2.8c1.3,1.1,2.6,2.1,4,3c1.3,0.8,2.4,1.3,3.8,1.4c1.4,0,2.3-0.4,3.1-1.3c2.1-2.3,0.9-5.9-1.6-8.8l1.3-0.8
			c3.7,4.6,4.1,8.3,1.1,11.6c-1.7,1.9-3.8,2.7-6.9,2.4c-2.8-0.3-5.6-1.8-7.9-3.9c-2.5-2.3-4.4-5-5-8c-0.6-2.8,0-5.2,1.6-7
			c1.2-1.3,2.2-2,4.1-2.3c0.1,0,0.3,0,0.4,0L146.2,215.2z"/>
		<path d="M169.5,208.2c0.5-0.4,1-0.9,1.5-1.3c1.8-1.6,2.1-3.3-0.1-6c-2-2.4-3.6-2.4-5.3-0.9c-0.4,0.4-1,0.8-1.2,1.3
			c-0.1,0.6,0.4,1.2,0.8,1.7L169.5,208.2z M164.8,198.4l1.4-1.1c1.1-0.9,2.2-1.6,3.9-1.6c1.4,0,3.2,1,4.3,2.3c2.6,3.1,1.6,6-0.2,7.9
			l0,0c1.9-0.8,3.8-0.4,6,1.4l1.6,1.3c0.6,0.5,1.1,1,1.7,1.3c0.1,0.1,0.3,0.1,0.4,0.2c1.4-0.3-0.2-2.4-0.8-3.3l0.9-0.8
			c0.4,0.5,0.8,1,1.1,1.6c1.5,2.4,0.9,4.4-0.7,5.6c-0.8,0.7-1.8,1-3.1,0.7c-1.1-0.3-2.1-1.1-2.9-2l-1.3-1.4c-1.9-2-3.2-3.4-5.1-2.1
			c-0.3,0.2-0.6,0.4-0.9,0.7l-0.6,0.5l4.8,5.7c0.2,0.3,0.5,0.6,0.7,0.8c0.5,0.4,0.8,0.5,1.2,0.2c0.4-0.2,0.7-0.5,1-0.7l0.5-0.4
			l1.1,1.3l-7.4,6.2l-1.1-1.3c0.3-0.3,0.7-0.6,1-0.9c0.9-0.8,0.5-1.2-0.3-2.3l-9.7-11.5c-0.4-0.4-1.4-1.8-1.8-1.9
			c-0.7-0.2-1,0.4-1.5,0.7l-0.6,0.5l-1.1-1.3L164.8,198.4z"/>
		<path d="M194.8,204.8l-0.9-1.5c0.5-0.4,2.1-0.9,1.7-2.1c-0.1-0.4-0.3-0.7-0.5-1l-8.8-14.1c-0.1-0.2-0.3-0.5-0.4-0.6
			c-0.3-0.2-0.4-0.3-0.7-0.2c-0.7,0.2-1.2,0.6-1.8,1l-0.9-1.5l14-8.7l4.6,7.1l-1,0.6c-3.4-3.5-5.5-4.5-8.8-2.5
			c-0.5,0.3-1,0.7-1.3,1.2c-0.1,0.2-0.1,0.5,0,0.8c0.1,0.5,0.5,1,0.8,1.5l3.3,5.2c2.2-1.1,2.2-3.3,0.8-6l1.1-0.7l6.1,9.6l-1.1,0.7
			c-1.7-2.6-3.9-3.5-5.9-2.2l3.8,6c0.8,1.2,1.1,1.8,2.2,1.3c0.4-0.2,0.8-0.4,1.2-0.6c3.3-2,3.2-4.7,1.6-9.3l1.1-0.5l4.4,7.5
			L194.8,204.8z"/>
	</g>
	<g>
		<path d="M323.8,271.3c0.9,3.3-3.7,2.8-2.1,5.6c-3.5-0.3-0.3,3.7-2.8,4.4c-0.7-3-0.2-7.9-0.4-11.4
			C320.3,270.1,323.6,267.6,323.8,271.3z"/>
		<path d="M327.1,293.2c0.2,3.7-2.2,6.3-2.9,10l-1.9-0.7c-1.9,1.6-1,4.6-1.9,6.7l-0.9-0.7l-0.1-17.2
			C321.6,288,326.9,289,327.1,293.2z"/>
		<path d="M339.4,327.5c0,3.3-0.3,6.3-1,9.3c-1.6-1.9-4.9-0.7-5.3-4c-1.4,2.3,2,6.3-1.9,7.2c-2.1-4.7-1.1-11.2-0.6-16.1
			C332.9,319.3,339.2,323.6,339.4,327.5z"/>
		<path d="M306.2,344.7c-0.2,1.4-1.9,2.3-1.9,3.7l2.3,0l-0.7,2.1l1.6,0c-1.2,3.7-4.9,6-8.4,7.1c-0.5-0.9,0.7-1.2,0.9-1.9
			c-1.9,0-3.7,1.6-5.6,2.3c0.2-0.9,0.9-1.9,1.7-2.8c-5.6,2-10.5,7.6-16.6,9.4l0.9-1.9C289.1,357.6,297.3,349.8,306.2,344.7z"/>
		<path d="M441.3,366.2c0.5,1.6,0.4,3.7,0,5.4c-1.4-0.9-0.9-3.7-0.7-5.4L441.3,366.2z"/>
		<path d="M232.8,370.6c-0.5,0.2-0.2,1.4-1.2,0.9l-0.9-4.2C232.6,367.1,232.4,369.5,232.8,370.6z"/>
		<path d="M449.7,391.4c-0.2,0.5-0.5,1.2-1.2,0.9c-0.9-1.9-0.2-4.7-0.4-6.5c-2.3,0.4-5.1,2.3-5.9,4.8c-1.4,0.2-1.2-1.6-1.1-2.6
			c0.3-2.6-0.6-5.8,0.8-7.9c2.1,0.9,2.8-1.6,4.6,0.7l1.4,0.5l1-2.3C450.5,382.5,449.5,387.4,449.7,391.4z"/>
		<path d="M457,381.9c0.4,2.8-1.7,3.9-3.1,5.3l-0.5-0.5c-1.2,0.2-0.3,2.8-2.1,2.1c-0.2-2.6-0.6-6.1,0.3-8.6
			C453.7,379.5,457,378.9,457,381.9z"/>
		<path d="M417.6,385c0.4,2.8-2.3,1.8-3.8,3c-1.4,1.2,0.9,5.4-1.9,4.6c0-4.4-1.8-10.5,2.9-12.8C417.7,378.8,417.8,383.2,417.6,385z"
			/>
		<path d="M438.1,382.2c0.7,2.8-2.4,4.2-2.6,7c-0.9,0.9-2.3,2.1-3.5,2.3c-0.7-3.3-0.9-8.2,0.6-11.2
			C434.4,382.2,436.5,379.2,438.1,382.2z"/>
		<path d="M376.9,383.1c-0.3,2.6-2.8,3-4.2,4.6c0,0.9-0.2,1.6-1,2.3l-0.5,0c0.3-3-1.8-7.5,0.6-9.8
			C373.4,380.7,377.1,379.8,376.9,383.1z"/>
		<path d="M165.9,379.4c-1.2,4.4,0.8,9.6-0.8,14c-1.2-1.4,0.3-4.4-0.2-7c-0.2-1.2,0-2.6-0.4-3.7c-2.6,0.2-0.5,3.5-2.8,3.5
			c-0.5,1.9-2.8,3.9-2.4,6.7c-2.8-3.3-0.4-9.1-0.6-12.6c2.1-0.2,4-0.7,5.8,1C164.8,380.5,164.8,379.3,165.9,379.4z"/>
		<path d="M219.2,383.3c-0.2,1.6-1.4,3-2.4,4.2l-1.6-0.7c-1.4,1.6-0.7,4-1.7,5.6c-0.7-3.3-0.9-6.8-0.8-10.5
			C214.8,380.2,219.7,379.4,219.2,383.3z"/>
		<path d="M230.6,382c-0.9,1.6-0.1,6.3-3.1,5.3c-2.1,0.7-2.8,2.5-3.8,4.4c0.5-4.2-2.7-12.1,4.1-11.4
			C229.3,379.9,230.7,380.9,230.6,382z"/>
		<path d="M174.1,382c-0.5,1.4-1,3.3-1.4,4.9c-3.3,0.7-1.4,4.4-2.6,6.3c-2.1-3.7-0.9-8.4-0.8-12.3
			C171.1,380.1,173.4,379.9,174.1,382z"/>
		<path d="M221,393.1l-0.9-1.2c0.5-4-1.1-7.9,0.3-11.4C221.8,384.3,221.5,388.9,221,393.1z"/>
		<polygon points="208.4,392.8 208,392.8 207.8,380.7 209,382.3 		"/>
		<path d="M185.5,384.4c0.4,4.9-4.2,1.8-5.2,5.8l-0.5,2.8c-1.8-2.1-1.1-7-0.6-10c0.5-1.2,1.6-1.6,2.6-1.6
			C183.6,381.1,185.5,382.6,185.5,384.4z"/>
		<path d="M242.5,383.7c-2.1,1.6-1,3.3-2.1,5.3l-0.7-1.2c-1.2,1.6-3.7,0.9-3.3,3.7c-0.9-2.1-0.2-5.8-0.4-8.2
			C237.6,381.4,241.1,381.2,242.5,383.7z"/>
		<path d="M205,383.7c0.7,3.5-3.1,2.8-3.5,5.6c-0.7,0.7-1.6,0.9-1.6,2.1l-0.5,0c-0.4-3-0.6-6.5,0.3-9.3
			C202,382.2,204.1,381.1,205,383.7z"/>
		<path d="M362.1,390.6c-0.5,2.8-6.8,3.2-4.3,7.6c-1.2,2.3,0.6,7.2-2.9,7.7c-1.6-4-1.8-9.3-2-14.2c0-1.2,0.7-2.3,1.9-2.5
			C357.7,389.6,360.8,388.3,362.1,390.6z"/>
		<path d="M440.3,401.1l-0.8,9.3c-2.6-1.2,0-4.2-1.1-6.3c-1.9,1.6-6.5,0.9-5.6,5.3c-1.8-1.9-0.9-6.3-0.9-9.1c1-2.3,3.3-0.7,4.7-1.4
			l1.6,1.6C437.7,398,441.9,398.5,440.3,401.1z"/>
		<path d="M400.6,410c-0.5,0.2-0.5,0.7-0.9,1.2c-1.4-3.3-0.4-8.2-0.6-12.1l0.5-0.5C401.6,401.2,400.2,406.1,400.6,410z"/>
		<path d="M429.6,398.9c0.7,3,0.6,7.2-0.1,10.5l-0.9,0c-0.2-3.3-0.6-7.5,0.3-10.5L429.6,398.9z"/>
		<path d="M446.3,399.3c0.7,1.2,0.2,3.5,0,4.9c-0.7,0.7-1.6,0.7-2.6,0.7l-0.2-0.2c-1.2,0.7-0.3,3-2.1,3c-0.9-2.1-0.2-4.7-0.4-7
			C442.4,398.3,444.5,399.5,446.3,399.3z"/>
		<path d="M396.7,401.6c0.2,1.9-1.4,3-3.1,3.5c-0.9,1.4,0.9,5.1-1.7,4.9c0.7-3.7-2.9-9.8,2-10.9
			C395.6,397.9,397.4,399.8,396.7,401.6z"/>
		<path d="M457.7,402.2c-0.7,2.8-3.3,4.4-5.2,6.2c0,1.2,0.4,2.3-0.5,2.8l-0.7,0c-0.4-3.5-1.6-8.9,1.3-11.6
			C455,399.1,455.9,401.4,457.7,402.2z"/>
		<path d="M407.4,401.5c-0.3,3.7-5.6,4.6-4,9l-0.5,0.7c-1.8-2.6-0.6-6.8-0.6-10.3C404,400.8,407.5,398,407.4,401.5z"/>
		<path d="M173.4,400.4c-0.7,1.9-0.3,4.7-2.4,5.1c-2.3,1.6,0.7,5.1-2.6,5.6c-0.4-3.7-0.4-7.5,0.1-11.4
			C169.7,398.5,173.5,397.8,173.4,400.4z"/>
		<path d="M204.9,400.4c0,2.1,0.2,6.5-3.1,5.6l-0.9-0.5l-1,3.3c-0.9-1.9-0.4-5.4-0.2-7.7C201.2,399.5,203.3,399.5,204.9,400.4z"/>
		<path d="M218.8,401.7c-0.5,1.4-0.3,3-1.4,3.9l-0.7-0.9c-1.9,0.7-2.6,2.5-3.1,4.2c0,0.5,0,0.7-0.2,0.9c-0.7-3-1.1-6.3-0.4-9.6
			C215.1,399.8,217.5,399.6,218.8,401.7z"/>
		<path d="M230,401.8l-1,4.2c-1.2,0.2-2.8-1.7-4.2,0.4c0.2,0.7-0.3,2.1-0.7,1.4c0-2.3-1.6-6.8,1.5-7.9
			C227.5,399.5,228.9,400.4,230,401.8z"/>
		<path d="M242.6,401.4c0.5,0.5,0.2,1.2,0.2,1.9c-0.9,0.2-0.9-0.2-1.2-0.9c0.2-0.2-0.2-0.5-0.5-0.7l-1.7,4.9
			c-0.5-0.5-0.9-0.5-1.4-0.5c-0.7,0.9-1.6,1.8-1.2,3c-1.8-2.1-1.1-6.3-0.6-8.9C238.4,399.8,241,399.8,242.6,401.4z"/>
		<path d="M330.9,415.7l-1.6,0.7c-15.1-1.8-31.9,0.4-45.9-1.1l0.2-0.5C299.3,415.2,315.8,413.5,330.9,415.7z"/>
		<path d="M395.9,420c-0.9,1.2-2.6,2.5-3.7,1.1c-0.9-2.1,1.4-3.5,3.1-4.2C396.4,417.2,396.1,419.1,395.9,420z"/>
		<path d="M390.5,421.1l-0.7,0.5c-2.1-0.5-0.4-3-0.2-4.4C391.2,417.6,390.7,420,390.5,421.1z"/>
		<path d="M324.9,417.8l-0.9,0.5l-36.8-0.3l1.4-0.7C300.2,416.9,313.5,416.7,324.9,417.8z"/>
		<path d="M152.8,417c-1.2,3.2-5.4,5.1-5,9c-1.8-2.1,0-5.1-0.4-7.9C148.6,416.9,151,415.1,152.8,417z"/>
		<path d="M164,418.5c0.9,1.4-1.2,1.4-1,2.8c-1.4,1.2-4.9-0.5-4,2.8l-0.5,0c-0.5-1.9-0.2-3.3-0.2-5.6
			C159.8,417.5,162.8,416.1,164,418.5z"/>
		<path d="M173,419.2c-0.7,2.1-4,1.6-4.5,3.2c0.2-1.6-0.7-2.6-0.2-4.2C169.6,416.9,172.6,417.1,173,419.2z"/>
		<path d="M324.1,420.8c-10.9-0.1-22.4,0.7-34-0.1C300.9,419.9,313.2,419.1,324.1,420.8z"/>
		<path d="M329.2,423.6c-9.1,1.1-19.8,0.8-28.9,2.1c9.3,1.9,19.6-1.2,27.9,0.7c-13.3,0.1-26.6,1.6-40.1,0.6
			c3.5-0.4,7.5-1.6,11.7-1.1c0.5-0.7-0.9-1.4-1.6-1.2c-7.2,0.9-14.7-0.6-21.9-0.2c8.6-1.6,20,0.2,30-1.1
			C313.9,423.5,321.8,422.4,329.2,423.6z"/>
		<path d="M461.7,422.2c1-3.3-2-6.5-0.6-9.6c-0.4-2.3,0-4.9-0.2-7.5l0.3-2.6c-0.9-7.2,0.1-15.6-0.5-23.8l1.9,0
			c1.9-4.6-1.6-7.7-0.4-12.3c1.2-2.8-2.1-2.6-3.7-3.3l-7.1-8l-17.2-0.2c-1-16.1,0.8-34.9,1.1-50.8l-3-2.4c-1.4,1.2-1.9,3-1.7,4.9
			c0.7,0.7,1.4,1.6,2.5,1.7c-8.2,6.9-24.7-0.2-27.4,13.5c1.6,0.9-0.5,2.8-0.3,4c6.6-7.2,18.2-2.4,26.4-6.1c2,11.9-0.7,22.1-0.3,34.9
			c-20.7,1.2-41.7,0.6-62.2,0.9c-0.9-0.9-0.2-2.6-0.4-4c0.9-0.7,4.2,1,4.4-1.4l-6.3-0.8c1.2-0.9,5.3,1.7,6.5-1.1
			c-0.9-2.1,0-4.7-0.6-7.2c-8.4-1-17.5-0.9-26.1-0.5l-1-21c2.3-1.6,2.1-4.2,3.3-6.3c-2.1-2.1-5.3-1.2-8.4-1.2l-0.8-19.6
			c0.9-1.2,4-2.1,3.8-4.2l-16.2-6.4c0-1.2-0.2-4.9,2.4-3.5c-1.6-2.3,3-2.8,1-5.8c-0.9-1.4-2.5-1.9-3.7-1.7c-2.8,2.3-0.8,6.5-1.9,9.5
			c-2.8-1-5.1,1.4-7.7,2c-2.1-1.4-5.1-1.4-6.7-3.3c0-2.6,3.5-2.1,2.8-5.1c1.4-0.7,3.5-2.8,2.4-4.9c-1.6-2.6-4-0.7-6-2.4
			c-1.9,3.7,0.4,8.2-0.8,12.3c-6.5-0.1-11.2,7.4-17.7,2.2c-0.4-3.3,2.6-4.9,4.5-6.2l-2.3,0c1.9-1.4,3.3-0.7,4.5-3
			c0-1.9-0.4-3.7-2.1-5.1l7.3-0.5c-5.1,1-1.2,8.4-2.5,12.2c0.5,0.7,0.9,0.7,1.6,0.2c-1.6-3.5,2.4-3,4-4.2l-1.6-1.2
			c2.1-0.2,4.2-3,3.1-5.8l-0.7-0.9c8.4-0.9,18.4,2,26.5,4.7c0.2,4-0.5,9.1,0.6,13c3.7-0.7-0.6-7.2,4-6.7c1.9-1.8,1.2-4.2,0.5-6.3
			c-4.4-2.8-4.4-8-5-12.6c-2.2-10.3-9.6-20.6-19.6-26c-1.6-3.5,1.7-12.8-4.8-10.8c-1.6-0.5-5.8,0.2-4.6-3.3c0-0.7,0.2-1.2,0.7-1.4
			c2.6-0.9,1.6,8.2,3.5,2.1c-1.4-3.3,1.7-5.6,0.8-8.8c-2.5-3-4.8-4.9-6.7-8.2c-4.4,0.2-0.5,7-5.6,6.5c-1.6,1.6-2.4,4.9-1,7
			c2.8,1.9,0.7,4.9,1.8,7c-4.7-0.5-0.5,6-3.8,7.7l0,2.3c-11.3,9.4-19.7,21.3-20.1,35.9c-3,0.9-3.8,3.2-2.8,5.8
			c0.7,0.9,2.3,1,2.8,1.9c-0.5,4.4,2.7,11.7-4.3,13c-0.2,0.5-0.9,0.9-0.7,1.6l2.1,1.6c1.1,6.8,1,14,1,21.2c-2.6,0.9-5.6,0.2-7.9,1.6
			c2.7,7.5,2.6,16.8,2.1,24.7c-7.5,0.9-15.6,0.3-23.1,0.3c-1.4,2.3-0.5,5.1-0.8,7.7c3.2,3.5,2.5,10,2.7,15.6c-1.2,1.2-2.8,0-4,0
			c-3.3,0-6.8,3-9.3,0.2c-3.3,0.4-8.2,1.3-10.9-1.3c-4.7,2.8-8.8-0.5-14,1.7c-2.1-0.7-4.6-1.4-6.5,0.4c1.1,1.9,4.2,0.7,3,4
			c-3.5-1.7-5.5-7.5-10.4-7.3c-3.5-0.5-5.9,7.2-9.1,2.2c-2.6,0.2-6.1,3.2-7.2,0.9c-2.5-3.3-5.1,2.7-8.2,0.2c0.5-0.9-0.7-1.4-1.4-1.6
			c-1.6,0-3.3,0-4,1.1c0.7,0.9,2.1,0,3.3,0.3c-1.7,2.8,2.3,3.7,0.9,6.8l-6.1-0.3c0.7-2.1-1.8-5.1,1-5.3c0.7,1.6-0.7,4,0.9,5.4
			c1.2-1.4,1.2-3.7,1.2-5.6c-2.8-1.4-6.5-0.8-9.1-2.6c-2.1,0.9-5.4,0.4-7.7,0.2l5.6-4.1l82.2-0.4c2.1-0.9,6.5,0.8,8.4-1.3l-1.8-1.6
			c-28.7,1.6-59.4,0.6-88.5,1.1c-2.6,2.3-5.9,3.9-7.5,6.7c-1.9-1.4-3.7-0.7-6-0.5c-1.6,1.1,1.1,1.9,0.7,3.3
			c-0.5,1.9,1.1,5.4-1.4,5.6c-0.9,1.4-0.7,3.5-0.3,5.1l0.9,1.2c1.1-0.1,2.2-0.2,3.3-0.3l-1.2,1.2l-0.2,24.9l0,3.7l0,22.4
			c-0.2,0.2-0.9,0.2-0.7,0.5l1.1,4c3.1-0.1,4.9,4.1,9.6,3c1.4-0.2,3.5-0.4,3.7-2.1c2.3,0.3,4.2-0.9,6.3,0.1
			c-0.5,0.5-1.4,1.4-0.2,1.9l10.5,0.6c0.9-0.5,1-2.3,0.5-2.8c8.1,1,16.1-1.7,22.8,1.6c4-0.2,7.5-2.7,11-1.8c1.4-1.2,4-1.1,6.3-1.1
			c-0.5,0.2-0.5,0.9,0,1.2c0.4,0.2,0.9,0.6,1.5,0.5c-5.8,1-12.3-0.1-17.6,2.1c7,2.2,14.9-1.3,22.1,0l0.5-0.7l-3.7-1l15.6-0.3
			c-0.5,1.4,1.4,1.2,2.6,1.2c2.3,0,4.2-0.9,6.5-1.1c-2.4,2.5-5.2,3.9-8.6,3.9l-1.2,1.2l1.2,1.2c0.5,0.2-1.2,0.9-0.7,1.6
			c4.4-1.1,8.2-6,12.9-8l-2.1-1.4c0.9-0.2,1.6-0.7,2.6-0.4c1.2,0.7-1.2,2.8,0.9,4c2.1-5.8,9.6-1.5,13.8-3.8c-2.1-2.1-5.6,0.2-8.1-1
			c1.9-2.5,5.6,0.5,8.2-1.3c-2.6-1-6-1.5-8.8-1.7c-1.4,0.7-0.7,3.5-2.8,3c0.3-2.1,0.9-1.4,1.9-3c-1.2-24.9-0.5-51-1.2-77.8
			c1.2,24.9,1.7,49.8,1.9,75c0.5,0.7,1.4,0.7,1.6,0.2c1.4-1.6,1.4-0.9,2.8-0.2c4.4-0.9,10.2-0.4,15.4-0.3c2.4-4.6,6.1-7.9,8.5-11.8
			c-0.4-2.1-1.9-0.5-3.2-1.4c1.2-0.2,2.6-1.4,2.6-3c0.2-1.4-1.6-2.1-2.1-2.8l0.1-15.8c1.4,0,5.3,1,4.2-2.3l0-0.5l2.3-0.4l0.1,19.3
			c-1.4,0.9-3,1.4-3.1,3.5c1.1,3,5.8,1,8.1,1.7c1.6-1.8,2.6-3.9,0.3-5.6c-0.9-6.3-0.3-14.4-0.3-19.6c1.8,1.9,3.5-0.4,3.7-2.1
			l2.8,2.1l0.3,19.3c-1.2,1.2-3.3,1.6-4,3.7c0.2,0.9,0.4,2.1,1.6,2.1c3.3-0.4,7.9,1.5,8.9-2.7c0-1.2-0.7-2.1-1.8-2.6
			c1-5.6-3.4-13.8,2.9-17c1.6-0.5,3-1.4,4.7-1.6c0.6,5.8,0.1,12.1,0.3,18.4c-2.8,0.2-2.6,2.5-3.8,4.4c2.3,1.2,5.6,1.2,8.1,1.2
			c2.3-0.2,1.9-2.3,2.8-3.9l-2.3-2.6l0.2-17.2c0.9,0.5,2.5,1.4,3.5,0c9.8,1.2,4.5,12.6,5.9,18.2c-1.4,0.7-4.4,0.2-4,3
			c0.7,4.2,5.8,1.2,8.4,2.6c1.9-1.4,4.2-2.3,3.8-4.9l-2.5-1.4l-0.1-19.1c0.7-0.2,2.3,3.5,4.2,1.4c0.5,0.5,1.2,0.9,1.9,0.7l1.6-1.8
			l0.8,19.3c-2.1,0.2-2.8,2.3-2.6,4.2c0.5,0.5,1.2,0.9,2.1,0.9c-0.7,0.7-0.3,1.9-0.5,2.6c0.7,1.4,3.7,1.9,2.3,3.7
			c3.3-0.9,3,2.4,4.6,4c3,7.2,12.8,1,18.8,4.4c0.2,1.6,2.3,3,4.4,2.4c-0.9,1.4-3.5-0.3-4.4,1.4c2.6,0.3,5.6,0.5,8.1,2.2
			c-0.2,0.9-1.2,1.9,0.2,2.6c3.7-1.6-0.4-4.2,3.3-6c3.5-1.4,7.7,2.9,9.8-1.8c1.6,1.2,3,3.8,5.3,3.3c3.9-3.8,9.5-1.5,14.5-2.8
			c-0.1,0.1-0.1,0.1-0.3,0.1l0,0.7c9.3,1.5,20.3-1,29.1-2.1c1.4,0.9,2.5,1.9,3.7,2.8c-0.7,0.2-0.3,2.1,0.9,2.1
			c5.4-1.6,13.5,2.4,15.2-3.4c1.6,0,3,0.3,4-1.4c5.8-1.3,11.4,0.8,16.8-1.5c1.2-0.2,2.8,1,3-0.9
			C471.8,421.1,465.7,423.4,461.7,422.2z M411.2,320.5c-0.9,0.2-1.6,0.5-2.6,0.7c0.7-2.3,1.9-6,5.2-5.8c-1.2,0.9-2.6,1.8-3.5,3
			c2.1,1,3-1.8,5.1-1.6c-0.5,0.7-1.6,1.2-1.7,2.3l6.1-0.6C417.5,320.1,413.8,318.9,411.2,320.5z M431.2,318.6
			c-1.4,0.7-3.3,1.1-4.9,0.7c0.7-0.7,1.9,0,2.6-0.9c-1.4-1.9-4.6-1-6.5-1c0.2,0,0.2-0.5,0.2-0.7c-1.9,0-2.1-2.6-3.2-2.6
			c1.6-0.2,3.3-0.7,4.9-0.4c-0.2,0.9,0.7,2.3,1.4,3.3l5.4-1.1C431.5,316.5,431.2,317.6,431.2,318.6z M226.1,367.3
			c2.3,0.3,6.1-2.7,7,0.8c3.7-1.4,8.4-2.5,12.4-1.5l-0.5,5.1c-0.7-1.4-0.7-4-2.8-4.4c-1.2,1.4,0,3,0,4.4l-0.9,0
			c0.2-1.2,0.7-3.5-0.7-4.4c-1.4,0.9-0.5,3-0.7,4.4l-1.9,0c-0.2-1.4,0.7-3.5-0.7-4.4c-1.6,0.9-0.7,3-1,4.4c-2.6-0.5-9.1,2.7-7.7-3.1
			c0-0.5-0.7-0.7-0.9-1.2c-1.2,0.2-0.9,1.4-1.2,2.3C226.1,368.9,225.9,368.2,226.1,367.3z M209.6,366.5l1.6,5.4h0
			c1.6-1.4,0.3-3.5,0.7-5.3c0.9,0.5,1.6,0.4,2.3,0.2c0.1-0.1,0.3-0.2,0.5-0.2c1-0.4,2-0.9,3.2,0.1c3.3-3.9,7.4,1.7,5.3,5.4l-4.9,0
			c-0.2-1.9,0.3-3.5-0.9-5.1l-1.4,1.2c-0.5-0.5-0.5-1.2-0.9-1.4c-0.2-0.1-0.3-0.1-0.4-0.1c-0.2,0.1-0.4,0.2-0.5,0.2
			c-0.4,0.4-0.5,1.1-0.7,1.5l0.4,3.7l-2.8,0c0,0,0,0,0,0l0,0l-2.6,0C208.6,369.7,209.6,368.3,209.6,366.5z M205.9,366.9
			c2.1,0.7,0.7,4,1.4,5.1c-0.5,0-0.9,0-1.4-0.7C206.5,369.7,206.1,368.8,205.9,366.9z M244.9,377.7c0.7,4.4,1.1,10.5,0.8,15.6
			c-3.5,0.9-7.2,0.2-11.2,0.4c-1.8-4.2,0.3-9.1-1.5-13.3l-0.9,0.7l-0.1,12.3c-10.7,0.8-23.1,0.3-33.5,0.2l-0.6-15.4L244.9,377.7z
			 M193.7,368c0.7-0.2,1.2,0.5,1.6,0.9c-2.3,0.7-4.9,1.8-6.3,4.1c2.5,1.4,4.7-3.7,7,0.3c-2.6,0.9-6.5,0.2-9.8,0.4
			C188.1,371.2,191.6,371.2,193.7,368z M184.7,367.6c-0.5,0.2-0.9,1.4-1.6,1.1C182.6,366.9,184,365.1,184.7,367.6z M180.2,367.4
			l0.9,0l0,3.3C180.7,369.9,179.5,368.5,180.2,367.4z M177.4,368.3c0.2,0.9,0.9,3.5-0.5,3.7c-0.7-0.7-0.2-1.9-0.4-2.8L177.4,368.3z
			 M174.4,366.2c0.2,0,0.7,0,0.7,0.2l0,0.9l-0.5,0l-0.3,4.7l-1.4,0C173.5,370.1,170.7,366.1,174.4,366.2z M170,366.6l0.9,0.2
			l-0.7,5.1C169.3,370.8,169.5,368.2,170,366.6z M159.1,367.2l0.5,0l0.7,4.4l-1.2,0C159,370,157.9,368.3,159.1,367.2z M153.4,370.2
			c1.6-1.2,0.3-4.7,2.1-5.1c-0.2,1.4,0.4,3.7,1.8,3l0.2,3.5c-1.6,0.5-3.5,0.2-5.1,0.2l-0.2-6.5C153.5,366.4,152.3,368.8,153.4,370.2
			z M145.8,365l5.3,0.7l-0.3,5.8l-1.2,0l-0.4-4.4c-1.2,0.2-0.5,3-1.2,4.4l-0.5,0c-0.7-1.6,0-3.5-0.9-4.9c-1.4,1.4,0.2,4.2-1.4,5.1
			L145.8,365z M143.5,365.2c1.1,1.6-0.3,3.7,0.4,6.1l-1.4,0C142,368.9,144.9,367.5,143.5,365.2z M146.5,388.3
			c1.4,1.6,0.2,3.7,0.4,5.4C146,392.5,146.7,389.9,146.5,388.3z M146.6,404.3c0.2,2.1-0.5,4.4,0.6,6.1c3.5-0.9,0.5-6,4.7-6.2
			c0.9-1.9,1-4.9,0.1-6.3c0.7-0.5,2.1-0.4,2.8,0c-1,4.2-1,9.3-0.1,13.5l-10.7-0.1l0-1.9c0.5,0.5,1.4,0.5,1.9-0.2L146.6,404.3z
			 M145.9,429l0.6-14.9c2.5,0,4.7-0.6,6.9-0.2c0.1,0,0.2,0,0.3,0c-0.1,0-0.2,0-0.3,0c-0.5,0-0.8,0.5-1.3,0.7
			c-0.5,1.2,0.9,1.4,1.6,1.6c0.4,2.8-0.5,5.1-0.3,8.1L145.9,429z M151.8,427.7c1.7-3,2.8,1,4.4,1.4c1.9,0.5,3.7-2.1,4.9,0
			C158.3,431.7,155,427.7,151.8,427.7z M169,429c0.5-1.4,1.7-2.8,2.8-3c1.2,0.2,0.4,2.1,1.8,2.3l1.6-1.6c0,0,0-0.1,0-0.1
			c-1.2-2.3-4.1-2.9-6.2-1.8c-2.8,1.1-3.1,5.6-6.6,3.9l-0.4-2.8c-2.3-1-5.6,3-6-1.2c-0.2-2.8,0.8-6-0.9-8.2c2.6-0.4,7-0.2,9.8-0.1
			c0,2.8-1,6.7,0.9,9.1c1.2-2.8,0.1-5.8,0.1-9.1l9.8,0.1c0.8,3.6-1.4,7-0.4,10.1c0,0,0,0.1,0.1,0.1l0,0c0.2,0.5,0.4,0.9,0.7,1.4
			C174.1,430,171.3,430.2,169,429z M156.4,409.5c0.7,0.5,1.6,1.4,2.3,0.3c1.2-1.4-0.4-5.8,2.6-4.9c2.1-0.7,1.7-3.5,2.4-5.1L163,398
			l1.4,0c0.2,4.4-0.5,9.3,0.3,13.5c-2.6,0.7-5.8,0.2-8.6,0.4l0.1-14l4,0C153.4,399,158.3,405.1,156.4,409.5z M175.8,398.8
			c-1.7,4.4,0.9,8.4-0.1,13.3l-9.5-0.1c-1.4-4.7,0.5-9.3-0.3-14l0.5-0.5l19.3,0.2c0.7,4.7-0.1,10,0.3,14.4l-7-0.1
			c-0.2-1.2,1.9-1.4,1.9-2.5c-2.3-5.4,4.9-3.2,3.6-8.4c0-1.2-1.4-1.6-2.1-2.1c-5.3-1-3.8,5.3-5,8.1c-0.7-2.8-0.2-6.1-1.1-8.6
			L175.8,398.8z M178.8,427.9c-0.7-0.2-0.9,0.5-1.6,0.2c0.2-0.2-0.4-1.9,0.9-1.6C178.6,426.7,179,427.2,178.8,427.9z M181.4,427
			l-0.7,0c0.2-1.9-0.7-3.5,0.5-5.6c0.7,0,1.6,0.5,1.9-0.5c0.5-1.9-1.4-3-2.8-3.7l-2.8,1.1c-0.5-0.5,0-1.2-0.2-1.9
			c3-0.2,6.1-0.6,9.1,0.1c-0.7,2.1,1.3,7.2-2.9,7.2C182.3,425.1,184.4,427.7,181.4,427z M187.2,428c-0.7-0.5-1.4-0.7-1.9-1.4
			C186.3,425.2,187.9,426.6,187.2,428z M187.1,378.8c-1.9,4.2,0.1,10-1.1,14.7c-2.6,0.7-5.6,0.2-8.6,0.4c-1.1-4.9,1.5-10.2-1-14.7
			c-2.8,3.9-0.6,9.8-0.8,14.2l-19.1,0.5l-0.1-13.7c-0.5-0.2-0.7-0.7-1.4-0.5c-0.5,4.2-0.3,9.1-0.4,13.5c-1.2,0.9-3,0.7-4.2,0.4
			c-3.2-6.5,6.1-7.4,2.9-13.7c-1.6-1.9-3.2-1.2-5.3-1l-1.2,3c-0.7-0.7,0.5-2.8-1.1-3.5l-1.6,0.2c0.2-0.4-0.1-0.5-0.4-0.8
			c17.1-1.2,34.6,0.6,51.6,0.1c1.6,4.7-0.1,10.7,1.3,15.6c-2.3,0.4-5.1,0.4-7.2-0.1c0.5-1.6-0.2-5.8,3.5-4.6
			c0.7-1.6,1.2-3.7,0.7-5.6c-1.1-3.3-4-0.5-5.1-0.3C187.3,381.9,188.8,379.8,187.1,378.8z M188,410.7l1.4,0.2c0.5-0.9,0-2.6,0.5-3.5
			l0.7,0c-0.2,1.2,0,2.1,0.9,2.3c1-3,4.2-5.3,2.6-8.8c-0.9-1.6-3.2-1.4-4.4-0.7c-0.5,0.5-1.4,0.5-1.4,1.2l0,0.9
			c-0.2-1.4-0.7-2.6-0.4-4c2.6-1.1,5.6-0.4,8.6-0.6c0.7,4.9-1.7,10,0.6,14l0.7-0.2c1-4.4,0.3-8.8,0.6-13.7
			c16.8,0.6,30.7-0.2,47.3,0.2c0,5.4,0.8,11,0.1,16.3l-0.5,0c0-0.9,0-1.9-0.9-2.3c-4-0.7-8.4,1.6-11.2-0.8c0.3-3.7,1.2-7.2-0.6-10.5
			c-1.7,3.2-0.8,7.4-1,11.2l-10,0.1c0-4.4,1.7-9.3-1.3-12.8c-1.2,4.4-0.5,8.6-0.8,12.8l-10.7-0.1c0.3-3.7,2.2-9.3-0.6-12.8l-0.5,0.2
			c-1.4,4.2,0.2,8.4-0.3,12.6l-19.6-0.2C187.5,411.4,188.2,411.2,188,410.7z M193.4,429.9c-1.4,0.7-3.3,0.4-4.2-0.7
			c1.2-2.6,0.3-4.7,1.7-7.2c1.2,0.2,3,0,3-1.8c0.5-1.4-0.7-2.1-1.6-3c-1.9,0.9-5.3-0.7-4.2,2.8l0,2.8l-0.4-6.3l8.4,0.1
			C195.1,421.3,200.4,427.4,193.4,429.9z M208.1,426.8l-0.2-0.2c0.7-1.4,2.6-2.1,4.2-2.5c1.9,0,1.6,2.8,3.7,2.4
			C213.7,426.8,210.4,429.3,208.1,426.8z M218.7,421.7l-5.4,0.4c0,0,0,0,0,0.1c0,0,0,0,0-0.1l-3.7,0.3c-1.6-1.9,2.6-5.6-1.8-5.1
			c-1.9,2.3,1.8,8.6-3.3,7.7c-1.2,0.2-2.6-0.5-2.3-1.9c-0.2-2.3,4.2-1.8,2.4-4.9c-1.2-1.2-2.8-1.2-4.6-1.2c-1.6,1.8-0.1,6.3-1.5,7
			l-0.2-7.2c5.1-0.4,9.8-0.1,14.7-0.1c0,1.8-0.5,3.9,0.4,5.5l0,0c0.1-2.2,7.7,0.1,4.5-4.1c-0.9-1.2-2.3-1.7-3.5-1l0-0.5
			c1.9-0.2,5.6-1.3,6,1C219.8,418.9,220.5,421.5,218.7,421.7z M227.2,427.9c-1.6,0.2-2.6-0.7-4.2-0.5c0.9-0.5,4.2-3.5,4.2-0.4
			L227.2,427.9z M233.7,427c-0.5,0.9-1.4,0.5-2.1,0.5c0.2-1.6,1.6-2.1,2.6-3.2C235.6,425.1,233.8,426.1,233.7,427z M245.9,427.3
			c-0.9,0.2-1.6-0.9-3-0.5c-0.2-1.6,2.1-0.9,3-1.1L245.9,427.3z M245.9,424.5c-3.5-0.5-6.5,0.6-9.1,2.5c0.9-1.6-0.2-4.4,2.1-5.1
			c0.9,0,2.3,1.6,2.3-0.2c-0.2-1.9,3.1-3.9-0.4-4.9c-2.3-0.5-4.2,0.7-5.1,2.3l0,3.7c-1.6,0.5-2.8-0.7-2.3-2.3c0.2-1.4,1.2-3-0.7-3.5
			c-1.9,3,0.4,7.9-3.6,10.2l0.5-1.6c0.5,0,0.7-0.5,0.9-0.9c-1.2-0.9-3.2-1.7-4.9-1.4c1.6-1.8,6.3-1.6,4.5-5.1
			c-1.4-2.1-3.9-1.4-5.4-0.5c-0.5,0.2-0.5-0.5-0.7,0c-1.4,2.3,1.6,7.5-2.6,7.4l0.3-8.8c8.1,0.1,16.5,0.1,24.2,0.2
			C246.4,418.9,246.4,422,245.9,424.5z M358.8,349.4c-9.3,0.4-19.3-0.4-27.5,0.2C340.1,349,350.2,348.6,358.8,349.4z M276,338.4
			l0.9,0.9c0.5-1.6,0-3.3,1-4.6c0.9,1.2,0,3.3,0.7,4.7c1.2-1.2-0.2-4.9,2.4-4.4c0.5-3.7,3.6-7.2,2-10.9c-1.4-2.3-4.4-2.1-6.3-1.7
			l-2.8,3.2c-0.7-0.9-2.3-1.4-1.8-2.8c6.7,0.8,10.8-5,16.4-7.1c4.4,1,8.6,5.2,13.5,2.9c-0.3,4.9-1.3,11.9,0.6,16.5
			c2.8-1.4-0.7-5.4,2.2-7c2.1,0.7,4.9,1,6.5-0.6c-0.2-0.9-1.9,0-2.8-0.7l0-1.6l2.3,1.4c2.1-2.1,3.1-5.3,1.5-8.1
			c5.1,4.5,8.9-2.3,13.8-2.4c4.9,2.6,9.7,5,15.3,5.7c1.3,6.3,0.8,12.1,1.2,18.6c-7.2,0.2-15.6,1.7-22.4-0.2c1.4-1.9-0.9-5.1,1.9-5.6
			l0.7-4.4c0.7,0.2,2.3,0.7,2.3-1.1c0.9,0.9,1.1,2.3,1.4,3.7c3.3-1.8,1.5-6.3,2.4-9.5c-0.2-2.3-2.5-4.4-4.6-4.9
			c-10.5,0.8-3.4,13-5.5,20c-4-0.7-6.9-10.1-12.5-5.2c-4.7,2.5-7.8,8.8-14,7.6l0.1-7c1.9-0.4,0.9,2.3,1.8,3.3c1.2-0.9,0-3.7,2.1-4.2
			c0.5-1.4-2.1-0.7-1.1-2.6c4.2-0.7,1.5-6.3,1.5-9.1c-0.9-1.4-2.1-4-4.2-2.8c-9.6,2.9-2.9,14.4-5.1,22.1c-3.5,0.9-7.5,0.2-11.4,0.4
			C276.2,340.3,276,339.3,276,338.4z M279.5,333.8l0-2.8c0.5,0.7,1.2,1.6,0.7,2.8L279.5,333.8z M272.7,337.7l0.9-0.2
			c-0.2,1.2,1.4,3.3-0.5,3.5c-1.6,0.7-1.6-1.4-1.6-2.6l0.7-5.6C272.5,334.6,271.6,336,272.7,337.7z M304.5,327l0.2-1.6
			c0,0.5,0.7,0.9,0.7,1.4C305.4,327.2,304.7,327,304.5,327z M306.2,316.1c1.2-0.7,2.6-1.1,3.1-2.8c2.8,1,4.6,4.2,7.9,4.5
			c-3.5,0.7-5.3-3.1-8.4-3.3C307.8,316.1,308.3,316.3,306.2,316.1z M290.9,339.7c-0.2,0.7-0.7,1.2-1.4,0.9c-0.2-3-0.9-7,0.6-9.8
			l0.9,1.2l-1.4,0.9C291.1,333.9,290.9,337.4,290.9,339.7z M308.5,341c0.2-0.7,0.2-1.4,0.9-1.9l-1.6-1.2c0.7-1.2,1.9-2.8,0.7-3.7
			c2.8-0.7,4.4,2.4,6,4c-0.9-0.2-1.6-0.5-2.6-1c-0.2,0.9,0.9,2.1,1.6,2.8c-0.7,0-1.4-0.7-2.1-0.7l0.5,1.9
			c9.9,10.3,20.1,18.1,30.5,27.7c-23.1,1.2-47.7-2-70.6-0.4C283,359.2,296.6,351.2,308.5,341z M342.7,318.7c-1.2,1.9-4.9,0.9-6-0.8
			L342.7,318.7z M313.3,298.9c2.6,0.5,0.7-2.8,2.6-3.7l-1.8-5.4c4.2,0.7,6.3-3,9.8-3.6c4.4,2.4,12.3,3.6,11.8,10.1l0.1,16.8
			c-2.6-1.2-8.1-2.2-5.8-6.8c1.4,0,2.6-2.5,2.6-4.4l1.6,0c-0.4-2.8,2.4-5.6-0.2-7.9c-1.2-1.4-3.7-1.4-5.1-0.5
			c-0.7,0.2-1.2,0.7-1.4,1.4c0.9,4.2,0.6,9.6,0.1,14c-4.9-0.7-8.2,6.9-12.8,2.7c-2.1-2.3-8.6-1.9-6-7c1.2,0.5,0.9-0.9,1.4-1.4l3-1.6
			C312.2,301,312.4,299.6,313.3,298.9z M295.7,289.7c-6.1,3.2-3.8,12.5-3.2,18.1c0.9,0.7,2.8,1.4,2.8-0.4c-1.1-2.1,1.2-2.8,1-5.1
			c5.1,0.7,3.1-4.4,5.2-6.9c-0.2-2.1-0.2-4.4-2-5.8l7-4.6c-0.2,1.4,2.5,1.7,3.9,2.8c-7.7,3.4-2.2,13.7-3.9,20.9
			c-5,7.4-12.4,1.3-19.1,0.5l-5.8,2.5c0.5-1.4-0.4-3-0.2-4.9c1.9-0.2,2.8-2.8,5.2-3.4l0-0.2l-2.8,0.2l1.9-2.8l0.9,0.7
			c1.2-2.6,3.3-6.3,1.5-9.3c-1.1-2.1-3.7-2.1-5.1-1.2c-6.8,3.4-3.8,12.8-3.9,19.1c-0.2,1.4,2.3,3.3-0.5,3.5l-0.9,0l-0.5-20
			C283.1,291.7,289.3,283.3,295.7,289.7z M280,271.4l2.6-0.4c-5.4,2.3-2.9,8.6-3.6,13c-0.7,0.7-1.4,1.4-2.6,1.1
			C277.6,280.7,275.1,273.9,280,271.4z M290,280.8c-3-0.7-4.9,0.9-7.2,1.6c-1.4-2.1,2.6-2.5,1.7-5.3c2.6-0.4,2.4-3,2.4-5.1
			c-0.7-1.4-2.1-2.3-3.5-1.4c1-3.3,6.5-0.9,9.3-2.2C287,270.3,291.2,276.4,290,280.8z M287.7,251c1.1,1.6,4.4,1.4,5.4,0.3l-2.4,12.8
			c-2.3,0.2-4.4-0.7-6.3,0.9C283.9,260,286,255.4,287.7,251z M319.5,261.9l-2.2-11.4c0.9,0,3.7,0.7,4-1.4c3.9,4,4.6,9.6,5.7,14.7
			C324.6,263.6,320.9,263.1,319.5,261.9z M328.9,251.8c2.5,4.4,3.4,9.6,4.5,14.9c-6-1.2-4.1-9.1-6.9-13.3
			C326.8,252.5,328.4,252.9,328.9,251.8z M327,248.7c-7.2-1.5-8.7-12.4-16.9-14.8C318.3,234.5,323.1,242.6,327,248.7z M319.2,245.2
			c-1.2-0.5-2.8-1.4-3.7-0.3l-6-9.6C313.9,237,316.9,241.4,319.2,245.2z M312.2,243c-2.1-0.7-4.9-0.5-5.6,1.8
			c-0.9,1.9,0.2,3.5,0.9,4.9c1.9-0.2,3.2,2.6,5.1,0.7l1.4-2.1c2.1,3,2.3,8.6,3.6,13.1c-2.6,4.6-6.7-1-10.5,1.1l-1.2-0.2l-0.2-27.5
			C309,236,310.8,240,312.2,243z M303.9,235.3l-0.5,9.3c-0.7-1.6-2.5-2.6-4.2-1.7c-1.4,1.6-2.8,3.5-1.9,5.8c1.1,2.6,3.7,0.7,5.4,0.3
			l0.2-0.2c1.6,2.6,0.4,8.4-0.1,12.3c-2.3,2.3-7,2.7-10.3,2C294.4,253.1,295.4,241.7,303.9,235.3z M299.7,235.9l-5.2,10.9
			c-0.2-1.2-3-2.1-4.2-0.7C292.2,242.1,295.5,237.7,299.7,235.9z M296,235.7c-4.5,3.7-8.5,9.5-10.8,15.3c-0.9-0.7-2.1-1.4-3.3-0.7
			C284.5,244.4,290.6,238.4,296,235.7z M279.3,254.6c0.9,1.4,3.3,1,4.2,0.5c-1,3.3-1.7,7.2-1.5,10.7l-5.6,1.3
			C276.4,263,277.8,258.6,279.3,254.6z M285.3,315.1l2.5-1.7C287,314,286.2,314.5,285.3,315.1l-6.6,4.5l-9.8,1.3l-0.7-0.9
			C274,319.4,280.1,318.2,285.3,315.1z M271.7,349.3l4.9,0.3l-15.6,0.3L271.7,349.3z M268.7,422.2L268,424
			c-4.4,0.9-8.6-0.3-13.3,0.1c-1.1-2.1-0.4-4.9-0.6-7.2C258.5,418.1,272.5,410.8,268.7,422.2z M266.5,388.1c1.9-0.5,4.4-0.9,4.7-3.2
			c0.9,7.2,0.6,15.8,0,23.8c-1.4,1.9-3,0.2-4.7,0C266.1,401.9,266.4,394.9,266.5,388.1z M272.4,413.3l-4.3,0l1.6-1.8
			C270.1,412.1,271.2,413.2,272.4,413.3l0.6,0C272.8,413.4,272.6,413.4,272.4,413.3z M298.3,391.5l0-5.6c1.2,0,1.8,1.9,2.8,2.8
			L298.3,391.5z M256.1,374.3c-0.7-0.9-1.4-0.2-2.1,0.2c-0.7,3.7-1.7,9.1,0.6,12.1c2.3-0.9,2.4-3.9,5.2-4.1c0.2-0.7,1.2-1.4,1.6-1.8
			l-0.1,11.9c-2.1-0.7-4.6-2.4-6.7-0.5c-0.3,5.8-2,12.1,0.3,17.2c3.5-0.2,1-4.9,2.2-7c1.9-2.1,1.7-4.9,4.5-6c0.4,4,0.4,7.9-0.1,12.3
			c-1.4,0.5-3.3-0.3-4.2,1.6l0.7,3.3l-5.4,0c-1-19.8-1-41-1.3-60.8c0.7-1.4,2.8-1.1,4.4-1.1c0,4.2-0.3,9.5,0.1,14.2
			c2.3-1.6,2.6-4.6,4-6.7c2.1,0,1.9-3.5,4-3c-0.4-2.6,5.4-1.6,1.7-4.2c2.3-0.4,5.6-0.2,7.7-0.2c-0.7,0.5-3-0.3-3,1.4l0.2,7.7
			l-11.3,10.8c-0.2,1.2,0.9,2.8,2.3,2.6l83.4,0.3C344.6,374.4,286.4,374.8,256.1,374.3z M337.5,415.5c0.9-0.5,2.3-0.2,3.5-0.2
			c0.7,1.4,0.2,3.3,0.4,4.7C339.5,419.1,339.1,417.4,337.5,415.5z M340.5,412.8c3.7-1.6,0-4.2-0.4-6.1l-0.3-19.8l2.8,2.8
			c0.7-2.3,2.8-1.1,4-0.7l0.5,18.2c-1.9,0.9-6.1,1.3-4,4.9c0.3,0.2,0.6,0.4,1,0.5c0.8,0.1,1.7,0.2,2.6,0.3c1.9-0.1,3.8-0.6,5,0
			c-1.6,0.4-3.3,0.2-5,0c-0.9,0-1.8,0-2.6-0.3c-0.3,0-0.7,0-1,0C342.1,412.6,341.4,413.5,340.5,412.8z M358.8,423.9l-14.4-0.1
			c-0.4-2.3-0.2-5.1-0.2-7.5c4.4-0.7,9.3-1.3,14.2-0.6C359.3,418.1,358.6,421.6,358.8,423.9z M364.1,428.1
			c-1.6-5.4,2.7-12.5-3.6-15.6c-2.1,0.2-4.9,0.7-7.7,0.4c1.6-0.2,2.8-2.5,1.9-4.4l-1.8-1.4c-0.6-9.3-1-19.3-0.5-27.5
			c1.2,0.5,1.1,4,3.2,3.3c-0.2-4.9,8.9-6.4,4.8-11.8c-2.8,1.4-5.8-1.4-8.2,0.2c-4.4-7-13.2-13.2-19.2-19.7c1.6-0.2,3.3-0.2,4.9,0
			c0.2,2.3,2.5,4,4.4,5.2c0.7-0.5,1.6-0.2,2.3,0.3c0.2,1.6,0.2,3.3,1.4,4.4l0.7-1.6c0.2,0.7,0.9,1.4,1.1,2.1
			c0.5-2.8,0.3-6.5,0.3-9.8c1.4,1.9,4.9,2.1,3.9,5.6c0.5,0.5,0.9,0.7,1.6,0.7l0.7-0.5c2.3,0,0.7,5.4,3.7,3.3c1.1,2.1,0.2,5.8,2,7
			c0.5-1.6-0.2-3.5,1.2-4.6c-0.9-4-0.9-8.4,0.1-11.9l2.3,0l1.4,76.6L364.1,428.1z M459,393.8l-28.6-0.3l0.4-14.7
			c2.8,0.5,5.1-0.4,7.9-0.2c0.2,3.5-0.5,9.5,0.3,13.7c1.6,0.2,1.6-1.6,1.9-2.8c-0.4-3.5,0.8-7.7-0.8-10.7c5.8-0.6,12.3-0.6,18.2-0.3
			C458.8,383.5,459,388.4,459,393.8z M433.1,365.4l1.6,0c0.4,2.3,0.2,4.9,1.3,7l-2.8,0L433.1,365.4z M446.2,365.7
			c0.2,2.1,2.1,4.4,1.8,6.8l-1.4,0L446.2,365.7z M449.4,372.5l0.8-7.4c1.1,2.1,0,4.7,1.1,6.8l1.9-1.2c0.2,0.5,0.9,0.9,0.7,1.4
			C452.4,372.8,450.8,372.3,449.4,372.5z M451.8,357.9l2.8,3.7c-0.5-0.2-1.2,1.2-1.6,2.1c-4.2,0-7.7,0.2-11.9-0.3
			c3.2,1.9,0.4,6.1,2,9.1c-1.3,0.5-2.6,0.1-3.9-0.1c0,0,0,0,0,0.1c0,0,0,0,0-0.1c-0.6-0.1-1.2-0.1-1.8,0c0-2.1,0.3-4.7-0.2-7l0.7,0
			c0.2,2.1-0.3,5.1,1.3,6.9c0,0,0,0,0.1,0c1.2-2.3,0.5-6.3-0.4-9c-3.7-0.3-7.9,1.1-10.9-0.6l-2.1,0.7c0.5,1.2,2.1,0,2.8,1.9l-1,3.7
			c-1.4-1.2-0.4-3.5-1.8-4.9c-5.4,2.7-9.2-8.9-13.3-0.3c-1.4,0.5-2.8-1.2-4,0.2c0.7,1.2,1.9,0,2.6,0.7l-2.8,2.8c0.2-1.2,0-2.1-0.7-3
			l-0.7,0c-1,2.3,1.1,5.1-1.9,6.3c-0.2-1.2-1.1-2.8-0.2-4.2l1.9-2.1c-3-4.5-7.9,0.4-12.6-1.3l-0.5,0.7l0.2,8.6l-4,0.2
			c1.4-0.9,2.3-2.3,2.4-4.4c0.5-2.3-1.1-3.7-2.1-5.4c-3.3,0.2-7.2,1.6-10.5,0.6c-2.6-0.7-7-1.7-9.6,0.8l-0.7,0l-0.2-5.8
			C396,357.4,425.5,358.3,451.8,357.9z M428.5,393.5l-27.5,0.2l0-1.4c0.5,0.5,0.5,0.9,0.9,1.2c4-1.1-0.9-6.8,3.3-7.2
			c1.6-1.8,1.7-4.2,2.4-6.3l-0.7-1.4l1.4,0l0.6,13.7l0.7,0.9l1.4-1.6c-0.4-4.2,0.1-9.1-0.1-13l7.7,0.1c0.4,4-0.1,8.4,0.8,12.1
			c1.2-0.5,1.9-1.6,1.4-2.8c0.7,0.9-0.3,3,0.9,4c2.3-1.1,0.8-6.7,4.7-5.8c1.4-1.2,2.4-2.8,1.4-4.2c-1.1-1.9-3.7-1.4-5.1-1.4
			l-1.9,0.5l0-1.9l7-0.4C429,383.3,428.3,388.9,428.5,393.5z M391.9,390.2c1.9,0,1.2-2.6,2.1-3.7c2.3-1.8,4-5.1,2.9-7.9l2.1,0
			l-0.1,14.9l-7.9,0.2l0.1-15.1l2.6,0c0.2,1.6-1.6,0.7-2.1,1.8C391.3,383.4,391,387.1,391.9,390.2z M395.7,365.1
			c6.5-3,2.1,4.4,4.1,7c-3.5,0.2,0.3-4.4-2-6.3c-2.1,1.4-1,4.9-0.8,7l-1.6,0C396.3,370.4,396.1,367.4,395.7,365.1z M391.2,398.1
			c6.3,0.5,11.2-0.4,17.5-0.1l-0.1,14l-17.5,0.1L391.2,398.1z M402.3,372.8l-0.9,0c0-2.6-0.9-7,1-8.6
			C403.3,366.8,400.7,370,402.3,372.8z M405.1,378.6c-1.6,0-2.6,1.4-3.7,2.3l0-2.3L405.1,378.6z M411.2,373.1l5.6-6.2
			c0.7,0.2,1.2,0.9,1.9,1.4C415.4,368.5,414,372.4,411.2,373.1z M419.3,372.7c-0.9,0.2-2.3,0.7-3.5,0.2
			C416.1,371.1,418.7,371.3,419.3,372.7z M420.1,369.7c1.2,0.9,2.5,1.7,3.5,3.1C422.1,373.4,421,370.4,420.1,369.7z M379.8,372.6
			l-2.3,0c1.6-2.1-1.1-6.8,2.6-7.4l1.6,0.2l0,1.6c0.1,0.1,0.1,0.2,0,0.3l0-0.3c-0.1-0.1-0.3-0.3-0.5-0.4
			C379.1,367.5,380,370.5,379.8,372.6z M381.7,368.4c0.5,1.2,0.2,2.3,1.4,3c1.9-1.6,0.3-4.2,1-6l0.7,0c0.9,2.1-0.5,4.9,1.3,6.5
			l1.2-1.2l0.7,1.4c-1.2,0.9-4.4,0.2-6.5,0.4L381.7,368.4z M369.3,366.5c1.4-0.2,2.8-1.1,4.2-0.2c-2.1,0.7-1.4,4.6-1.7,6.3
			c-1.8-1.6,1.4-5.1-1.6-5.6c-0.2,0.7-0.7,1.2-0.5,2.1L369.3,366.5z M369.9,379c2.3-1.4,5.1,1.2,7.4,0.1c0.4,4.9-0.8,9.1,0.8,14
			c2.6-1.6,0.7-5.3,1.7-7.9c2.6,1-0.5,5.6,2.5,5.1c0.3-3.7,7.3-6.7,3.1-10.7c-1.9,0.2-2.8,0-4.2-0.3l-1.4,3.2
			c0.2-1.4-0.4-3.3,0.5-4.2l8.1,0.1l0.1,14.4l-0.9,0.9l-17.7-0.2L369.9,379z M379.3,422.4l-1.2,1.6c-1.2-0.5-2.3-1.9-3.7-1
			c-2.1,1.1-2.4,3.7-3.1,5.3c-0.9-1.9-0.2-4.4-0.4-6.8c0.5,0.7,1.4,0.2,2.1,0.5c1.2-0.7,1.2-2.1,1-2.8c-0.9-0.7-2.3-1.4-3.3-0.7
			c-0.7-2.3-0.2-5.8-0.4-8.6c0,0.5,0.7,0.7,0.9,1.2c1.4-1.9,2.6-3.9,4.5-6.2c-0.4-1.9,1.7-5.3-1.1-5.8c-1.5,0.7-3.8,1.3-4.4,2.7
			c0,0.3,0,0.7-0.1,1c-0.1-0.4,0-0.7,0.1-1c0-1.4-0.2-2.9,0.2-3.9l6.7,0.5l-0.4,13.5c-2.1,0.2-4.7-0.3-5.6,1.3
			c1.6,0.7,5.7,0.8,5.3,1c-1.1,0.2-2.8-0.5-3,0.9c1.6,1.6,5.3,1.7,3.7,5.9c-0.2,0.7,0.7,0.9,0.9,1.4c2.6-0.7,0.7-4,1.7-5.6l0.7,0
			C380,418.7,382.6,422.5,379.3,422.4z M379.6,412l0.1-13.3c0.7-0.5,1.6-0.2,2.6-0.2c-2.8,3-1,7.7-0.8,11.4c2.3-1.6,2.4-5.3,5-7.2
			c0-1.6,0.5-4.9-2.1-4.2c1.2-0.7,2.6-0.2,3.7-0.4c0.9,4.4,0.4,9.3,0.3,13.7C385.5,412.2,382.9,412,379.6,412z M397.3,421.9
			c-1.2,3-3.5,0.9-5.4,0.7c-3.3,1.6-6.5,1.8-9.5-0.3c0.7-1.6,4.4-3,4-5.6l12.3,0.1C398.2,418.4,399.8,422.1,397.3,421.9z
			 M401.2,419.6c0.1,0.8,0.2,1.5-0.2,1.9C401,420.9,401,420.2,401.2,419.6c-0.3-2-1.2-4.3,2-2.8
			C401.9,417.4,401.4,418.5,401.2,419.6z M408.4,423.9c-1.9-0.7-3.7-1-5.1-2.1c1.9-0.7,2.4-3.7,1-5.3l5.1,0
			C407.8,418.5,409.1,421.5,408.4,423.9z M418.4,421.6c-1.9-0.7-6.1-0.1-5.1-3.3c-0.2-0.7-0.7-0.7-1.4-0.7c-1.6,1.6,0,4.2-0.8,6.3
			l-0.6-7c1.9-0.5,5.4-0.9,8.2-0.6L418.4,421.6z M410.8,412l0.5-8.6l0.2,8.6L410.8,412z M412.9,412c1.4-1.8-0.7-4.4,1.7-5.6l1.4,1.4
			c2.6-0.9,2.1-4.4,1.7-6.7c-0.5-0.5-0.7-1.4-1.4-1.9c-1.6,1.5-4.1,0.1-4.9,1.3l0,2.4c-0.3-1.3-0.2-2,0-2.4l0-2.5l7.5,0.1
			c0.2,4.7-0.6,9.8,0.3,14L412.9,412z M420.7,398.1l3.7,0l-0.5,2.1c-0.7-0.5-1.6-1.2-2.1,0c-0.7,3.7-1.2,8.1,0.6,11.6
			c2.3-1.4-0.4-7.5,4.2-6c2.3-2.3,0-5.8,0.1-7.7c8.1,0.5,13.5-0.3,21.7,0l-0.6,14l-27.7,0C421.6,407.9,420.9,402.5,420.7,398.1z
			 M450.6,421c-0.9-1.2,0.5-3.3-1.1-4.2c-3,0.7,0.2,6.3-4.2,4.6c0.7-0.9,0.7-2.6,0.3-3.5c-0.7-1.2-2.1-1.2-3.2-1.2
			c-2.1,1.1-1.9,3.7-1.4,5.3l-0.7,0c-0.9-1.2,1-3.9-1.6-3.3c-0.9,1.2,0,4.4-2.8,2.8c0.9-1.9,0-3.7-1.4-5.1c-0.9,0.7-2.6,0.9-3,2.3
			c1.6,4.2-2.8,3.2-4.7,4.1c-1.2-0.2-2.3-0.5-3.2-1.2c1.4-0.2,3.5,1,3.7-1.4c0.7-1.9-0.9-3.3-2.3-3.7c-1.4,0.9-4.2,0.7-3.7,2.8
			l-0.4-2.8c2.6-0.4,5.4,0,7.9-0.2c-0.9,0.9-0.7,2.6-0.3,3.7c0.2,0.5,0.9,0.5,1.2,0c0.7-1.2,0.7-2.1,0.3-3.5
			c6.8-0.9,14.9-0.1,22.8-0.3C451.1,417.2,450.1,419.1,450.6,421z M459,421.7l-5.8,0.4c0.2-1.2,2.8-0.7,3.1-2.8l-0.9-3
			c1.6,0,2.1,0,3.7,0L459,421.7z M450.7,412.1l-0.8-14l8.6,0.1L459,412L450.7,412.1z"/>
		<path d="M262.6,428.4c-2.1,0.7-5.4,0.9-7.7,0.6c0,0.5-0.5,0.7-0.7,0.9l-0.5-0.2l0.5-1.6L262.6,428.4z"/>
		<path d="M356.9,429.5c-1.2,0-4.2,0.9-6.3,0.2C352,428,354.8,429.4,356.9,429.5z"/>
		<path d="M428.6,431c-6.1,1.6-13.5,1.3-19.8,1.5c5.4-3.4,13.5-2.9,19.8-2.4C429.1,430.3,429.1,430.8,428.6,431z"/>
		<path d="M337.1,429.7l-2.1,0.9c-19.8,0.3-40-0.1-59.8-0.3c17.7-1.7,36.6-0.8,54.3-1.2L337.1,429.7z"/>
		<path d="M402.8,431.3c-4.2,2.8-11,1.5-15.4,1.7C391.4,430.5,397.6,431.4,402.8,431.3z"/>
		<path d="M449.1,433.5c-3,0-6.3,1.3-9.3,0.9C442.3,433.2,446.3,433,449.1,433.5z"/>
		<path d="M432.8,434.5c-6.5,0.2-13.7,0.8-19.8,0.5c2.6-2.8,7.9-0.4,11.4-2l9.3,0.8L432.8,434.5z"/>
		<path d="M384.1,434.1c-3-0.5-5.1,2.3-7.9,0.6c1.9-2.1,5.4-1.6,8.4-1.1L384.1,434.1z"/>
		<path d="M405.1,434.3c-2.6,2.5-6.5,0.9-9.8,1.3C397.6,434,402.5,433.8,405.1,434.3z"/>
		<path d="M385.4,446.2c-6.3-0.1-13.1,1.7-20,1.7l0.2-1.2c-4.9-0.5-10.2-0.1-15.1,0.6c0.9,0.9,3.7,0.5,5.1,0.3
			c0.5,1.2-4.4,0.7-1.4,2.8c1.4,0.7,3.3-0.7,5.1-0.4c-1.4,0.7-2.8,1.4-4.2,1.8c1.1,6.1,8.1,2.4,11.1,3.4c-3,0.2-4.7,3.5-7.9,1.3
			c-3.7-2.1-6-6.1-9.5-8.7l-80.3,0.5c-2.6,1.8-4.2,5.1-6.8,6.5c1.7-2.3,2.6-5.1,5.4-6.7l-1.2-0.9c-12.8-0.1-25.9,1.2-38-0.3
			c-0.2,0-0.5-0.2-0.7-0.2c0.5-0.9,1.6-1.8,2.8-1.8c0,0.2,0.2,0.9-0.2,0.9l2.6,0.7l147.9-1l1.6-0.5L370.6,434L385.4,446.2z"/>
		<path d="M365.2,436.3l-1.4,0.5l-110.4,0.4l-0.7-0.5l0.9-0.7l105.3-0.9C360.8,435.5,364.1,434.2,365.2,436.3z"/>
		<path d="M389.2,435.8c0.2,0.9-0.9,1.4-1.6,1.2c-1.2,0.2-1.9-0.3-2.8-0.5c0.2-0.9,1.6-0.7,2.6-1.1
			C388.1,435.1,388.5,435.6,389.2,435.8z"/>
		<path d="M413.9,436c-1,2.6-5.1,1.8-6.3,4.1c-1.2-0.2-2.1,0.7-3.3,0.4c0.7-1.9,4-2.1,5.4-3.2C411.1,437.1,412,435.8,413.9,436z"/>
		<path d="M440.4,438.3c-6.3,0.9-13.5-0.8-20.3,0.1l-0.5-0.5c4.9-2.3,10.5-0.4,16.1-0.6C437.4,437.6,438.8,438.1,440.4,438.3z"/>
		<path d="M392,438.1c-0.5,1.9-2.8,1.6-4.4,1.6c-0.5-1.6,1.4-0.9,1.9-1.8C390.4,437.9,391.3,437.7,392,438.1z"/>
		<path d="M400.4,439.4c-1.2,0.5-3.5,2.5-5.8,1.3C395.5,439.1,398.3,438.7,400.4,439.4z"/>
		<path d="M229,438.4c-2.3,0.9-4.9,2.1-7.7,1.1C222.9,437.8,226.4,437.9,229,438.4z"/>
		<path d="M182,438.6c-1.4,0.7-3.3,1.8-5.1,0.9C177.8,438.4,180.3,437.5,182,438.6z"/>
		<path d="M192.7,439.4c-0.7,3.3-5.1,0.7-7.7,1.1l-0.9-1.2C186.4,438.2,191,436.9,192.7,439.4z"/>
		<path d="M427.1,441c-4.7,1.1-10-0.3-15.1,1C416,439.7,422.5,440.5,427.1,441z"/>
		<path d="M216.4,439.4c-4.4,1.8-10.5,2.2-15.6,1.5C205.2,438.4,211.3,439.1,216.4,439.4z"/>
		<path d="M391,442.1c-2.1,0.7-4.7,2.1-7,0.6C385.9,441.8,388.7,441.4,391,442.1z"/>
		<path d="M400.3,445c-1.9,0.5-4.2,1.1-6.1,0.4c1.4-1.2,4-1.8,6.1-1.1L400.3,445z"/>
		<path d="M409.6,444.4c-0.2,1.4-2.6,1.8-4,1.1l-0.2-0.2C406.1,444.1,408.2,443.9,409.6,444.4z"/>
		<path d="M427.1,444.3c-1.6,0.9-4,2.1-6.1,1.1C422.7,444.7,424.8,444,427.1,444.3z"/>
		<path d="M178.4,442.3c-2.3,0.9-4.9,2.1-7.7,1.1c-0.2-1.2,1.4-0.5,2.1-1.1L178.4,442.3z"/>
		<path d="M202.2,442.5c-0.5,1.2-3.5,1.4-5.4,0.9C197.3,441.8,200.5,443,202.2,442.5z"/>
		<path d="M216.8,442.7c-1.4,1.4-5.4,0.9-7.5,1.3C210.8,443.3,214.1,442.4,216.8,442.7z"/>
		<path d="M391,445.1c-0.9,0.9-4.7,1.6-3.3-0.3L391,445.1z"/>
		<path d="M224.3,445.1c-1.2,0.2-2.3,0.7-3.7,0.4l0-0.7L224.3,445.1z"/>
		<path d="M191.9,445c-3.5,0.9-7,2-10.7,1.1C184.5,445.4,188.2,444,191.9,445z"/>
		<path d="M208.9,446.1c-1.4,1.9-3.7,0-5.8,0.4C204.7,445.6,207,446.3,208.9,446.1z"/>
		<path d="M404.2,448c-1.6,0.5-3.5,2.8-5.4,1.1C399.6,447.1,402.4,448.5,404.2,448z"/>
		<path d="M386.3,448.8c-3,0.9-6.8,0.4-9.8,0.1C379.3,448.3,383.3,447.6,386.3,448.8z"/>
		<path d="M263.6,448.4c-0.2,0.7-2.1,1.6-3.5,1.6C260.6,448.6,262.4,448.2,263.6,448.4z"/>
		<path d="M255,449.3c-4.2,0.2-9.6,0.6-14-0.4l0.2-0.7C245.9,449.4,250.8,447.2,255,449.3z"/>
		<path d="M369.8,449.6c-2.8,0.4-5.4,1.8-8.2,1.1C363,448.4,368.1,449.6,369.8,449.6z"/>
		<path d="M380.7,451.8l-3.3,0.2l0.2,1.4c-1.4,0.7-2.8,0.9-4.4,0.9c-0.2-0.7,0.5-1.4,0.3-2.1C375.1,450.8,378.8,449.7,380.7,451.8z"
			/>
		<path d="M388.6,452.3c-1.4,0.7-2.8,1.1-4.2,0.7C384.2,451.1,387.4,451.6,388.6,452.3z"/>
		<path d="M366.2,452.4c-2.1,0.4-3.7,2.8-6.1,1.3C361.1,451.6,364.2,452.1,366.2,452.4z"/>
		<path d="M200.2,450.9c-1.2,0.5-2.1,1.6-3.7,1.1C196.8,450.4,199.1,451.6,200.2,450.9z"/>
		<path d="M259.4,452.4c-0.5,0.7-2.1,0.7-1.6,1.9l-3.9-2.1l-22.8,0.5C240.3,452.2,250.1,450.4,259.4,452.4z"/>
		<path d="M386.7,454.9c-1.4,0.5-3.5,2.8-5.6,1.1C382.3,454.4,384.9,454.4,386.7,454.9z"/>
		<path d="M370.9,456.1c0.2,1.2-1.9,0.9-2.8,1.4c-0.5,0-1.2,0.2-1.4-0.2C367.4,456.1,369.2,456.1,370.9,456.1z"/>
		<path d="M233.7,456.6l-12.8-0.1C224.4,454.4,229.8,455.8,233.7,456.6z"/>
		<polygon points="255.1,460.7 260.3,455.6 259.6,457.5 		"/>
		<path d="M247.7,456.4c-0.5,0.7-1.6,1.2-2.3,0.4C245.4,457.1,247,454.8,247.7,456.4z"/>
		<path d="M217.2,455.9c-4-0.3-7.9,2.5-12.3,0.6C208.6,455.6,213.2,456.4,217.2,455.9z"/>
		<path d="M369.2,459.8c-1.2,1.6-4,0.7-5.6,1.3l-2.3-2.6c1.6-0.7,2.8,1,4.4,0.7L369.2,459.8z"/>
		<path d="M383.2,458.6c-0.7,0.7-1.6,1.8-3,1.4C378.5,457.8,382,458.8,383.2,458.6z"/>
		<path d="M242.5,459.4c-0.9,1.9-3.3,1.4-5.4,1.4C238.8,460.1,240.9,459.9,242.5,459.4z"/>
		<path d="M370.6,463.1c-0.7,0.2-1.2,0.9-1.6,1.4c0,0.7,1.6,1.6,0.2,1.9c-0.9-1.2-3.9-1.7-3.7-3.5L370.6,463.1z"/>
		<path d="M252.3,463.2c-3.3,7.9-12.2,10.1-16.7,17.3c-0.5,0-1.2,1.2-1.4,0.5c4.2-6.7,12.9-9.7,15.5-17.1c-1.6-0.7-3.3,1.8-4.9,0
			c1.9-1.8,5.1,0.5,7.2-1.3L252.3,463.2z"/>
		<path d="M236.7,464.3c-0.2,0.7-1.2,1.2-1.9,0.9C234.8,464.7,235.8,464,236.7,464.3z"/>
		<path d="M377.3,466c-0.9,0.5-2.1,1.4-3.5,1.1l-0.2-0.2C374.1,465.5,376.1,465.9,377.3,466z"/>
		<path d="M375.4,471.5c-1.4-0.7-5.6-1-5.1-3.8C372.2,468.9,373.8,469.9,375.4,471.5z"/>
		<path d="M245,467.6c-0.9,0.7-1.9,1.6-3,0.9l-0.7-0.7C242.2,467.3,244.1,466.4,245,467.6z"/>
		<path d="M232.5,467.7c-1.2,0.9-2.8,1.6-4.2,0.9C228.7,467.5,231.3,467.2,232.5,467.7z"/>
		<path d="M240.6,468.7c-0.5,0.7-1.6,0.9-2.6,0.7l0-0.7L240.6,468.7z"/>
		<path d="M226.8,471.6c-2.1,1.6-5.1,1.8-7.5,0.9C221.5,471.4,224.3,471.1,226.8,471.6z"/>
		<path d="M387.9,479.8l0.7,0.5l-2.1,1.4c2.3,1.2,5.1,0.5,7.7,0.8c-1.4-3,3.3-2.5,4.9-3.7c1.9,0.5,4.2-1.1,6.8-0.4l0,0.5
			c-2.1,0.5-4.7,3.7-6.3,1.3c-1.4-0.2-2.6,1.6-4,1.6c1.2,0.5,2.8,0.3,3.2,1.4l-14.7-0.1c-2.1-4-6.7-5.9-7.8-10.3
			C380.5,474.4,383,480,387.9,479.8z"/>
		<path d="M238.5,472.2c-1.9,0.9-3.5,0.7-5.6,0.4C234.3,471.9,236.9,471.3,238.5,472.2z"/>
		<path d="M233.8,477.5c-2.8-2.1-7.4-0.5-9.5-1.5c3-1.4,6.7,0.3,9.8-0.1L233.8,477.5z"/>
		<path d="M391.6,477.3c-0.5,1.6-2.3,1.6-3.3,1.6c-0.5,0.2-0.7-0.2-0.9-0.5C387.9,477.2,390,477.2,391.6,477.3z"/>
		<path d="M224.9,478.6c0.2,1.4-4.4,0.2-2.1,2.8c-0.7,3.3,4.2,1,5.8,1.9c0,0.5,0.2,0.5,0.5,0.7l-2.1,0.7l-47.7,0.3
			c-0.2-0.5-0.7-0.7-0.5-1.2l24-0.7l-0.7-1.6c1.6-0.5,4-0.2,4.9,1l-0.7,0.5l15.1,0.1c-0.9-4.2-6.5-3.8-9.5-2.6
			c1.2-1.9,5.6-0.4,7.9-2L224.9,478.6z"/>
		<path d="M198.4,479.8c-0.9,1.6-3.3,0.4-4.7,0c-0.2-1.2,1.6-0.9,2.3-1.4C197.2,477.9,197.4,479.3,198.4,479.8z"/>
		<path d="M207.2,479.4c-1.2,1.2-3.7,0.9-5.6,1.3C202.8,479.3,205.1,479.1,207.2,479.4z"/>
		<path d="M440,481.9c0.2,1.2-1.6,1.2-2.6,1.1c-11.9-0.6-24.7,0.5-36.1-0.3l0-0.9C414.7,482.3,427,481.5,440,481.9z"/>
		<path d="M363.6,486.6c-5.6-0.7-10.7-3.8-16.3-0.8c-6.5-2.4-13.3,0.1-20.5-1.1c5.8-2.3,14.7-1.7,21.7-0.3
			C353.4,479,359,484.9,363.6,486.6z"/>
		<path d="M365.3,486.6c1.4-3,6.5-1.3,9.6-2.5C373.4,486.9,368.5,486.1,365.3,486.6z"/>
	</g>
</g>
</svg>
